<?xml version="1.0" encoding="UTF-8"?>
<svg id="Capa_1" data-name="Capa 1" xmlns="http://www.w3.org/2000/svg" viewBox="0 0 28.26 37.21">
  <defs>
    <style>
      .cls-1 {
        fill: #0e152c;
        stroke-width: 0px;
      }
    </style>
  </defs>
  <path class="cls-1" d="M28.25,3.48c0-.13,0-.27,0-.4-.05-.79-.32-1.48-.86-2.07-.58-.63-1.29-1-2.16-1.02H3.03c-.35.08-.73.03-1.06.2C.73.84.01,1.84.01,3.26,0,13.47.02,23.68,0,33.88c0,1.6,1.3,3.33,3.3,3.32,7.22-.02,14.44,0,21.66-.01.51,0,1.01-.04,1.47-.3,1.21-.69,1.82-1.71,1.82-3.11,0-10.1,0-20.2,0-30.29ZM5.68,5.54c4.68,0,9.36,0,14.04,0,1.05,0,2.1,0,3.16,0,.82,0,1.14.32,1.14,1.14,0,.96,0,1.91,0,2.87,0,.74-.32,1.06-1.06,1.06-2.89,0-5.78,0-8.67,0s-5.73,0-8.6,0c-.84,0-1.14-.29-1.14-1.13,0-.93,0-1.86,0-2.79,0-.82.32-1.14,1.14-1.14ZM24.01,17.23c-.02.62-.42,1.04-1.04,1.08-.35.02-.7,0-1.05,0,0,0,0,0,0,0-.34,0-.68.01-1.02,0-.64-.03-1.07-.44-1.09-1.07-.02-.49-.02-.99,0-1.49.03-.64.48-1.08,1.12-1.09.65,0,1.31,0,1.96,0,.67,0,1.11.45,1.12,1.11.01.48.01.97,0,1.45ZM4.26,15.69c.02-.57.45-1,1.02-1.02.71-.02,1.43-.02,2.14,0,.58.02,1.01.46,1.03,1.06.02.51.02,1.02,0,1.52-.03.62-.45,1.03-1.07,1.06-.35.02-.7,0-1.05,0,0,0,0,0,0,0-.36,0-.73.02-1.09,0-.56-.04-.97-.45-.99-1.01-.02-.53-.02-1.06,0-1.6ZM8.46,31.25c-.02.63-.44,1.06-1.08,1.1-.34.02-.68,0-1.02,0h0c-.31,0-.63.01-.94,0-.75-.02-1.16-.44-1.17-1.18,0-.45,0-.89,0-1.34.01-.66.42-1.11,1.07-1.13.69-.03,1.38-.03,2.07,0,.63.02,1.05.47,1.07,1.1.02.48.02.97,0,1.45ZM8.45,24.26c-.03.64-.49,1.06-1.14,1.07-.33,0-.65,0-.98,0h0c-.34,0-.68,0-1.02,0-.61-.02-1.05-.45-1.07-1.05-.02-.52-.02-1.04,0-1.56.02-.58.44-1,1.02-1.02.7-.02,1.4-.02,2.1,0,.62.01,1.05.43,1.08,1.05.02.51.02,1.02,0,1.52ZM12.03,15.71c.02-.58.46-1.03,1.04-1.05.71-.02,1.42-.02,2.14,0,.58.02,1.01.47,1.03,1.06.02.51.01,1.01,0,1.52-.02.59-.43,1.02-1.02,1.06-.36.02-.72,0-1.09,0,0,0,0,0,0,0-.36,0-.72.02-1.09,0-.57-.03-.99-.46-1.01-1.03-.02-.52-.02-1.04,0-1.56ZM12.03,22.75c.02-.61.45-1.03,1.06-1.06.35-.02.7,0,1.05,0,0,0,0,0,0,0,.36,0,.72-.02,1.09,0,.57.03.99.46,1.01,1.03.02.52.02,1.04,0,1.56-.02.6-.47,1.04-1.07,1.05-.69.01-1.38.01-2.06,0-.6-.01-1.05-.46-1.06-1.06-.02-.51-.02-1.01,0-1.52ZM24.01,31.22c-.01.67-.43,1.11-1.11,1.13-.83.02-1.67,0-2.5,0-.8,0-1.6,0-2.39,0-1.55,0-3.1,0-4.64,0-.93,0-1.33-.4-1.33-1.32,0-.39,0-.77,0-1.16,0-.74.45-1.18,1.21-1.19,1.26,0,2.52,0,3.77,0,1.9,0,3.8,0,5.7,0,.9,0,1.31.4,1.31,1.3,0,.41,0,.82,0,1.23ZM24.01,24.25c-.02.63-.46,1.06-1.08,1.08-.34,0-.68,0-1.02,0-.33,0-.65,0-.98,0-.64-.01-1.1-.44-1.12-1.09-.02-.5-.02-.99,0-1.49.03-.64.46-1.06,1.09-1.07.68-.02,1.35-.02,2.03,0,.64.02,1.06.44,1.08,1.08.01.5.01.99,0,1.49Z"/>
</svg>