<?xml version="1.0" encoding="UTF-8"?>
<svg id="Capa_2" data-name="Capa 2" xmlns="http://www.w3.org/2000/svg" viewBox="0 0 171.81 34.25">
  <defs>
    <style>
      .cls-1 {
        fill: #666;
      }
    </style>
  </defs>
  <g id="DISEÑO">
    <g>
      <path class="cls-1" d="M48.45,2.5l-8.26,21.32h3.35l2.02-5.3h8.92l2.01,5.3h3.5L51.8,2.5h-3.35ZM46.77,15.35l1.62-4.26c.12-.35.27-.78.46-1.29.18-.52.37-1.07.56-1.66.19-.59.38-1.15.55-1.68.03-.09.06-.18.09-.26,0,.02.01.04.02.06.18.56.39,1.17.61,1.84.22.67.42,1.28.59,1.83.17.55.29.89.35,1.04l1.66,4.39h-6.51Z"/>
      <path class="cls-1" d="M91.73,7.49c-.75,0-1.48.18-2.18.55-.7.37-1.32.86-1.86,1.49-.35.41-.62.84-.84,1.31v-3.02h-3.17v15.99h3.17v-8.83c0-.59.11-1.13.34-1.63.22-.5.52-.93.9-1.31.38-.38.81-.67,1.31-.88.5-.21,1.02-.32,1.57-.32.28,0,.57.04.87.11.29.07.56.16.81.26l.82-3.41c-.18-.08-.43-.15-.75-.21-.32-.06-.65-.09-.99-.09Z"/>
      <path class="cls-1" d="M106.64,8.58c-1.23-.72-2.62-1.08-4.16-1.08s-2.96.36-4.19,1.08c-1.23.72-2.2,1.71-2.91,2.96-.71,1.25-1.07,2.68-1.07,4.28s.36,3.03,1.07,4.28c.71,1.25,1.68,2.23,2.91,2.95,1.23.72,2.62,1.08,4.19,1.08s2.93-.36,4.16-1.08c1.23-.72,2.2-1.71,2.91-2.95.71-1.25,1.07-2.68,1.07-4.28s-.36-3.03-1.07-4.28c-.71-1.25-1.68-2.23-2.91-2.96ZM106.81,18.6c-.43.82-1.02,1.47-1.77,1.95-.75.48-1.6.72-2.56.72s-1.81-.24-2.57-.72c-.76-.48-1.36-1.13-1.78-1.95-.43-.82-.63-1.75-.61-2.79-.02-1.04.18-1.97.61-2.79.43-.82,1.02-1.47,1.78-1.95.76-.48,1.62-.72,2.57-.72s1.81.23,2.56.7c.75.47,1.34,1.11,1.77,1.93.43.82.63,1.76.61,2.82.02,1.04-.18,1.96-.61,2.79Z"/>
      <rect class="cls-1" x="114.09" y="1.28" width="3.14" height="22.54"/>
      <path class="cls-1" d="M133.78,9.69c-.66-.69-1.44-1.23-2.33-1.63-.89-.4-1.86-.59-2.89-.59-1.18,0-2.27.21-3.27.62-1.01.42-1.87,1.01-2.59,1.77-.72.76-1.28,1.66-1.69,2.7-.41,1.04-.61,2.18-.61,3.44,0,1.58.36,2.99,1.08,4.2.72,1.22,1.72,2.18,2.99,2.88,1.27.7,2.73,1.05,4.37,1.05.75,0,1.52-.11,2.3-.32.78-.21,1.52-.5,2.22-.87.7-.37,1.29-.79,1.78-1.28l-1.58-2.22c-.79.69-1.53,1.17-2.21,1.43-.68.26-1.42.4-2.21.4-1.12,0-2.1-.22-2.95-.67-.85-.45-1.51-1.08-1.98-1.9-.35-.62-.57-1.33-.66-2.12h12.23l.03-1.34c.02-1.12-.15-2.15-.5-3.09-.36-.94-.86-1.76-1.52-2.45ZM132.61,14.07h-8.95c.1-.46.23-.89.42-1.26.39-.8.95-1.41,1.71-1.83.75-.42,1.68-.62,2.77-.62.69,0,1.33.15,1.92.46.59.3,1.08.72,1.46,1.25.39.53.61,1.13.67,1.8v.21Z"/>
      <path class="cls-1" d="M150.57,8.58c-1.23-.72-2.62-1.08-4.16-1.08s-2.96.36-4.19,1.08c-1.23.72-2.2,1.71-2.91,2.95-.71,1.25-1.07,2.68-1.07,4.28s.36,3.03,1.07,4.28c.71,1.25,1.68,2.23,2.91,2.95,1.23.72,2.62,1.08,4.19,1.08s2.93-.36,4.16-1.08c1.23-.72,2.2-1.71,2.91-2.95.71-1.25,1.07-2.68,1.07-4.28s-.36-3.03-1.07-4.28c-.71-1.25-1.68-2.23-2.91-2.95ZM150.73,18.6c-.43.82-1.02,1.47-1.77,1.95-.75.48-1.6.72-2.56.72s-1.81-.24-2.57-.72c-.76-.48-1.36-1.13-1.78-1.95-.43-.82-.63-1.75-.61-2.79-.02-1.04.18-1.97.61-2.79.43-.82,1.02-1.47,1.78-1.95.76-.48,1.62-.72,2.57-.72s1.81.23,2.56.7c.75.47,1.34,1.11,1.77,1.93.43.82.63,1.76.61,2.82.02,1.04-.18,1.96-.61,2.79Z"/>
      <polygon class="cls-1" points="149.58 2.5 147.6 0 143.24 3.81 144.28 5.36 149.58 2.5"/>
      <path class="cls-1" d="M171.2,10.39c-.41-.97-1.02-1.7-1.83-2.18-.81-.48-1.83-.72-3.05-.72-.85,0-1.69.19-2.5.56-.81.38-1.51.86-2.1,1.46-.25.25-.46.52-.64.79v-2.48h-3.14v15.99h3.14v-9.69c0-.53.11-1.02.32-1.48.21-.46.51-.86.88-1.2.38-.35.82-.61,1.33-.81.51-.19,1.07-.29,1.68-.29.75-.04,1.38.08,1.89.35.51.27.88.71,1.13,1.31.24.6.37,1.36.37,2.27v9.53h3.14v-9.75c0-1.48-.2-2.71-.61-3.69Z"/>
      <path class="cls-1" d="M71.3,7.41c-.13-.02-.26-.03-.39-.05h-.12s-.03-.01-.04-.02c-.23-.02-.47-.03-.72-.03-1.43,0-2.76.35-3.99,1.04-1.23.69-2.22,1.67-2.97,2.93-.76,1.27-1.13,2.77-1.13,4.52s.38,3.25,1.15,4.5c.67,1.09,1.51,1.95,2.53,2.6,0,0,0,0-.01,0-.89.13-1.63.45-2.23.96-.6.51-.9,1.26-.9,2.25,0,.52.1.99.31,1.41.21.42.52.77.94,1.06.42.29.95.5,1.58.65.64.14,1.39.22,2.25.22h3.91c1.43,0,2.51.31,3.23.94.72.63,1.08,1.63,1.08,3.01v.86h3.13v-1.64c0-1.56-.34-2.8-1.02-3.7-.68-.9-1.58-1.54-2.7-1.92-1.12-.38-2.36-.57-3.72-.57h-4.07c-.6,0-1.05-.12-1.35-.37-.3-.25-.45-.57-.45-.96,0-.68.38-1.12,1.15-1.33.13-.03.27-.07.41-.1.91.34,1.87.51,2.85.51,1.43,0,2.76-.33,3.99-1,1.23-.66,2.21-1.62,2.95-2.87.74-1.25,1.11-2.75,1.11-4.5,0-.99-.15-1.91-.45-2.76-.3-.85-.74-1.61-1.33-2.29-.4-.46-.88-.87-1.42-1.25.64.32,1.36.63,2.17.93,1.11.42,2.22.63,3.34.63v-3.36l-9.27-.33c.2.03.36.07.18.04ZM74.28,12.81c.46.82.68,1.82.68,2.99s-.24,2.17-.7,2.97c-.47.81-1.08,1.42-1.82,1.84-.74.42-1.55.63-2.41.63s-1.67-.21-2.43-.63c-.76-.42-1.37-1.03-1.84-1.84-.47-.81-.7-1.8-.7-2.97s.23-2.2.7-3.01c.47-.81,1.08-1.43,1.84-1.86.76-.43,1.56-.65,2.43-.65s1.67.21,2.43.65c.76.43,1.36,1.06,1.82,1.88Z"/>
      <path class="cls-1" d="M34.28,1.44c-3.23,0-10.33,1.47-13.2,10.6-1.43,4.55,1.69,10.85,1.78,11.65.12,1.09-2.96,2.36-4.74,3.58-1.78-1.22-4.86-2.5-4.74-3.58.09-.8,3.21-7.1,1.78-11.65C11.5.4.96,1.21.34,1.65c-1.34.95,1.07,14.41,11.65,15.55.32,1.53-2.76,5.92-2.79,7.48-.02,1.28,5.4,5.27,8.3,5.8.23.03,1.02.03,1.24,0,2.9-.53,8.32-4.52,8.3-5.8-.03-1.56-3.29-5.95-2.97-7.48,10.58-1.14,13.17-14.6,11.83-15.55-.13-.09-.73-.21-1.62-.21ZM3.5,5.04c4.24,1.43,6.86,4.37,7.98,8.42-2.92-1.47-4.74-1.81-7.98-8.42ZM24.76,13.46c1.12-4.05,3.74-6.98,7.98-8.42-3.24,6.61-5.07,6.95-7.98,8.42Z"/>
    </g>
  </g>
</svg>