<?xml version="1.0" encoding="UTF-8"?>
<svg id="Capa_2" data-name="Capa 2" xmlns="http://www.w3.org/2000/svg" viewBox="0 0 125.03 39.55">
  <defs>
    <style>
      .cls-1 {
        fill: #666;
      }
    </style>
  </defs>
  <g id="DISEÑO">
    <g>
      <path class="cls-1" d="M8.42,31.73c0-.22.1-.34.3-.36l.35-.03v-.83s-2.08,0-2.08,0l-1.8,4.65h-.02l-1.77-4.65H1.29v.87s.64.04.64.04l-.29,4.78c-.01.17-.1.26-.26.28l-.38.03v.83s2.48,0,2.48,0v-.87s-.68-.03-.68-.03l.22-3.82h.02l1.59,4.06h1l1.62-4.11h.02l.19,3.63c0,.16-.08.25-.27.27l-.38.03v.83s2.53,0,2.53,0v-.87s-.65-.03-.65-.03l-.25-4.71Z"/>
      <path class="cls-1" d="M14.65,36.44s-.06-.12-.06-.23v-3.83c-.64-.24-1.27-.36-1.86-.36-.92,0-1.62.26-2.08.78-.46.52-.7,1.25-.7,2.18,0,.78.17,1.39.51,1.83.34.45.87.67,1.58.67.61,0,1.09-.25,1.44-.74h.03s0,.61,0,.61h1.67v-.82s-.33-.02-.33-.02c-.1,0-.17-.03-.2-.07ZM13.38,35.72c0,.23-.1.44-.3.62-.2.18-.45.27-.76.27-.73,0-1.09-.56-1.09-1.67,0-.61.11-1.1.32-1.47.21-.37.55-.56,1.02-.56.34,0,.61.05.81.13v2.67Z"/>
      <path class="cls-1" d="M13.02,29.26l-1.22,1.97.41.34,1.35-1.28c.18-.16.26-.3.26-.44s-.1-.26-.3-.37l-.49-.23Z"/>
      <path class="cls-1" d="M20.57,32.4c-.61-.25-1.25-.38-1.94-.38-.83,0-1.49.24-1.98.73-.49.49-.73,1.23-.73,2.23,0,.43.06.82.18,1.17.12.36.34.67.65.93.32.26.75.4,1.29.4s.98-.19,1.31-.58v1.42c0,.12-.03.21-.08.26-.05.05-.13.08-.24.08l-.62.03v.78s2.76,0,2.76,0v-.82s-.61-.03-.61-.03v-6.23ZM19.33,35.66c0,.3-.1.52-.28.68-.19.16-.42.24-.69.24s-.49-.05-.64-.16c-.34-.23-.51-.77-.51-1.6,0-.56.11-1.02.34-1.37.22-.35.55-.53.97-.53.32,0,.59.04.83.12v2.62Z"/>
      <path class="cls-1" d="M26.4,36.43s-.05-.11-.05-.22v-4.03s-1.84,0-1.84,0v.84s.33.02.33.02c.1,0,.17.03.21.08.04.04.06.12.06.23v2.17c0,.28-.11.52-.3.72-.2.2-.46.3-.79.3s-.55-.09-.65-.28c-.1-.19-.16-.46-.16-.82v-3.26s-1.84,0-1.84,0v.84s.33.02.33.02c.17,0,.26.1.26.29v2.38c0,1.19.53,1.78,1.62,1.78.75,0,1.32-.27,1.7-.8v.67s1.7,0,1.7,0v-.81s-.37-.03-.37-.03c-.1-.01-.17-.04-.21-.08Z"/>
      <path class="cls-1" d="M28.2,30.2c-.15.15-.22.33-.22.55,0,.22.07.4.22.54.15.14.34.21.58.21s.43-.07.58-.21c.15-.14.23-.32.23-.54,0-.22-.07-.4-.22-.55-.15-.15-.34-.22-.58-.22s-.43.07-.58.22Z"/>
      <path class="cls-1" d="M29.52,32.18h-1.88v.85s.37.02.37.02c.1,0,.17.02.2.06.04.04.06.12.06.24v2.86c0,.2-.11.31-.31.33l-.35.03v.78s2.5,0,2.5,0v-.82s-.6-.03-.6-.03v-4.32Z"/>
      <path class="cls-1" d="M35.81,33.81c0-.6-.14-1.04-.43-1.34-.29-.3-.7-.45-1.23-.45-.35,0-.68.07-.98.22-.3.15-.54.35-.73.6v-.67s-1.77,0-1.77,0v.82s.44.03.44.03c.17,0,.26.11.26.32v2.85c0,.12-.03.21-.08.25-.05.04-.13.07-.23.09l-.35.03v.78s2.5,0,2.5,0v-.82s-.6-.03-.6-.03v-2.49c0-.28.1-.52.3-.73.2-.21.46-.31.79-.31s.56.09.68.27c.12.18.18.46.18.84v2.12c0,.12-.03.21-.08.25-.05.04-.13.07-.23.09l-.35.03v.78s2.5,0,2.5,0v-.82s-.6-.03-.6-.03v-2.69Z"/>
      <path class="cls-1" d="M41.79,36.44s-.06-.12-.06-.23v-3.83c-.64-.24-1.27-.36-1.86-.36-.92,0-1.62.26-2.08.78-.46.52-.7,1.25-.7,2.18,0,.78.17,1.39.51,1.83.34.45.87.67,1.58.67.61,0,1.09-.25,1.44-.74h.03s0,.61,0,.61h1.67v-.82s-.33-.02-.33-.02c-.1,0-.17-.03-.2-.07ZM40.52,35.72c0,.23-.1.44-.3.62-.2.18-.45.27-.76.27-.73,0-1.09-.56-1.09-1.67,0-.61.11-1.1.32-1.47.21-.37.55-.56,1.02-.56.34,0,.61.05.81.13v2.67Z"/>
      <path class="cls-1" d="M46.28,34.57c-.18-.09-.33-.15-.45-.19-.12-.04-.3-.09-.55-.15-.25-.07-.46-.14-.63-.23-.11-.06-.19-.14-.25-.22-.05-.09-.08-.21-.08-.36,0-.15.07-.28.22-.39.14-.11.33-.16.57-.16s.44.03.61.09c.16.06.24.18.24.35v.43l.94-.07v-1.23c-.57-.27-1.15-.41-1.73-.41s-1.07.14-1.46.43c-.38.29-.58.7-.58,1.23,0,.53.18.91.53,1.14.18.11.35.19.5.25.15.06.29.1.42.14.13.03.26.07.4.1.14.03.25.07.35.1.1.03.2.1.3.2.1.1.15.22.15.37,0,.42-.3.63-.88.63s-.88-.15-.88-.45v-.49s-.94.07-.94.07v1.43c.43.21,1.07.32,1.93.32.59,0,1.07-.15,1.45-.44.38-.29.57-.7.57-1.21,0-.4-.12-.72-.37-.98-.09-.1-.22-.2-.4-.29Z"/>
      <path class="cls-1" d="M55.75,36.45l-2.13-5.94h-2.4v.83s.66.06.66.06l-1.7,4.79c-.06.18-.17.27-.32.29l-.35.03v.83s2.42,0,2.42,0v-.87s-.63-.03-.63-.03l.32-.9h2.46l.22.64c.04.11.03.19-.01.23-.04.04-.12.07-.24.08l-.4.03v.83s2.71,0,2.71,0v-.87s-.6-.03-.6-.03h-.01ZM51.88,34.59l.98-2.93h.03l.94,2.93h-1.95Z"/>
      <path class="cls-1" d="M57.53,32.72c-.5.46-.75,1.14-.75,2.04,0,.63.15,1.18.45,1.65.15.23.37.42.64.56.28.14.6.21.96.21.59,0,1.06-.19,1.4-.58v.57c0,.48-.09.85-.28,1.12-.18.26-.5.4-.94.4-.31,0-.55-.03-.72-.1-.18-.07-.26-.19-.26-.38v-.49s-1,.08-1,.08v1.43c.46.23,1.1.34,1.92.34s1.42-.18,1.81-.54c.39-.36.61-.92.68-1.68.01-.17.02-.54.02-1.12v-3.82c-.6-.25-1.25-.38-1.93-.38-.83,0-1.49.23-1.98.69ZM60.23,35.25c0,.31-.1.55-.31.74-.21.18-.46.27-.76.27-.73,0-1.09-.54-1.09-1.63,0-.53.12-.95.34-1.26.23-.31.56-.46.98-.46.32,0,.6.04.84.12v2.21Z"/>
      <path class="cls-1" d="M64.79,32.29c-.27.17-.46.39-.59.66v-.77s-1.77,0-1.77,0v.83s.44.03.44.03c.1,0,.17.03.21.08.04.04.06.12.06.23v2.85c0,.12-.03.21-.08.25-.05.04-.13.07-.23.09l-.35.03v.78s2.81,0,2.81,0v-.81s-.91-.04-.91-.04v-2.39c0-.3.09-.55.27-.75.18-.2.41-.29.69-.29.11,0,.21.02.28.05.07.03.1.12.1.26v.47l.98-.07v-1.53c-.31-.15-.64-.23-.99-.23s-.65.09-.92.26Z"/>
      <path class="cls-1" d="M69.56,29.49l-.49-.23-1.22,1.97.41.34,1.35-1.28c.17-.16.26-.3.26-.44s-.1-.26-.3-.37Z"/>
      <path class="cls-1" d="M69.23,32.18h-1.88v.85s.37.02.37.02c.1,0,.17.02.2.06.04.04.06.12.06.24v2.86c0,.2-.11.31-.31.33l-.35.03v.78s2.5,0,2.5,0v-.82s-.6-.03-.6-.03v-4.32Z"/>
      <path class="cls-1" d="M73,36.55c-.42,0-.75-.16-.97-.48-.22-.32-.33-.78-.33-1.36,0-1.17.43-1.76,1.27-1.76.15,0,.29.02.42.07.14.05.2.16.2.35v.49s.96-.07.96-.07v-1.34c-.53-.28-1.1-.42-1.72-.42s-1.18.23-1.67.68c-.49.46-.74,1.14-.75,2.04,0,.91.21,1.59.64,2.05.43.46,1.02.69,1.77.69s1.37-.2,1.87-.6l-.45-.79c-.41.3-.83.44-1.26.44Z"/>
      <path class="cls-1" d="M79.52,32.69c-.17-.18-.39-.33-.68-.46-.29-.13-.65-.2-1.07-.2-.6,0-1.15.18-1.65.56-.26.2-.47.49-.62.86-.15.37-.23.82-.23,1.32,0,.91.2,1.59.61,2.05.41.46.98.69,1.71.69s1.33-.24,1.8-.73c.47-.49.71-1.2.71-2.15,0-.45-.06-.85-.17-1.18-.11-.33-.25-.59-.42-.76ZM77.68,36.6c-.24,0-.44-.05-.6-.16-.36-.25-.54-.85-.54-1.82,0-.52.1-.93.29-1.23.19-.3.49-.45.89-.45s.69.16.86.47c.17.32.26.78.25,1.39,0,1.21-.38,1.81-1.15,1.81Z"/>
      <path class="cls-1" d="M82.7,30.02h-1.88v.85s.37.02.37.02c.17.01.26.1.26.25v5.07c-.01.2-.11.31-.32.33l-.35.03v.78h2.5v-.82s-.6-.03-.6-.03v-6.48Z"/>
      <path class="cls-1" d="M88.71,36.44s-.06-.12-.06-.23v-3.83c-.64-.24-1.26-.36-1.86-.36-.92,0-1.62.26-2.08.78-.46.52-.7,1.25-.7,2.18,0,.78.17,1.39.51,1.83.34.45.87.67,1.58.67.61,0,1.09-.25,1.44-.74h.03s0,.61,0,.61h1.67v-.82s-.33-.02-.33-.02c-.1,0-.17-.03-.2-.07ZM87.43,35.72c0,.23-.1.44-.3.62-.2.18-.45.27-.76.27-.73,0-1.09-.56-1.09-1.67,0-.61.11-1.1.32-1.47.21-.37.55-.56,1.02-.56.34,0,.61.05.81.13v2.67Z"/>
      <path class="cls-1" d="M93.19,34.57c-.18-.09-.33-.15-.44-.19-.12-.04-.3-.09-.55-.15-.24-.07-.46-.14-.63-.23-.11-.06-.19-.14-.25-.22-.05-.09-.08-.21-.08-.36s.07-.28.22-.39c.14-.11.33-.16.57-.16s.44.03.61.09c.16.06.24.18.24.35v.43s.95-.07.95-.07v-1.23c-.57-.27-1.15-.41-1.73-.41s-1.07.14-1.46.43c-.38.29-.58.7-.58,1.23,0,.53.18.91.53,1.14.18.11.35.19.5.25.15.06.29.1.42.14.13.03.26.07.4.1.14.03.25.07.35.1.1.03.2.1.3.2.1.1.15.22.15.37,0,.42-.3.63-.88.63s-.88-.15-.88-.45v-.49s-.94.07-.94.07v1.43c.43.21,1.07.32,1.93.32.59,0,1.07-.15,1.46-.44.38-.29.57-.7.57-1.21,0-.4-.12-.72-.37-.98-.09-.1-.22-.2-.4-.29Z"/>
      <path class="cls-1" d="M115.83,22.09c5.81,0,8-3.77,8-8.43,0-2.28-.52-4.34-1.74-5.86-.3.42-.62.89-.99,1.46-2.88,4.46-4.36,7.94-4.38,7.97-.04.1-.11.19-.2.26l-1.76,1.36c-.12.09-.26.13-.39.13-.08,0-.17-.02-.25-.05-.21-.09-.36-.29-.39-.51-.25-1.9-.69-3.88-1.24-5.56-.34-1.04-.95-1.2-1.03-1.22-.24-.01-.43-.16-.53-.37-.1-.22-.05-.47.09-.66.06-.08.65-.83,1.54-1.23.27-.12.52-.18.77-.18.81,0,1.31.61,1.72,1.28.24.39.46,1.01.63,1.59.79-1.24,2.13-3.19,3.98-5.36.16-.19.31-.36.46-.53-1.13-.6-2.55-.95-4.3-.95-5.82,0-8,3.77-8,8.43s2.19,8.43,8,8.43Z"/>
      <path class="cls-1" d="M89.71,23.34c0-1.65-1.32-3.54-4.97-3.54-.67,0-1.71.04-3.11.12-.19.01-.39.03-.59.04-.67.04-1.12.06-1.34.06-.85,0-2.01-.27-1.79-1.45.02-.13.08-.25.16-.38.9.26,1.94.4,3.15.4,5.58,0,7.68-2.99,7.68-6.68,0-3.01-1.4-5.56-4.96-6.4.06-.47.29-.83.94-.83h1.64c.52,0,.8-.25.8-.63v-1.78h-1.59c-1.77,0-3.51.85-3.51,2.55v.44c-.32-.02-.66-.03-1-.03-5.58,0-7.68,2.99-7.68,6.68,0,2.25.78,4.24,2.65,5.45-1.67,1-2.51,2.13-2.51,3.38,0,1.19.97,2.04,2.91,2.55-1.84.4-2.76,1.14-2.76,2.24,0,1.9,2.26,2.85,6.77,2.85.17,0,.34,0,.51,0,5.72-.1,8.59-1.77,8.59-5.03ZM81.22,7.51h.01c1.44,0,1.64,1.69,1.64,5.06,0,2.49-.18,3.74-1.58,3.74h-.07c-1.45-.08-1.65-1.45-1.65-4.2,0-3.06.21-4.58,1.65-4.59ZM77.12,25.41c0-1.01,1.29-1.51,3.86-1.51h.15c2.72.01,4.08.46,4.08,1.32,0,1.08-1.36,1.64-4.08,1.67-.09,0-.18,0-.27,0-2.49,0-3.74-.5-3.74-1.49Z"/>
      <path class="cls-1" d="M8.95,22.12c1.85,0,4.29-.59,5.95-1.76l.23.49c.26.56.57.92,1.18.92h1.15v-11.11h-8.49v2.07h2.99v5.06c0,1.85-1.18,2.47-2.66,2.47-2.02,0-2.85-1.79-2.85-5.06V6.14c0-2.65,2.46-3.44,3.98-3.44,2.05,0,3.3,1.38,3.3,3.65v1.39s2.17-.74,2.64-.91c.47-.17.63-.59.63-.9,0-3.27-2.3-5.08-7.29-5.08S0,3.25,0,8.04v7.14c0,4.75,3.61,6.93,8.95,6.93Z"/>
      <path class="cls-1" d="M24.39,22.09c1.95,0,3.28-.92,3.88-1.83,0,0,.37,1.83,3.7,1.83,1.47,0,2.68-.42,3.26-.66.21-.09.32-.29.24-.57-.08-.28-.35-1.14-.35-1.14,0,0-.48.21-.85.21-.39,0-.86-.17-.86-1.57v-9.75c0-2.29-2.32-3.37-6.41-3.37-3.83,0-6.46,1.02-6.46,3.5,0,.38.1.86.52.98.42.12,2.73.83,2.73.83,0,0-.2-.84-.2-1.86s.5-2.13,2.25-2.13,2.11.98,2.11,2.43c0,.98-.86,1.41-1.86,1.88-1.37.66-1.71.78-3.89,1.87-1.82.91-2.67,2.43-2.67,4.6v.85c0,2.62,1.29,3.89,4.88,3.89ZM25.01,16.72c0-1.35.25-2.43,1.53-3.58.56-.5,1.37-1.13,1.37-1.13,0,0,0,3.56,0,5.34s-.59,2.63-1.59,2.63c-1.17,0-1.31-1.15-1.31-1.96v-1.3Z"/>
      <path class="cls-1" d="M60.08,22.09c1.95,0,3.28-.92,3.88-1.83,0,0,.37,1.83,3.7,1.83,1.47,0,2.69-.42,3.26-.66.21-.09.32-.29.24-.57-.08-.28-.35-1.14-.35-1.14,0,0-.48.21-.85.21-.39,0-.86-.17-.86-1.57v-9.75c0-2.29-2.32-3.37-6.41-3.37-3.83,0-6.46,1.02-6.46,3.5,0,.38.1.86.52.98.42.12,2.73.83,2.73.83,0,0-.2-.84-.2-1.86s.5-2.13,2.25-2.13,2.11.98,2.11,2.43c0,.98-.86,1.41-1.86,1.88-1.37.66-1.71.78-3.89,1.87-1.82.91-2.67,2.43-2.67,4.6v.85c0,2.62,1.29,3.89,4.88,3.89ZM60.7,16.72c0-1.35.25-2.43,1.53-3.58.56-.5,1.37-1.13,1.37-1.13,0,0,0,3.56,0,5.34s-.59,2.63-1.59,2.63c-1.17,0-1.31-1.15-1.31-1.96v-1.3Z"/>
      <path class="cls-1" d="M35.47,2.54h1.53v17.29c0,1.11.72,2.26,4.05,2.26,1.47,0,2.69-.42,3.26-.66.21-.09.32-.29.24-.57-.08-.28-.36-1.14-.36-1.14,0,0-.48.21-.85.21s-.85-.19-.85-1.23V0c-1.49.48-2.46.74-4.02,1-1.56.26-2.61.33-3.53.36v.7c0,.3.17.49.52.49Z"/>
      <path class="cls-1" d="M44.83,2.54h1.53v17.29c0,1.11.72,2.26,4.05,2.26,1.47,0,2.68-.42,3.26-.66.21-.09.32-.29.24-.57-.08-.28-.36-1.14-.36-1.14,0,0-.48.21-.85.21s-.85-.19-.85-1.23V0c-1.5.48-2.46.74-4.02,1-1.55.26-2.61.33-3.53.36v.7c0,.3.17.49.52.49Z"/>
      <path class="cls-1" d="M90.8,7.77h1.53v14.01h5.49v-8.86c0-2.01.23-3.1.69-3.94.45-.84,1.38-1.26,1.88-1.26.66,0,1.07.3,1.14,1.25.1,1.23-.2,2.1-.2,2.1h3.9c.52,0,.83-.7.83-1.44v-.56c0-2.37-1.08-3.84-3.88-3.84-1.84,0-3.08.82-4.35,2.47v-2.47c-1.5.48-2.46.74-4.02,1-1.55.26-2.61.33-3.52.36v.7c0,.3.17.49.52.49Z"/>
      <path class="cls-1" d="M114.59,27.22c-2.03-2.03-3.98-2.56-6.57-2.56h-16.77c.11-.41.16-.85.16-1.32,0-1.05-.45-2.02-1.27-2.73-.93-.8-2.26-1.23-3.95-1.26l-.02.06c1.27.14,2.29.54,3.05,1.2.82.71,1.27,1.68,1.27,2.73,0,1.8-.8,3.17-2.37,4.1-1.28.75-3.11,1.2-5.46,1.35l-.02.04c2.8-.07,4.94-.54,6.39-1.39.39-.23.73-.49,1.03-.77h1.88c3.01,0,4.5.57,6.4,2.47l8.52,8.52h18.16s-9.2-9.2-10.44-10.44Z"/>
      <path class="cls-1" d="M72.55,25.53c0-.3.04-.59.12-.86H0v2h72.75c-.16-.43-.2-.83-.2-1.14Z"/>
      <path class="cls-1" d="M121.15,6.02c-.31.33-.64.7-.98,1.1-3.05,3.59-4.73,6.62-4.73,6.62,0,0-.41-2.12-.91-2.93-.5-.81-.92-1.19-1.69-.85-.77.34-1.29,1.03-1.29,1.03,0,0,1.07.11,1.57,1.66.5,1.55.99,3.57,1.26,5.68l1.76-1.36s1.48-3.5,4.43-8.07c1.51-2.34,2.38-3.26,3.36-4.22.33-.32.58-.52.48-1-.08-.4-.09-.39-.09-.39-.92.64-1.82,1.34-2.87,2.41-1.22-.62-2.69-.93-4.38-.93-.04,0-.08,0-.13,0v.03c1.42.09,2.68.41,3.73.97l.47.25Z"/>
    </g>
  </g>
</svg>