<?xml version="1.0" encoding="UTF-8"?>
<svg id="Capa_2" data-name="Capa 2" xmlns="http://www.w3.org/2000/svg" viewBox="0 0 162.87 37.23">
  <defs>
    <style>
      .cls-1 {
        fill: #666;
      }
    </style>
  </defs>
  <g id="DISEÑO">
    <path class="cls-1" d="M0,0v37.23h162.87V0H0ZM19.39,28.59c-.37,0-.75-.03-1.11-.1-3.41-.61-5.67-3.87-5.06-7.28.19-1.03.75-1.96,1.59-2.6-.84-.64-1.4-1.56-1.59-2.6-.07-.37-.1-.74-.1-1.11,0-3.46,2.8-6.27,6.26-6.27h6.48s0,5.09,0,5.09h-6.27c-.64,0-1.16.53-1.16,1.17,0,.64.52,1.16,1.17,1.16h6.26s0,5.09,0,5.09h-6.26c-.64,0-1.16.53-1.16,1.17,0,.64.52,1.16,1.17,1.16h6.27s0,5.09,0,5.09h-6.48ZM34.41,28.59h-6.48s0-5.09,0-5.09h6.27c.64,0,1.16-.53,1.16-1.17,0-.64-.52-1.16-1.17-1.16h-6.26s0-5.09,0-5.09h6.26c.64,0,1.16-.53,1.16-1.17,0-.64-.52-1.16-1.17-1.16h-6.27s0-5.09,0-5.09h6.48c.37,0,.75.03,1.11.1,3.41.61,5.67,3.87,5.06,7.28-.19,1.03-.75,1.96-1.59,2.6.84.64,1.4,1.56,1.59,2.6.07.37.1.74.1,1.11,0,3.46-2.8,6.27-6.26,6.27ZM44.98,28.58v-14.88s3.81,0,3.81,0v14.4s0,.48,0,.48h-3.82ZM51.41,28.58h-1.71s0-3.83,0-3.83h1.61c.47,0,.85-.38.85-.85,0-.47-.38-.85-.85-.85h-1.61s0-3.83,0-3.83h1.61c.47,0,.85-.38.85-.85,0-.47-.38-.85-.85-.85h-1.61s0-3.83,0-3.83h1.71c.29,0,.58.03.87.08,2.52.48,4.18,2.91,3.7,5.44-.14.76-.55,1.45-1.17,1.92.61.47,1.03,1.16,1.17,1.92.05.29.08.58.08.87,0,2.57-2.08,4.65-4.65,4.65ZM64.41,28.57h-2.41c-.16,0-.32,0-.48-.02-.16-.02-.32-.04-.48-.07-1.26-.26-2.29-1.01-2.94-2.01-.65-1-.92-2.24-.66-3.5.08-.36.22-.71.41-1.02.19-.31.44-.59.74-.81-.29-.23-.54-.5-.74-.81-.2-.31-.34-.65-.41-1.02-.03-.16-.06-.32-.08-.48-.02-.16-.03-.32-.03-.48,0-1.28.52-2.45,1.36-3.29.84-.84,2-1.36,3.29-1.36h2.41s2.41,0,2.41,0v1.91s0,1.91,0,1.91h-2.33s-2.33,0-2.33,0c-.23,0-.45.1-.6.25s-.25.37-.25.6c0,.23.1.45.25.6.15.15.37.25.6.25h2.33s2.33,0,2.33,0v1.91s0,1.91,0,1.91h-2.33s-2.33,0-2.33,0c-.23,0-.45.1-.6.25-.15.15-.25.37-.25.6,0,.23.1.45.25.6.15.15.37.25.6.25h2.33s2.33,0,2.33,0v1.91s0,1.91,0,1.91h-2.41ZM68.37,28.57v-14.88s3.81,0,3.81,0v14.88s-3.81,0-3.81,0ZM78.19,23.62v4.94s-3.95,0-3.95,0v-4.7c0-.48-.39-.87-.87-.87h-.28s0-3.78,0-3.78h.28c.48,0,.87-.39.87-.87,0-.48-.39-.87-.87-.87h-.28v-3.8s.47,0,.47,0c.42,0,.85.06,1.25.17,2.47.69,3.92,3.26,3.23,5.73-.17.62-.54,1.18-1.04,1.58.75.59,1.19,1.49,1.19,2.45ZM86.49,28.56h-4.25s0-10.63,0-10.63h-2.76s0-4.25,0-4.25h9.77s0,4.24,0,4.24h-2.76s0,10.63,0,10.63ZM90.79,28.55v-14.88s3.81,0,3.81,0v14.88s-3.81,0-3.81,0ZM103.28,28.55v-9.24c0-.79-.65-1.44-1.44-1.44s-1.44.64-1.44,1.44v9.24s-4.24,0-4.24,0v-9.2c0-3.14,2.54-5.69,5.68-5.69,3.14,0,5.69,2.54,5.69,5.68v9.2s-4.24,0-4.24,0ZM109.08,28.54v-14.88s3.81,0,3.81,0v14.88s-3.81,0-3.81,0ZM125.43,28.53h-4.81s0-3.82,0-3.82h4.44c.48,0,.88-.39.87-.88,0-.39-.26-.73-.63-.84h0c-1.31-.38-2.53-1.03-3.57-1.91-.71-.59-1.12-1.47-1.12-2.39,0-2.53,2.05-4.58,4.58-4.58h4.81s0,3.47,0,3.47h-4.32c-.48,0-.87.39-.87.88,0,.42.3.78.71.86.72.14,1.41.35,2.08.64.27.12.52.27.74.45,1.06.87,1.67,2.16,1.67,3.53,0,2.53-2.05,4.58-4.58,4.58ZM131.55,28.56c-.71,0-1.28-.57-1.28-1.28s.57-1.28,1.28-1.28,1.28.57,1.28,1.28-.57,1.28-1.28,1.28ZM141.39,28.52v-8.79c0-.76-.62-1.38-1.39-1.38-.76,0-1.38.62-1.38,1.38v1.86s1.93,0,1.93,0v3.86s-1.93,0-1.93,0v3.07s-4.25,0-4.25,0v-8.83c.02-3.07,2.5-5.56,5.58-5.59,3.11-.03,5.65,2.47,5.68,5.58v8.83s-4.24,0-4.24,0ZM148.02,28.56c-.71,0-1.28-.57-1.28-1.28s.57-1.28,1.28-1.28,1.28.57,1.28,1.28-.57,1.28-1.28,1.28Z"/>
  </g>
</svg>