<?xml version="1.0" encoding="UTF-8"?>
<svg id="Capa_2" data-name="Capa 2" xmlns="http://www.w3.org/2000/svg" xmlns:xlink="http://www.w3.org/1999/xlink" viewBox="0 0 1785 893">
  <defs>
    <style>
      .cls-1 {
        mask: url(#mask);
      }

      .cls-2 {
        fill: none;
      }

      .cls-3 {
        fill: url(#Degradado_sin_nombre_18);
      }

      .cls-4 {
        filter: url(#luminosity-invert);
      }

      .cls-5 {
        clip-path: url(#clippath);
      }

      .cls-6 {
        fill: #b5b5b5;
      }
    </style>
    <filter id="luminosity-invert" x="-20.04" y="0" width="1826.98" height="893" color-interpolation-filters="sRGB" filterUnits="userSpaceOnUse">
      <feColorMatrix result="cm" values="-1 0 0 0 1 0 -1 0 0 1 0 0 -1 0 1 0 0 0 1 0"/>
    </filter>
    <linearGradient id="Degradado_sin_nombre_18" data-name="Degradado sin nombre 18" x1="891.55" y1="893" x2="891.55" y2="355.41" gradientTransform="translate(1.9 -355.41)" gradientUnits="userSpaceOnUse">
      <stop offset="0" stop-color="#000"/>
      <stop offset="1" stop-color="#000" stop-opacity="0"/>
    </linearGradient>
    <mask id="mask" x="-20.04" y="0" width="1826.98" height="893" maskUnits="userSpaceOnUse">
      <g class="cls-4">
        <rect class="cls-3" x="-20.04" y="0" width="1826.98" height="537.59" transform="translate(1786.9 537.59) rotate(180)"/>
      </g>
    </mask>
    <clipPath id="clippath">
      <rect class="cls-2" x="0" width="1785" height="893" transform="translate(1785 893) rotate(180)"/>
    </clipPath>
  </defs>
  <g id="FONDOS">
    <g class="cls-1">
      <g class="cls-5">
        <g>
          <path class="cls-6" d="M57.18.38c-3.53,1.95-7.21,3.68-11.03,5.19C31.41,11.36,16.01,13.61.48,14.27v1.52c15.7-.66,31.26-2.95,46.21-8.82,4.72-1.86,9.23-4.08,13.51-6.6h-3.02Z"/>
          <path class="cls-6" d="M110.07.38c-15.57,17.72-36.45,31.42-60.31,38.92-16.04,5.04-32.6,7.5-49.28,8.68v1.51c16.81-1.18,33.53-3.66,49.72-8.75,24.58-7.73,46.03-21.95,61.87-40.36h-2Z"/>
          <path class="cls-6" d="M144.93.38c-.44.62-.85,1.23-1.29,1.85-23.77,33.08-58.8,56.11-101.29,66.6-13.86,3.42-28.08,5.82-41.87,7.68v1.52c13.89-1.87,28.24-4.29,42.22-7.73C85.55,59.72,120.87,36.48,144.85,3.11c.65-.91,1.28-1.82,1.91-2.73h-1.83Z"/>
          <g>
            <path class="cls-6" d="M196.16,531.5c14.36,12.88,39.21,10.4,61.19,8.21,43.53-4.36,88.15-11.94,136.4-23.2,14.27-3.33,28.74-7.2,42.73-10.94,30.17-8.06,61.35-16.4,92.58-19.92,46.24-5.19,93.25-1.98,137.45,1.74,40.5,3.43,87.11,5.53,127.65-12.75,30.71-13.86,56.07-38.37,73.34-70.89,16.39-30.86,23.83-66.56,20.96-100.52-3.65-43.3-20.05-81.38-46.17-107.25-10.65-10.54-23.23-19.4-35.41-27.97-18.88-13.28-38.39-27.02-50.44-47.07-18.43-30.68-11.3-71.55,16.23-93.03,34.54-26.95,80.98-9.25,99.35-.39,12.73,6.14,24.99,13.39,36.85,20.39,23.55,13.9,47.88,28.28,76.48,34.33,37.84,8,76.74,4.84,114.34,1.78l3.66-.3c74.53-6.04,151.22-6.6,198.11,57.12,18.04,24.51,28.68,53.81,38.98,82.13,3.99,11.01,8.13,22.4,12.65,33.35,2.5,6.09,5.16,12.25,7.71,18.22,12.91,30,26.26,61.03,26.58,94.49.41,42.86-24.61,77.43-50.26,109.14l-5.59,6.91c-26.38,32.55-51.29,63.31-71.8,99.91-3.09,5.53-6.07,11.13-9.24,17.05-15.51,29.1-31.55,59.18-58.59,76.05-31.99,19.96-72.14,13.86-107.57,8.47l-2.14-.32c-44.15-6.7-87.45-11.61-131.68,1.89-23.4,7.12-45.43,18.13-66.74,28.78-17.36,8.67-35.31,17.63-53.78,24.38-5.26,1.92-10.51,3.82-15.75,5.71-36.66,13.22-71.29,25.71-105.02,45.16-30.78,17.74-56.89,38.99-84.53,61.51-5.6,4.56-11.22,9.12-16.89,13.68-13.03,10.46-25.6,18.94-37.91,25.52h12c9.76-5.84,19.62-12.77,29.64-20.8,5.69-4.58,11.31-9.15,16.92-13.71,27.46-22.36,53.38-43.46,83.74-60.97,33.28-19.18,67.67-31.58,104.07-44.73,5.24-1.89,10.5-3.78,15.77-5.71,18.8-6.86,36.9-15.89,54.4-24.64,21.09-10.55,42.88-21.43,65.81-28.41,43.04-13.12,85.62-8.29,129.07-1.7l2.14.33c36.43,5.53,77.75,11.81,111.62-9.33,28.38-17.71,44.81-48.52,60.7-78.31,3.14-5.9,6.1-11.46,9.18-16.94,20.25-36.16,45-66.72,71.22-99.07l5.59-6.91c25.19-31.15,52.03-68.14,51.6-113.01-.32-34.68-13.92-66.27-27.06-96.83-2.56-5.94-5.2-12.09-7.7-18.13-4.46-10.83-8.57-22.15-12.55-33.11-10.43-28.73-21.22-58.44-39.79-83.66-48.71-66.2-127.19-65.71-203.4-59.54l-3.66.3c-37.19,3.02-75.62,6.15-112.64-1.67-27.64-5.85-50.48-19.33-74.67-33.62-11.97-7.07-24.35-14.38-37.3-20.63-19.36-9.35-68.43-27.95-105.61,1.06-29.9,23.33-37.67,67.66-17.68,100.92,12.7,21.14,32.74,35.24,52.13,48.89,11.97,8.43,24.35,17.14,34.64,27.32,25.1,24.85,40.87,61.59,44.41,103.46,5.86,69.45-32.32,139.01-90.79,165.39-39.24,17.71-84.94,15.62-124.69,12.26-44.49-3.76-91.84-6.99-138.61-1.73-31.68,3.56-63.09,11.96-93.46,20.08-13.95,3.72-28.37,7.58-42.55,10.88-48,11.2-92.37,18.75-135.68,23.08-20.71,2.06-44.17,4.42-56.57-6.71-6.38-5.72-9.59-14.6-9.79-27.13-.51-31.86,12.24-65.26,37.89-99.27,5.11-6.78,10.36-13.6,15.45-20.2,20.34-26.4,41.37-53.7,57.71-84.02,18.15-33.65,35.83-73.66,54.06-122.31,18.44-49.22,25.28-93.32,20.88-134.83-1.46-13.86-4.47-26.68-8.56-38.87h-6.29c4.27,12.34,7.4,25.3,8.91,39.51,4.29,40.55-2.43,83.74-20.53,132.06-18.14,48.39-35.71,88.15-53.72,121.56-16.12,29.88-36.99,56.99-57.18,83.2-5.1,6.62-10.36,13.45-15.49,20.25-26.47,35.1-39.63,69.76-39.1,103.01.22,14.31,4.08,24.62,11.79,31.54Z"/>
            <path class="cls-6" d="M400.19,886.67c-7.8-2.62-15.86-5.33-23.72-7.83-37.75-12.01-80.48-27.48-109.75-59.21-22.09-23.94-27.95-56-33.61-87.01-1.55-8.48-3.15-17.24-5.06-25.7-4.67-20.69-10.42-41.43-17.59-63.41-2.2-6.77-4.29-13.84-6.3-20.7-4.33-14.73-8.81-29.95-15.01-43.99-9.33-21.06-27.56-26.92-42.4-29.68-18.69-3.46-38.51-7.64-57.13-17.24-29.08-15.01-50.17-40.95-66.35-81.64-8.27-20.81-15.68-42.37-22.79-63.49v18.63c5.42,15.77,11.08,31.62,17.24,47.09,16.52,41.55,39.15,69.28,69.17,84.76,19.35,9.98,39.65,14.28,58.78,17.82,20.17,3.73,31.54,11.56,38.01,26.19,6.05,13.67,10.47,28.7,14.74,43.25,2.03,6.89,4.13,14.02,6.36,20.86,7.11,21.8,12.81,42.37,17.44,62.87,1.88,8.34,3.46,17.04,5.01,25.45,5.82,31.86,11.84,64.8,35.12,90.03,30.27,32.8,73.85,48.61,112.34,60.85,7.8,2.48,15.84,5.19,23.62,7.8.47.16.95.32,1.42.48h19.1c-6.25-2.03-12.46-4.12-18.63-6.2Z"/>
          </g>
          <g>
            <path class="cls-6" d="M924.47,18.79c30.34,15.64,58.99,30.41,92.55,36.26,35.34,6.15,70.82.82,105.11-4.34,9.12-1.37,18.55-2.79,27.83-3.97,45.96-5.85,80.21-2.15,111.02,11.98,30.22,13.86,56.77,37.36,74.75,66.17,14.5,23.23,22.14,50.06,29.53,76.02,3.8,13.37,7.74,27.18,12.56,40.33,3.44,9.41,7.45,19.07,11.32,28.41,12.91,31.23,26.28,63.5,24.51,97.18-2.76,52.08-34.89,91.29-65.98,129.21-18.4,22.46-37.45,45.69-50.49,71.53-24.43,48.44-32.34,91.08-23.49,126.73,2.08,8.37,4.56,16.55,6.96,24.45,9.62,31.74,18.71,61.72-1.93,94.52-8.05,12.78-17.05,24.87-25.75,36.55-10.21,13.71-20.66,27.74-29.63,43.06h1.74c8.83-14.95,19.07-28.7,29.08-42.14,8.73-11.71,17.75-23.82,25.83-36.65,21-33.4,11.82-63.7,2.09-95.77-2.38-7.89-4.85-16.04-6.93-24.37-8.76-35.28-.89-77.57,23.37-125.68,12.97-25.7,31.96-48.85,50.32-71.25,31.23-38.11,63.52-77.51,66.3-130.09,1.8-34.02-11.62-66.46-24.61-97.84-3.86-9.33-7.86-18.97-11.29-28.35-4.81-13.1-8.73-26.89-12.54-40.22-7.42-26.06-15.09-53.01-29.71-76.41-18.14-29.05-44.92-52.75-75.39-66.73-31.09-14.27-65.57-18-111.84-12.12-9.3,1.18-18.74,2.6-27.86,3.97-34.19,5.14-69.54,10.46-104.63,4.34-33.34-5.81-61.9-20.53-92.13-36.11-4.4-2.27-8.8-4.54-13.23-6.79-6.9-3.49-13.92-6.97-21.04-10.28h-3.6c8.13,3.7,16.12,7.65,23.97,11.63,4.43,2.24,8.83,4.52,13.22,6.78Z"/>
            <path class="cls-6" d="M783.85,189.6c-18.43-14.96-37.49-30.43-51.34-50.3-21.35-30.63-22.37-73.11-2.61-108.22,6.92-12.3,15.75-22.65,25.93-30.7h-2.38c-9.71,8-18.16,18.07-24.85,29.96-20.04,35.61-18.98,78.72,2.69,109.83,13.97,20.05,33.12,35.58,51.63,50.6,11.44,9.29,23.28,18.89,33.72,29.44,26.86,27.11,40.93,64.85,38.62,103.53-2.38,39.71-21.5,76.55-52.46,101.05-46.67,36.93-103.98,34.01-159.41,31.21-29.85-1.51-60.72-3.08-89.58,1.59-8.63,1.4-17.37,2.51-25.81,3.59-9.58,1.22-19.5,2.48-29.3,4.17-17.25,2.96-34.63,6.68-51.44,10.28-5.94,1.26-11.87,2.54-17.81,3.78l-3.41.71c-37.52,7.84-80.05,16.75-119.06,12.88-23.15-2.3-40.99-10.56-50.23-23.27-7.04-9.7-9.1-21.81-6.1-36.01,5.27-24.97,19.91-46.9,34.06-68.11,7.71-11.55,15.68-23.49,21.96-35.7,11.64-22.64,20.69-47.04,29.44-70.63,2.19-5.89,4.36-11.77,6.58-17.62,3.58-9.43,7.35-18.96,11-28.19,7.44-18.8,15.13-38.23,21.56-57.8,18.02-54.86,22.2-104.86,12.76-155.29h-1.53c9.46,50.28,5.31,100.12-12.66,154.82-6.41,19.52-14.09,38.94-21.52,57.71-3.65,9.23-7.42,18.77-11,28.21-2.22,5.85-4.4,11.74-6.59,17.63-8.74,23.55-17.77,47.91-29.37,70.47-6.24,12.13-14.19,24.04-21.88,35.55-14.24,21.33-28.96,43.38-34.29,68.64-3.09,14.64-.94,27.16,6.36,37.21,9.5,13.07,27.72,21.56,51.28,23.88,39.24,3.89,81.89-5.04,119.52-12.9l3.41-.71c5.94-1.25,11.88-2.51,17.82-3.79,16.79-3.59,34.16-7.31,51.37-10.26,9.78-1.69,19.68-2.95,29.24-4.17,8.46-1.07,17.21-2.19,25.86-3.6,28.71-4.64,59.5-3.08,89.28-1.58,55.71,2.82,113.31,5.74,160.41-31.53,31.29-24.77,50.62-61.99,53.02-102.13,2.35-39.12-11.89-77.28-39.05-104.69-10.5-10.6-22.37-20.23-33.85-29.54Z"/>
          </g>
          <g>
            <path class="cls-6" d="M755.12,202.25c-10.62-10.01-21.6-20.36-31.36-31.41-30.06-34-40.7-71.9-31.65-112.62,4.77-21.47,12.98-41.28,23.61-57.84h-1.77c-10.48,16.55-18.57,36.23-23.3,57.51-9.17,41.23,1.6,79.58,31.99,113.96,9.81,11.1,20.82,21.47,31.46,31.5,17.44,16.44,35.47,33.43,48.66,54.02,21.74,33.96,22.86,73.66,2.99,106.2-23.94,39.22-64.27,53.3-93.89,58.2-29,4.8-59.14,5.91-88.28,6.97-15.89.58-32.31,1.18-48.33,2.37-29.79,2.22-59.69,6.79-88.63,11.21-16.51,2.53-33.57,5.14-50.43,7.28l-.19.02c-28.78,3.66-58.53,7.45-86.43.86-13.89-3.28-23.95-9.08-29.91-17.24-11-15.07-5.64-35.31.81-54.74,6.29-18.98,12.36-38.39,18.22-57.15,8-25.62,16.28-52.11,25.25-77.88,4.42-12.69,9.29-25.54,14-37.98,11.39-30.06,23.17-61.13,29.75-93.01,7.44-36.03,8.55-73.71,3.33-112.11h-1.51c5.22,38.29,4.13,75.88-3.29,111.8-6.56,31.76-18.31,62.78-29.68,92.78-4.72,12.44-9.59,25.31-14.01,38.02-8.98,25.8-17.26,52.3-25.27,77.93-5.86,18.76-11.92,38.16-18.21,57.13-4.84,14.64-12.97,39.14-.59,56.11,6.17,8.45,16.52,14.45,30.77,17.81,11.21,2.65,22.71,3.64,34.3,3.64,17.52,0,35.27-2.26,52.67-4.47l.19-.02c16.88-2.15,33.96-4.76,50.47-7.28,28.9-4.42,58.78-8.98,88.51-11.21,15.99-1.19,32.4-1.79,48.27-2.37,29.19-1.06,59.38-2.16,88.47-6.98,29.93-4.95,70.68-19.2,94.92-58.9,20.18-33.05,19.06-73.36-3-107.81-13.28-20.75-31.39-37.81-48.9-54.31Z"/>
            <path class="cls-6" d="M1092.19.38c-28.5,21.3-69.97,11.95-98.77,3.01-3.09-.96-6.17-1.98-9.24-3.01h-4.68c4.47,1.56,8.96,3.06,13.47,4.45,29.31,9.09,71.63,18.6,100.68-3.67.35-.25.65-.52.99-.78h-2.45Z"/>
          </g>
          <path class="cls-6" d="M693.61,168.16c-24.11-31.18-32.52-68.74-24.33-108.6,2.96-14.39,8.61-36.29,18.69-59.18h-1.63c-9.96,22.79-15.56,44.54-18.51,58.88-8.29,40.31.22,78.28,24.6,109.83,8.73,11.29,19.2,22.28,30.27,33.93,33.88,35.59,68.9,72.39,59.02,122.43-9.88,49.99-66.81,64.93-115.32,72.35-16.65,2.55-33.69,4.36-50.17,6.12-9.23.99-18.77,2.01-28.14,3.14-10.27,1.24-20.56,2.55-30.85,3.86-34.71,4.42-70.6,9-105.98,10.85-49.49,2.6-78.59-9.79-86.48-36.8-5.24-17.91-3.14-37.89-.54-56.81.34-2.46.4-5.91.46-9.91.17-9.66.4-22.89,5.35-26.84l.2-.24c2.6-4.95,3.25-10.7,3.86-16.25.24-2.16.47-4.21.81-6.21,1.46-8.67,4.3-17.34,7.05-25.72l.94-2.88c5.3-16.3,11.59-32.54,17.68-48.26,2.66-6.88,5.42-14,8.06-21.02,16.04-42.78,24.41-86,24.86-128.48.15-13.93-.64-28.09-1.55-41.97h-1.5c.91,13.87,1.71,28.04,1.55,41.95-.45,42.29-8.79,85.35-24.77,127.96-2.64,7.02-5.39,14.13-8.05,21.01-6.09,15.73-12.39,31.99-17.7,48.33l-.94,2.88c-2.76,8.43-5.62,17.16-7.1,25.94-.34,2.05-.59,4.21-.82,6.3-.6,5.37-1.22,10.91-3.63,15.59-5.37,4.49-5.6,17.45-5.78,27.89-.07,3.95-.12,7.36-.45,9.73-2.62,19.08-4.74,39.24.58,57.44,7.42,25.4,32.81,38.23,75.53,38.23,4,0,8.16-.11,12.46-.33,35.44-1.86,71.35-6.43,106.09-10.87,10.29-1.31,20.57-2.62,30.84-3.86,9.36-1.13,18.9-2.15,28.12-3.13,16.5-1.76,33.56-3.58,50.24-6.13,45.17-6.92,106.39-22.06,116.56-73.55,10.03-50.8-25.27-87.89-59.4-123.76-11.06-11.61-21.49-22.59-30.17-33.82Z"/>
          <path class="cls-6" d="M1288.94,868.99c-6.7,7.77-13.51,15.69-20.03,23.88h1.93c6.28-7.83,12.8-15.43,19.23-22.89,12.27-14.24,24.96-28.95,35.47-44.96,22.63-34.43,24.8-68.78,7.03-111.39-14.42-34.57-29.33-70.31-19.17-111.55,10.78-43.78,39.24-78.24,66.75-111.56,22.76-27.59,46.3-56.1,59.92-89.87,15.38-38.12,13.67-81.81-5.07-129.81-1.22-3.14-2.47-6.27-3.7-9.41-6.26-15.83-12.74-32.2-17.2-48.92-3.76-14.06-5.55-28.7-7.26-42.87-.61-4.96-1.23-10.1-1.93-15.14-2.98-21.37-9.25-40.54-20.37-62.18-8.06-15.72-19.79-29.13-31.13-42.09-4.73-5.41-9.63-11-14.18-16.68-7.5-9.35-15.12-20.59-17.87-33.19h-1.55c2.75,12.99,10.56,24.53,18.26,34.13,4.56,5.7,9.47,11.31,14.21,16.73,11.29,12.9,22.95,26.24,30.94,41.79,11.01,21.48,17.24,40.51,20.19,61.69.71,5.03,1.34,10.16,1.93,15.11,1.74,14.21,3.53,28.91,7.31,43.08,4.49,16.81,10.98,33.21,17.26,49.08,1.23,3.13,2.48,6.26,3.7,9.4,18.59,47.63,20.31,90.93,5.08,128.69-13.54,33.56-37,61.98-59.7,89.47-27.62,33.47-56.17,68.06-67.04,112.17-10.28,41.72,4.74,77.7,19.25,112.49,17.56,42.08,15.43,76-6.89,109.98-10.47,15.92-23.13,30.59-35.37,44.8Z"/>
          <path class="cls-6" d="M1785.48,23.63c-24.59-1.53-47.09.05-69.63,4.71-18.97,3.92-37.99,8.98-56.38,13.89-24.58,6.56-50,13.34-75.62,17.42-33.93,5.42-77.8,8.94-116.18-12.07-22.94-12.56-40.78-29.11-51.61-47.2h-1.74c10.94,18.63,29.15,35.67,52.64,48.53,22.81,12.49,47.47,16.4,70.89,16.4,16.39,0,32.16-1.92,46.24-4.17,25.7-4.1,51.16-10.89,75.79-17.45,18.36-4.9,37.35-9.96,56.29-13.87,22.43-4.63,44.81-6.2,69.32-4.67v-1.51Z"/>
          <path class="cls-6" d="M1573.71.38c4.65.38,9.37.59,14.18.59s9.85-.2,14.87-.59h-29.05Z"/>
          <path class="cls-6" d="M694.87,202c-16.81-20.37-34.19-41.43-43.64-66.31-13.84-36.45-4.6-76.55,7.44-114.45,2.16-6.79,4.38-13.77,6.67-20.86h-6.3c-2.08,6.46-4.1,12.82-6.07,19.02-12.38,38.95-21.84,80.25-7.33,118.45,9.81,25.81,27.51,47.26,44.62,68.01,3.55,4.31,7.23,8.77,10.74,13.15,27.75,34.65,40.18,64.02,36.96,87.3-2.03,14.65-10.36,27.28-24.78,37.54-36.36,25.88-85.86,32.37-129.53,38.1l-3.78.5c-6.46.85-13.06,1.79-19.44,2.69-23.43,3.33-47.65,6.78-71.41,6.78-10.73,0-20.53-.68-29.98-2.09-23.39-3.46-40.1-11.67-49.68-24.4-9.77-12.97-12.24-30-14.07-47.78,1.35-39.1,8.92-76.35,23.13-113.88,1.41-3.7,2.82-7.39,4.23-11.08,12.09-31.61,24.59-64.29,29.09-99.31,3.34-25.94,3.65-52.37,3.96-77.93.07-4.98.13-10.02.21-15.09h-5.99c-.09,5.04-.15,10.06-.21,15.01-.3,25.38-.62,51.64-3.92,77.24-4.41,34.3-16.23,65.19-28.74,97.91-1.41,3.69-2.83,7.38-4.23,11.09-14.48,38.23-22.18,76.18-23.53,116.03v.2s.01.2.01.2c1.92,18.75,4.53,36.74,15.28,51.01,10.55,14.03,28.59,23.02,53.58,26.72,9.74,1.45,19.84,2.15,30.85,2.15h0c24.18,0,48.62-3.48,72.25-6.84,6.36-.91,12.95-1.84,19.38-2.69l3.78-.49c44.36-5.82,94.65-12.41,132.22-39.16,15.82-11.26,24.99-25.28,27.25-41.64,3.51-25.34-8.99-55.41-38.23-91.91-3.54-4.42-7.23-8.9-10.8-13.22Z"/>
          <path class="cls-6" d="M661.25,202.52c-19.33-24.54-39.31-49.91-45.42-80.94-6.16-31.33,3.49-62.47,12.83-92.58,2.92-9.41,5.89-19.1,8.34-28.62h-1.55c-2.42,9.37-5.35,18.91-8.22,28.17-9.39,30.3-19.1,61.62-12.86,93.33,6.17,31.38,26.27,56.9,45.71,81.58,4.68,5.94,9.51,12.08,14,18.12,29.07,39.17,34.13,70.98,15.03,94.56-18.72,23.13-52.4,31.37-77,37.39-27.63,6.76-60.27,13.67-92.89,13.67h0c-11.97,0-23.5-.95-34.24-2.82-39.22-6.85-61.02-33.05-64.8-77.8-.08-36.5,14.06-70.63,27.73-103.64,1.47-3.54,2.94-7.08,4.39-10.62,15.91-38.92,23.59-74.41,24.15-111.71l.09-6.12c.25-17.4.51-35.92,2.18-54.11h-1.51c-1.66,18.19-1.92,36.69-2.16,54.1l-.09,6.12c-.56,37.1-8.2,72.42-24.04,111.15-1.45,3.53-2.91,7.07-4.38,10.61-13.73,33.15-27.93,67.42-27.84,104.28,3.84,45.59,26.05,72.25,66.02,79.23,10.84,1.89,22.44,2.85,34.5,2.85h0c32.78,0,65.53-6.94,93.25-13.72,24.8-6.06,58.77-14.38,77.81-37.9,19.58-24.18,14.53-56.62-15-96.41-4.5-6.06-9.34-12.21-14.03-18.16Z"/>
          <g>
            <path class="cls-6" d="M.48,111.11c3.22-.91,6.43-1.8,9.59-2.68,33.77-9.4,68.68-19.12,99.06-37.91C137.88,52.74,159.75,28.4,180.85.38h-1.88c-20.79,27.51-42.38,51.39-70.61,68.86-30.2,18.68-65.01,28.37-98.68,37.74-3.03.84-6.11,1.7-9.2,2.56v1.57Z"/>
            <path class="cls-6" d="M352.72,36.45c-2.94-12.36-7.61-24.53-13.62-36.07h-1.68c6.12,11.64,10.86,23.93,13.84,36.42,8.9,37.31,4.45,77.11-14.41,129.03-16.73,46.04-35.77,86.93-56.61,121.56-17.12,28.45-38.27,51.48-60.66,75.86-5.79,6.31-11.78,12.83-17.64,19.41-6.09,6.81-12.14,13.85-18,20.66-8.2,9.53-16.68,19.37-25.34,28.76-1.68,1.81-3.39,3.71-5.13,5.66-11.06,12.29-23.6,26.21-38.46,31.49-4.07,1.44-8.22,2.18-12.36,2.18h0c-29.55-.01-53.72-37.04-62.74-52.96-16.26-28.7-28.26-59.92-39.42-90.68v4.38c10.79,29.56,22.48,59.44,38.12,87.05,11.37,20.06,34.8,53.71,64.04,53.71h0c4.31,0,8.63-.76,12.85-2.25,15.22-5.4,27.89-19.48,39.07-31.9,1.75-1.94,3.46-3.83,5.13-5.64,8.68-9.41,17.16-19.26,25.38-28.79,5.85-6.81,11.91-13.84,17.98-20.65,5.85-6.56,11.85-13.08,17.63-19.39,22.44-24.44,43.64-47.52,60.84-76.1,20.89-34.72,39.98-75.7,56.74-121.83,18.96-52.21,23.42-92.28,14.45-129.9Z"/>
          </g>
          <path class="cls-6" d="M609.61,189.23c-7.92-8.68-16.09-17.66-23.04-26.89-13.3-17.67-19.98-32.97-21.03-48.13-1.15-16.65,5.56-32.31,12.06-47.46,1.59-3.7,3.23-7.52,4.71-11.26,5.04-12.75,13.53-34.28,16-55.11h-1.5c-2.47,20.56-10.9,41.92-15.89,54.55-1.47,3.72-3.11,7.54-4.69,11.23-6.57,15.31-13.37,31.14-12.19,48.17,1.08,15.47,7.85,31.02,21.33,48.93,6.99,9.29,15.19,18.29,23.13,27,16.26,17.84,33.07,36.29,41.31,58.91,12.3,33.78-11.43,58.16-37.75,69.71-22.29,9.78-48.85,15.4-72.87,15.4-25.44,0-69.94-6.77-82.21-52-2.91-25.35,3.06-52.57,17.74-80.91,4.52-8.72,9.92-17.43,15.14-25.85,9.61-15.5,19.55-31.53,24.92-48.93,6.62-21.42,3.92-44.18,1.31-66.18-1.98-16.78-4.04-34.14-1.95-50.79.37-2.95.96-6.06,1.73-9.24h-1.53c-.75,3.12-1.32,6.15-1.69,9.05-2.11,16.84-.04,34.28,1.95,51.16,2.59,21.84,5.26,44.44-1.26,65.54-5.32,17.22-15.2,33.16-24.76,48.58-5.23,8.44-10.65,17.18-15.19,25.95-14.82,28.62-20.85,56.13-17.87,81.89,12.54,46.31,57.81,53.22,83.66,53.22h0c24.21,0,50.99-5.66,73.46-15.53,26.94-11.82,51.22-36.85,38.55-71.61-8.35-22.91-25.25-41.47-41.61-59.41Z"/>
          <g>
            <path class="cls-6" d="M.48,160.17c1.02-1.25,2.11-2.48,3.3-3.67,14.19-14.16,32.71-22.74,50.61-31.04,2.48-1.16,4.96-2.3,7.42-3.46,30.98-14.6,71.13-35.48,106.96-67.58,6.17-5.53,12.22-11.7,18.61-18.24,12.99-13.26,26.27-26.8,41.38-35.81h-2.88c-14.38,9.06-27.1,22.04-39.55,34.75-6.38,6.52-12.42,12.67-18.55,18.17-35.69,31.98-75.72,52.79-106.6,67.35-2.46,1.16-4.93,2.31-7.42,3.46-18.02,8.35-36.65,16.99-51.03,31.34-.79.79-1.53,1.59-2.24,2.41v2.32Z"/>
            <path class="cls-6" d="M329.7,44c-5.51-16.41-16.18-32.89-30.72-43.62h-2.6c15.16,10.47,26.26,27.32,31.91,44.1,10.09,29.99,8.63,64.89-4.45,106.7-12.18,38.9-31.32,80.17-55.36,119.34-21.17,34.5-48,61.33-81.77,91-1.5,1.32-3.06,2.7-4.67,4.13-21.54,19.09-51.03,45.23-79.77,45.23h0c-4.55,0-8.98-.68-13.16-2.02-28.62-9.17-45.1-38.07-58.66-67.94-12.91-28.44-21.99-58.53-29.95-88.5v5.78c7.63,28.24,16.41,56.51,28.6,83.34,13.7,30.18,30.4,59.4,59.57,68.75,4.33,1.38,8.91,2.09,13.61,2.09h0c29.31,0,59.05-26.36,80.76-45.61,1.61-1.42,3.17-2.8,4.66-4.12,33.88-29.76,60.79-56.69,82.06-91.35,24.11-39.27,43.3-80.66,55.51-119.68,13.19-42.12,14.64-77.33,4.44-107.63Z"/>
          </g>
          <path class="cls-6" d="M110.5,362.85h0c-13.82,0-26.15-4.95-36.65-14.72-28.76-26.76-38.52-67.22-44.77-106.95-.23-5.41-.26-10.07-.13-14.35.5-15.56,4.26-37.7,19.38-54.83,10.71-12.13,24.9-20.77,38.62-29.12,2.11-1.29,4.21-2.56,6.28-3.85,34.52-21.35,71.22-44.84,105.67-71.94,23.42-18.43,44.21-27.77,61.77-27.77,13.82,0,25.7,5.83,35.31,17.32,21.43,25.66,13.47,65.49,5.62,93.22-22.2,78.42-65.92,143.99-123.1,184.62-17.13,12.18-42.84,28.37-68.01,28.37ZM260.67,40.82c-17.22,0-37.7,9.24-60.86,27.45-34.51,27.14-71.25,50.66-105.8,72.04-2.08,1.29-4.18,2.57-6.3,3.86-13.63,8.29-27.71,16.87-38.27,28.83-14.82,16.79-18.51,38.57-19,53.88-.13,4.23-.1,8.86.12,14.15,6.2,39.37,15.87,79.54,44.29,105.99,10.22,9.5,22.21,14.32,35.64,14.32h0c24.75,0,50.17-16.04,67.14-28.1,56.89-40.43,100.41-105.71,122.52-183.8,7.76-27.4,15.64-66.72-5.33-91.83-9.31-11.14-20.8-16.79-34.17-16.79Z"/>
          <path class="cls-6" d="M507.52,884.15h0c-2.81,0-5.65-.09-8.45-.28-38-2.56-79.1-15.95-122.16-39.79-81.8-45.31-111.5-134.22-122.01-200.84-3.44-40.28,23.49-61.9,46.68-72.95,27.4-13.06,57.55-21.49,86.72-29.62,12.07-3.39,24.56-6.87,36.58-10.62,37.96-11.84,83.15-24.43,130.45-27.92,6.95-.51,14.23-.77,21.62-.77,29.47,0,58.26,3.99,86.1,7.86,22.64,3.15,50.83,7.07,78.34,7.07,46.78,0,81.68-11.75,106.7-35.94,26.93-26.01,48.22-64.14,58.43-104.63,11.9-47.19,3.21-96.84-5.69-134.83-10.44-44.54-28.14-74.14-54.14-90.48-3.7-2.32-7.71-4.65-11.94-7.11-20.58-11.94-43.91-25.47-49.26-48.61-4.4-19.05,5.2-35.95,23.9-42.04,4.52-1.47,9.31-2.22,14.21-2.22,11.52,0,24.06,4.03,38.34,12.32,7.28,4.22,14.29,9.12,21.06,13.86,10.39,7.27,21.14,14.78,33,19.93,15.69,6.8,33.87,10.85,55.62,12.39,7.41.52,15.04.78,23.29.78,22.98,0,46.74-2.06,69.73-4.05,23.13-2.01,47.05-4.08,70.34-4.08,35.87,0,64.66,4.95,90.62,15.57,30.77,12.59,56.19,37.26,75.57,73.31,23.01,42.85,41.71,84.96,55.58,125.17,15.5,44.94,12.68,85.77-8.38,121.34-15.8,26.7-36.52,50.38-56.55,73.27-7.1,8.11-14.44,16.5-21.44,24.88-6.71,8.03-13.25,16.58-19.57,24.82-16.47,21.49-33.48,43.7-55.59,60.07-33.87,25.12-76,28.01-104.73,28.01-4.3,0-8.69-.06-13.41-.2-11.08-.35-22.49-1.12-33.51-1.87-15.06-1.02-30.65-2.08-45.92-2.08-19.8,0-36.03,1.76-51.09,5.51-29.31,7.32-54.09,24.85-78.06,41.82-9.4,6.65-19.12,13.54-28.99,19.71-21.99,13.74-46.11,24.78-69.44,35.47-16.39,7.5-33.32,15.25-49.35,23.87-30.03,16.15-57.7,36.49-84.46,56.16-7.83,5.77-15.93,11.71-23.99,17.49-38.29,27.45-71.57,40.24-104.73,40.24ZM576.94,502.87c-7.36,0-14.6.25-21.51.77-47.14,3.47-92.23,16.02-130.11,27.85-12.04,3.76-24.54,7.25-36.62,10.63-29.1,8.12-59.18,16.53-86.47,29.53-22.76,10.85-49.19,32.05-45.83,71.41,10.45,66.22,39.97,154.68,121.24,199.69,42.87,23.74,83.76,37.06,121.54,39.6,2.77.19,5.58.29,8.35.29,32.84,0,65.84-12.7,103.87-39.96,8.05-5.78,16.15-11.74,23.97-17.48,26.81-19.71,54.52-40.09,84.64-56.29,16.06-8.63,33.03-16.4,49.43-23.91,23.29-10.66,47.36-21.67,69.26-35.39,9.83-6.14,19.54-13.02,28.92-19.65,24.08-17.04,48.98-34.66,78.57-42.04,15.17-3.79,31.52-5.56,51.44-5.56,15.33,0,30.93,1.06,46.02,2.09,11.01.74,22.4,1.52,33.46,1.86,4.71.15,9.08.22,13.36.22,28.53,0,70.34-2.88,103.85-27.72,21.93-16.26,38.89-38.38,55.29-59.79,6.33-8.26,12.88-16.81,19.61-24.87,7.02-8.4,14.35-16.79,21.46-24.91,19.99-22.84,40.66-46.46,56.41-73.04,20.82-35.17,23.59-75.57,8.24-120.08-13.84-40.14-32.51-82.17-55.48-124.94-19.2-35.74-44.36-60.18-74.81-72.64-25.77-10.55-54.39-15.46-90.05-15.46-23.23,0-47.11,2.07-70.22,4.07-23.01,1.99-46.8,4.05-69.84,4.05-8.3,0-15.94-.25-23.39-.78-21.91-1.55-40.27-5.64-56.1-12.51-12.01-5.21-22.82-12.77-33.27-20.08-6.75-4.71-13.73-9.59-20.95-13.79-14.05-8.16-26.34-12.11-37.59-12.11-4.75,0-9.38.72-13.76,2.15-17.91,5.84-27.11,22.01-22.89,40.26,5.2,22.5,28.23,35.86,48.55,47.64,4.25,2.47,8.26,4.8,11.98,7.14,26.35,16.55,44.28,46.45,54.8,91.41,8.94,38.15,17.66,88.04,5.69,135.55-10.28,40.75-31.72,79.15-58.84,105.34-25.31,24.46-60.55,36.36-107.74,36.36-27.61,0-55.85-3.94-78.55-7.09-27.78-3.86-56.51-7.84-85.89-7.84Z"/>
          <path class="cls-6" d="M1785.48,244.59c-5.33-.82-10.6-1.81-15.8-2.78-7.76-1.46-15.77-2.97-23.9-3.91-44.12-5.09-80.1-2.84-113.23,7.08l-4.77,1.44c-28.88,8.75-61.62,18.67-85.57-2.37-20.22-17.77-22.88-50.81-15.03-74.25,13.83-41.36,61.95-57.52,100.61-70.5,4.72-1.59,9.34-3.14,13.76-4.69,7.25-2.53,14.56-5.21,21.63-7.81,25.07-9.19,51-18.7,77.79-23.05,14.35-2.32,29.23-3.28,44.52-2.92v-6.03c-15.62-.36-30.81.62-45.47,3-27.35,4.43-53.56,14.04-78.89,23.33-7.04,2.59-14.35,5.26-21.54,7.78-4.4,1.54-8.99,3.08-13.68,4.66-39.93,13.41-89.61,30.09-104.4,74.3-8.47,25.35-5.43,61.21,16.78,80.72,11.81,10.36,25.49,13.94,39.6,13.94,17.5,0,35.66-5.5,51.64-10.34l4.75-1.43c32.32-9.69,67.55-11.87,110.84-6.88,7.92.91,15.83,2.4,23.47,3.85,5.55,1.04,11.18,2.1,16.91,2.96v-6.11Z"/>
          <path class="cls-6" d="M122.94,325.32h0c-8.19,0-16.07-1.61-23.41-4.77-26.61-11.47-35.7-44.92-38.74-63.84l-.04-.4c-.04-1.31-.07-2.64-.12-3.97-.5-16.04-1.06-34.21,8.19-48.92,9.59-15.25,19.78-26.92,32.07-36.71,16.65-13.26,34.96-24.54,52.66-35.45,8.64-5.32,17.57-10.82,26.16-16.47,1.5-.99,3.09-2.05,4.76-3.17,15.57-10.39,39.1-26.1,60.01-26.1,6.67,0,12.75,1.59,18.05,4.73,13.58,8.04,18.38,26.21,14.26,53.99-8.4,56.57-40.68,115.05-82.26,148.98-26.08,21.3-50.17,32.1-71.6,32.1ZM66.73,255.95c2.88,17.73,11.26,48.76,35.15,59.06,6.59,2.84,13.67,4.28,21.06,4.28h0c20.02,0,42.84-10.34,67.83-30.75,40.48-33.04,71.91-90.03,80.1-145.18,2.56-17.27,2.67-39.59-11.37-47.9-4.37-2.59-9.42-3.9-15.01-3.9-19.1,0-41.73,15.11-56.7,25.1-1.69,1.13-3.29,2.19-4.8,3.19-8.67,5.69-17.63,11.22-26.31,16.56-17.56,10.82-35.71,22-52.08,35.04-11.75,9.35-21.51,20.55-30.73,35.2-8.27,13.15-7.76,29.6-7.26,45.5.04,1.27.08,2.54.12,3.8Z"/>
          <path class="cls-6" d="M1785.48,197.11c-12.22-.84-25.35-2.59-40.28-5.39l-1.26-.23c-19.64-3.66-46.53-8.67-59.69-24.84-4.18-5.13-5.62-10.57-4.27-16.19,4.46-18.69,37.99-35.26,52.19-41.52,15.7-6.92,35.62-7.57,53.31-8.06v-1.5c-17.84.49-37.93,1.14-53.91,8.19-14.42,6.35-48.45,23.2-53.05,42.55-1.47,6.09.07,11.98,4.56,17.49,13.51,16.6,40.72,21.67,60.58,25.37l1.26.24c15.04,2.8,28.26,4.58,40.56,5.41v-1.51Z"/>
          <path class="cls-6" d="M513.61,856.36h0c-25.39,0-51.71-6.52-76.09-18.84-32.27-16.31-61.58-41.66-84.75-73.33-22.64-30.93-38.47-66.46-45.79-102.76l-.04-.26c-3.28-29.04,12.24-53.44,46.1-72.55,30.52-17.21,65.88-32.47,108.11-46.63,39.23-13.16,75.44-19.57,110.69-19.57,4.79,0,9.62.13,14.35.36,31.36,1.61,62.97,7.09,93.55,12.39,11.92,2.08,24.24,4.21,36.31,6.07,7.36,1.13,14.9,2.43,22.2,3.66,24.78,4.2,50.41,8.54,75.47,8.54,5.52,0,10.92-.22,16.05-.64,15.38-1.25,32.63-4.53,43.83-19.19,8.63-11.29,14.36-25.25,19.89-38.74,1.05-2.54,2.08-5.07,3.13-7.55,2.31-5.49,4.69-11.01,7.07-16.57,13.54-31.46,27.54-63.99,32.48-97.47,4.97-33.6.26-69.41-4.29-104.04-1-7.66-2.05-15.57-2.93-23.21-4.62-39.35-5.9-82.8,37.61-100.38,39.42-15.92,82.71-17.56,124.58-19.14l4.66-.18c8.8-.33,16.55-.49,23.65-.49,42.34,0,73.11,5.98,99.75,19.39,35.34,17.8,57.29,52.03,74.1,83.16,3.09,5.72,6.35,11.59,9.49,17.27,16.87,30.43,34.31,61.91,41.4,96.06,7.68,37.04-2.3,75.66-28.84,111.67-11.8,16.02-25.57,30.72-38.87,44.96-1.76,1.89-3.53,3.79-5.3,5.68-4.62,4.97-9.15,10.31-13.54,15.48-8.12,9.57-16.53,19.48-26.18,27.83-5.19,4.47-10.26,9.31-15.15,13.99-10.11,9.66-20.57,19.64-32.87,27.31-17.27,10.73-37.3,18.24-59.51,22.28-13.64,2.47-27.88,3.68-43.52,3.68-31.7,0-63.5-5.03-94.26-9.89-5.1-.81-10.26-1.77-15.73-2.79-14.25-2.64-29-5.39-43.06-5.39-20.56,0-35.26,5.91-46.24,18.61-6.78,7.83-12.81,16.55-18.65,24.97-6.58,9.5-13.39,19.32-21.36,28.09-14.41,15.85-30.57,29.3-48.03,39.99-14.27,8.75-28.95,17.36-43.14,25.7-25.78,15.12-52.43,30.77-77.56,47.69-7.96,5.36-16.06,11.13-23.9,16.69-27.67,19.65-56.28,39.98-88.7,50.7-14.8,4.9-30.34,7.38-46.16,7.38ZM312.87,660.37c14.7,72.68,64.66,140.09,127.33,171.76,23.55,11.9,48.94,18.2,73.4,18.2,15.19,0,30.11-2.38,44.31-7.09,31.57-10.43,59.8-30.49,87.12-49.88,7.87-5.59,16-11.37,24.03-16.78,25.29-17.04,52.02-32.73,77.87-47.89,14.18-8.32,28.83-16.92,43.05-25.62,16.98-10.4,32.71-23.5,46.73-38.93,7.71-8.47,14.4-18.13,20.87-27.47,5.93-8.56,12.07-17.4,19.04-25.48,12.04-13.92,28.64-20.69,50.75-20.69,14.61,0,29.63,2.8,44.15,5.51,5.43,1.02,10.56,1.96,15.57,2.76,30.53,4.82,62.1,9.82,93.33,9.82,15.3,0,29.18-1.18,42.45-3.59,21.48-3.91,40.81-11.13,57.44-21.47,11.8-7.33,22.02-17.11,31.9-26.55,4.95-4.74,10.08-9.62,15.37-14.19,9.31-8.05,17.55-17.77,25.52-27.18,4.43-5.22,9.01-10.62,13.73-15.69,1.77-1.89,3.54-3.79,5.32-5.69,13.19-14.09,26.83-28.67,38.42-44.41,17.78-24.12,37.03-62.24,27.77-106.84-6.9-33.26-24.11-64.32-40.76-94.36-3.15-5.69-6.42-11.58-9.51-17.32-16.37-30.31-37.65-63.6-71.53-80.64-25.76-12.98-55.7-18.76-97.07-18.76-7.03,0-14.69.16-23.42.49l-4.66.18c-41.36,1.57-84.12,3.18-122.57,18.72-39.59,15.99-38.45,55.24-33.9,94.07.89,7.6,1.93,15.49,2.93,23.13,4.61,35.05,9.37,71.29,4.27,105.72-5.07,34.26-19.22,67.16-32.92,98.98-2.37,5.53-4.75,11.06-7.05,16.53-1.04,2.47-2.07,4.97-3.11,7.5-5.69,13.87-11.57,28.21-20.68,40.12-12.64,16.53-31.41,20.16-48.1,21.53-5.3.44-10.86.65-16.54.65-25.56,0-51.44-4.39-76.46-8.63-7.28-1.23-14.8-2.51-22.12-3.63-12.12-1.87-24.48-4.02-36.42-6.09-30.4-5.29-61.83-10.74-92.84-12.32-4.63-.25-9.36-.36-14.05-.36-34.6,0-70.19,6.3-108.8,19.25-41.87,14.05-76.89,29.15-107.07,46.18-31.51,17.77-46,40.14-43.09,66.49Z"/>
          <path class="cls-6" d="M1085.13,570.07h0c-28.5,0-55.71-5.39-76.58-15.17-26.66-12.48-43.16-31.51-49.04-56.58-2.95-26.29,2.02-52.23,6.81-77.32,2.6-13.65,5.3-27.77,6.7-41.76,2.77-27.96-.29-54.37-3.54-82.31-.77-6.61-1.57-13.44-2.27-20.23-2.69-26.05-3.28-59.09,16.24-83.48,15.88-19.85,41.66-31.14,78.82-34.5,13.71-1.24,26.04-1.84,37.74-1.84,27.82,0,51.33,3.44,71.91,10.5,35.73,12.27,66.88,37.16,90.06,71.98,21.54,32.37,44.54,70.58,51.73,108.61,7.21,38.2-5.03,74-38.51,112.68-39.25,45.36-100.73,106.02-181.14,109.26-2.95.12-5.94.17-8.92.17ZM1100.01,158.39c-11.64,0-23.94.6-37.6,1.84-36.74,3.33-62.19,14.42-77.8,33.94-19.18,23.97-18.58,56.62-15.92,82.38.71,6.78,1.5,13.61,2.27,20.22,3.27,28.04,6.35,54.51,3.54,82.64-1.4,14.05-4.1,28.2-6.71,41.89-4.78,24.97-9.7,50.8-6.81,76.77,15.35,65.4,98.91,70.5,124.16,70.5h0c2.96,0,5.94-.06,8.86-.18,79.84-3.21,141.01-63.6,180.08-108.74,33.15-38.31,45.26-73.71,38.15-111.41-7.12-37.76-30.03-75.81-51.5-108.05-23-34.54-53.88-59.22-89.29-71.38-20.42-7.01-43.78-10.42-71.43-10.42Z"/>
          <path class="cls-6" d="M138.34,274.97h0c-11.32,0-26-4.39-31.71-25.29-5.57-41.73,36.24-67.95,54.48-77.29,7.63-3.91,27.89-14.29,42.9-14.29,9.04,0,14.82,3.71,17.19,11.03,6.63,20.53-8.04,48.77-12.69,56.94-9.01,15.8-21.4,28.91-35.84,37.89-11.24,6.99-23.76,11-34.33,11ZM204.01,159.61c-14.65,0-34.68,10.26-42.23,14.13-17.95,9.19-59.11,34.97-53.7,75.65,5.45,19.89,19.46,24.08,30.25,24.08,10.31,0,22.53-3.92,33.55-10.78,14.23-8.85,26.45-21.77,35.33-37.36,4.58-8.03,19-35.78,12.56-55.72-2.14-6.63-7.44-9.99-15.76-9.99Z"/>
          <path class="cls-6" d="M1099.37,528.66h-.01c-22.37,0-42.87-6.67-60.94-19.81-23.17-16.87-32.92-46.27-29.81-89.9,3.05-42.98-1.37-84.09-6.04-127.61-.47-4.37-.93-8.73-1.4-13.11-2-34.76,7.99-59.51,29.71-73.58,16.37-10.6,37.3-15.99,62.22-15.99,11.17,0,22.78,1.11,34.49,3.29,37.84,7.05,72.57,27.02,100.43,57.74,30.56,33.66,50.96,72.15,55.97,105.57,5.03,33.53-8.29,65.27-41.92,99.9-16.76,17.23-76.58,73.51-142.69,73.51ZM1093.09,190.16c-24.62,0-45.28,5.29-61.42,15.75-21.22,13.76-30.98,38.04-29.02,72.19.47,4.34.93,8.71,1.41,13.07,4.47,41.67,9.11,84.77,6.04,127.88-3.06,43.07,6.48,72.04,29.18,88.55,17.81,12.97,38.02,19.54,60.07,19.54,65.54,0,124.97-55.91,141.63-73.06,33.28-34.25,46.47-65.59,41.52-98.61-4.97-33.14-25.23-71.33-55.59-104.78-27.64-30.48-62.09-50.28-99.59-57.27-11.64-2.16-23.15-3.26-34.22-3.26Z"/>
          <path class="cls-6" d="M551.58,293.65h0c-19.91,0-42.65-9.17-48.55-29.63-2.24-13.28,1.92-27.69,11.11-38.64,8.73-10.41,20.72-16.37,32.92-16.37,4.47,0,8.94.8,13.28,2.37,12.28,4.47,28.55,16.71,35.25,33,3.71,9.01,3.71,17.97,0,25.91-6.72,14.4-23.58,23.36-44,23.36ZM547.05,210.52c-11.75,0-23.33,5.77-31.78,15.84-8.9,10.61-12.94,24.57-10.79,37.33,5.66,19.62,27.73,28.45,47.09,28.45h0c19.84,0,36.18-8.61,42.65-22.49,3.57-7.65,3.56-15.96-.04-24.69-6.52-15.88-22.39-27.8-34.37-32.16-4.17-1.52-8.47-2.29-12.77-2.29Z"/>
          <path class="cls-6" d="M1126.91,472.11h-.01c-5.91,0-11.69-.64-17.19-1.89-34.08-7.73-44.19-40.57-47.18-59.46-2.82-17.81-4.46-36.06-6.04-53.71-1.42-15.83-2.89-32.19-5.2-48.12l-.03-.3c-.87-20.45-2.34-54.67,25.65-65.99,8.53-3.44,17.75-5.19,27.43-5.19,25.32,0,48.76,11.69,63.96,21.49,36.16,23.32,91.52,77.87,69.68,134.46-16.46,42.67-67.33,78.72-111.07,78.72ZM1057.23,308.2c2.32,16.04,3.81,32.44,5.23,48.29,1.57,17.56,3.2,35.71,5.98,53.31,2.76,17.38,11.96,47.57,42.58,54.52,5.07,1.15,10.42,1.74,15.88,1.74,41.53,0,89.85-34.29,105.51-74.88,20.42-52.95-32.71-104.87-67.33-127.19-14.53-9.37-36.85-20.54-60.73-20.54-8.9,0-17.39,1.61-25.19,4.76-22.15,8.96-22.95,35.63-21.92,59.98Z"/>
          <g>
            <path class="cls-6" d="M616.14,892.88c4.63-4.46,9.18-8.95,13.68-13.41,11.26-11.13,22.89-22.63,35.2-32.89,33.5-27.89,69.71-48.75,107.61-61.98,21.99-7.67,45.12-12.67,67.48-17.5,20.56-4.44,41.84-9.05,62.22-15.72,4.05-1.32,8.27-2.77,12.64-4.26,34.07-11.66,76.47-26.16,108.63-8.56,8.64,4.75,13.38,10.69,14.07,17.68,1.92,19.26-26.77,43.49-43.91,57.97-3.86,3.28-7.22,6.1-9.67,8.4-22.84,21.31-42.43,45.09-59.76,70.26h1.83c17.13-24.78,36.46-48.17,58.95-69.16,2.44-2.27,5.77-5.08,9.63-8.34,18.49-15.63,46.43-39.22,44.44-59.3-.76-7.51-5.75-13.84-14.86-18.84-32.74-17.93-75.48-3.3-109.82,8.44-4.36,1.5-8.58,2.93-12.62,4.26-20.31,6.65-41.54,11.24-62.07,15.69-22.41,4.84-45.58,9.85-67.65,17.55-38.07,13.29-74.43,34.24-108.08,62.25-12.35,10.3-24.02,21.82-35.29,32.97-4.87,4.82-9.79,9.67-14.81,14.48h2.17Z"/>
            <path class="cls-6" d="M200.07,865.92c-19.35-9.3-30.14-19.84-33.96-33.18-4.55-15.92-.21-32.79,3.99-49.08.47-1.79.92-3.56,1.37-5.33,12.54-50.04,9.88-90.72-8.16-124.36-17.42-32.51-47.42-52.63-76.43-72.08-29.49-19.77-59.98-40.21-77.14-73.66-3.54-6.9-6.58-14.08-9.26-21.4v4.24c2.35,6.09,4.96,12.06,7.93,17.85,17.34,33.8,48,54.34,77.64,74.23,28.86,19.35,58.7,39.35,75.95,71.53,17.85,33.29,20.47,73.62,8.02,123.29-.44,1.76-.9,3.53-1.36,5.32-4.05,15.73-8.65,33.56-3.99,49.87,5.19,18.13,22.32,28.15,34.75,34.12,23.09,11.08,47.41,19.1,71.72,25.61h5.91c-26.07-6.75-52.24-15.09-76.98-26.96Z"/>
          </g>
          <g>
            <path class="cls-6" d="M1670.97,885.6c5.07,2.67,10.21,5.1,15.44,7.28h4.05c-6.38-2.51-12.65-5.36-18.8-8.61-64.51-34.17-125.45-110.88-115.73-180.13,5.39-38.47,28.95-75.67,49.74-108.5,2.85-4.52,5.67-8.98,8.4-13.35,3.02-4.87,6.04-9.73,9.05-14.6,20.02-32.34,40.72-65.78,64.31-96.25,18.49-23.92,40.2-45.52,61.19-66.4,10.01-9.98,20.38-20.29,30.36-30.83,2.03-2.14,4.26-4.49,6.51-6.99v-2.26c-2.64,2.99-5.29,5.78-7.67,8.3-9.89,10.43-20.25,20.74-30.26,30.7-21.02,20.92-42.75,42.55-61.32,66.55-23.63,30.55-44.35,64.02-64.38,96.38-3.02,4.87-6.03,9.73-9.05,14.6-2.73,4.37-5.55,8.82-8.4,13.34-20.87,32.96-44.52,70.32-49.95,109.11-5.99,42.6,13.95,81.39,31.71,106.42,21.9,30.88,52.82,58.31,84.81,75.25Z"/>
            <path class="cls-6" d="M1307.66,892.88c3.08-4.01,6.19-7.92,9.24-11.69,3.14-3.86,6.33-7.73,9.54-11.62,18.71-22.62,38.07-46.02,47.78-74.17,13.31-38.61-2.25-71.32-18.72-105.94l-2.34-4.92c-17.39-36.71-20.83-69.71-10.56-100.89,10.73-32.57,33.08-60.28,53.19-83.7,4.76-5.55,9.67-11.13,14.44-16.52,17.05-19.32,34.68-39.29,48.45-61.86,2.57-4.21,5.17-8.63,7.68-12.92,15.44-26.3,31.41-53.5,59.08-66.25,10.57-4.87,22.11-7.73,33.28-10.5,7.74-1.92,15.75-3.91,23.4-6.56,13.23-4.57,26.16-10.41,38.67-16.05,8.03-3.63,16.34-7.39,24.64-10.76,43.2-17.58,83.31-19.42,119.23-5.49,6.8,2.64,14.27,6.11,20.82,10.46v-1.78c-5.61-3.64-12.38-7.02-20.28-10.09-36.29-14.08-76.77-12.22-120.32,5.5-8.34,3.38-16.66,7.15-24.71,10.78-12.46,5.64-25.36,11.45-38.52,16.01-7.6,2.63-15.57,4.61-23.29,6.52-11.23,2.78-22.83,5.66-33.54,10.59-28.11,12.94-44.19,40.35-59.75,66.85-2.51,4.28-5.1,8.7-7.67,12.9-13.7,22.46-31.27,42.37-48.29,61.65-4.76,5.39-9.69,10.98-14.45,16.53-20.21,23.53-42.66,51.38-53.49,84.21-10.4,31.58-6.93,64.95,10.63,102l2.34,4.94c16.33,34.33,31.77,66.76,18.65,104.79-9.62,27.91-28.88,51.19-47.5,73.71-3.21,3.88-6.42,7.76-9.56,11.64-3.3,4.07-6.65,8.29-9.98,12.64h1.9Z"/>
          </g>
          <path class="cls-6" d="M114.85,669.26c-14.85-31.45-43.14-51.57-70.5-71.02-15.15-10.78-30.58-21.76-43.87-34.75v2.06c13.12,12.64,28.2,23.37,43,33.9,27.2,19.35,55.32,39.35,70.01,70.44,30.4,64.38-35.58,123.65-79.23,162.87l-5.3,4.78c-9.88,8.9-19.66,18.33-28.49,28.76v2.35c9.07-10.91,19.22-20.74,29.48-30l5.3-4.76c43.99-39.53,110.47-99.24,79.59-164.64Z"/>
          <path class="cls-6" d="M1353.07,870.16c-5.93,7.44-11.91,14.98-17.66,22.72h7.51c4.87-6.42,9.86-12.73,14.83-18.96,6.65-8.38,13.55-17.04,19.9-25.77,22.79-31.32,51.15-70.28,38.83-112.2-5.14-17.48-14.92-32.96-24.39-47.94-12.54-19.87-24.39-38.62-26.77-61.98-6.93-67.81,50.09-120.96,95.9-163.68l3.69-3.44c28.15-26.27,54.27-48.98,89-60.96,15.28-5.27,31.64-7.91,47.44-10.47,3.18-.51,6.36-1.03,9.53-1.56,1.15-.19,2.44-.43,3.86-.68,11.37-2.06,32.55-5.91,42.24.92,2.69,1.9,4.29,4.5,4.88,7.95,1.79,10.47-2.64,23.59-6.57,35.16-.94,2.77-1.83,5.38-2.6,7.87-5.1,16.52-11.26,33.19-18.83,50.95-12.58,29.55-28.33,60.47-49.56,97.31-5.14,8.89-11.03,18.14-17.27,27.93-29.52,46.34-62.97,98.87-40.67,151.68,12.97,30.75,35.94,59.98,54.49,82,14.75,17.5,30.1,32.84,45.86,45.86h9.6c-17.52-13.73-34.57-30.37-50.9-49.77-18.27-21.69-40.88-50.45-53.54-80.46-21.06-49.88,11.49-100.97,40.22-146.06,6.26-9.85,12.19-19.15,17.39-28.17,21.37-37.06,37.22-68.17,49.9-97.95,7.64-17.96,13.87-34.82,19.04-51.54.74-2.41,1.61-4.98,2.54-7.71,4.15-12.25,8.86-26.14,6.8-38.13-.87-5.05-3.34-9.04-7.35-11.87-11.74-8.26-33.64-4.29-46.73-1.92-1.4.25-2.67.49-3.79.68-3.15.53-6.32,1.05-9.49,1.55-16.07,2.6-32.67,5.28-48.43,10.71-35.85,12.36-62.49,35.5-91.14,62.24l-3.69,3.44c-46.79,43.63-105.02,97.93-97.79,168.73,2.53,24.77,15.31,45.02,27.69,64.58,9.23,14.63,18.78,29.76,23.68,46.43,11.49,39.05-15.89,76.69-37.91,106.93-6.28,8.61-13.12,17.23-19.74,25.57Z"/>
          <path class="cls-6" d="M1785.48,879.35c-8.46.81-17.13,1.13-25.99.93-35.33-.77-69.09-11.46-97.65-30.93-26.71-18.22-49.23-43.3-65.08-72.54-9.56-17.65-14.54-31.9-16.12-46.19-1.84-16.66-.8-35.87,2.64-48.94,6.58-24.87,22.36-49.55,36.29-71.33,2.5-3.89,4.95-7.74,7.32-11.53,20.82-33.22,43.3-63.86,66.84-91.04,24.13-27.86,49.72-52.84,76.03-74.23,5.19-4.21,10.43-8.24,15.72-12.06v-1.84c-5.61,4.02-11.17,8.27-16.65,12.73-26.4,21.45-52.03,46.48-76.23,74.42-23.58,27.24-46.12,57.93-66.97,91.23-2.37,3.78-4.82,7.63-7.32,11.52-13.97,21.86-29.82,46.65-36.46,71.76-3.5,13.22-4.56,32.66-2.69,49.48,1.6,14.51,6.62,28.92,16.28,46.75,15.98,29.47,38.64,54.74,65.57,73.08,28.79,19.62,62.83,30.42,98.45,31.19,1.71.04,3.43.06,5.13.06,7.09,0,14.06-.35,20.89-.99v-1.51Z"/>
          <path class="cls-6" d="M1785.48,853.89c-2.5.26-5.01.49-7.53.65-32.03,1.96-63.23-4.91-90.22-19.9-44.26-24.58-86.74-74.84-81.83-131.74,2.72-31.44,17.71-59.3,32.02-82.38,18-29.07,38.97-56.75,62.33-82.29,22.69-24.81,47.6-48.07,74.03-69.13,3.38-2.69,7.15-5.68,11.2-8.81v-1.9c-4.42,3.39-8.5,6.64-12.13,9.53-26.48,21.09-51.45,44.41-74.2,69.29-23.43,25.6-44.45,53.36-62.51,82.51-14.39,23.24-29.47,51.29-32.22,83.05-2.24,25.93,5.43,52.88,22.21,77.92,14.95,22.33,36.39,41.97,60.37,55.27,24.2,13.44,51.73,20.41,80.21,20.41,3.59,0,7.2-.1,10.82-.33,2.48-.14,4.97-.38,7.44-.62v-1.52Z"/>
          <path class="cls-6" d="M1785.48,832.35c-.39.06-.77.12-1.16.17-27.91,3.36-57.66-2.57-83.76-16.68-48.4-26.15-76.48-73.62-71.54-120.95,5.59-53.49,44.99-98.98,81.46-137.43,19.41-20.45,41.6-40.72,67.87-61.98,2.28-1.84,4.68-3.75,7.13-5.65v-1.92c-2.8,2.16-5.49,4.31-8.08,6.41-26.31,21.3-48.56,41.6-68,62.1-36.66,38.64-76.23,84.37-81.87,138.32-5.01,47.94,23.37,95.99,72.31,122.44,21.56,11.64,45.55,17.77,69.01,17.77,5.24,0,10.47-.32,15.65-.93.32-.04.65-.1.97-.15v-1.52Z"/>
          <path class="cls-6" d="M1463.05,700.66h0c-10.88,0-20.89-5.97-29.24-11.82-24.38-17.07-42.4-46.56-45.93-75.12-2.41-45.82,28.27-90.96,91.15-134.28,20.7-14.25,43.01-27.44,65.99-27.44,5.26,0,10.42.71,15.32,2.12,25.89,7.42,32.16,33.88,29.68,54.27-7.5,61.71-48.33,118.17-87.29,165.28-8.67,10.49-18.4,22.27-32.09,25.99-2.47.67-5.03,1-7.6,1ZM1545.02,453.51c-22.56,0-44.65,13.06-65.15,27.18-62.43,43-92.88,87.7-90.5,132.9,3.47,28.09,21.25,57.18,45.29,74.01,8.16,5.71,17.91,11.56,28.38,11.56h0c2.44,0,4.87-.33,7.21-.96,13.23-3.6,22.79-15.18,31.25-25.39,38.9-47.04,79.59-103.3,87.04-164.6,2.41-19.81-3.63-45.48-28.6-52.64-4.78-1.37-9.79-2.06-14.92-2.06Z"/>
          <path class="cls-6" d="M1785.48,807.78c-20.66,2.82-42.08-.01-61.69-8.34-42.94-18.25-71.02-58.25-69.84-99.56,1.35-47.73,36.3-89.44,70.32-123.94,17.52-17.77,37.57-35.71,61.21-54.81v-7.71c-.89.71-1.79,1.42-2.67,2.14-24.3,19.57-44.84,37.93-62.8,56.14-34.83,35.33-70.64,78.18-72.05,128.01-1.25,43.78,28.3,86.1,73.5,105.29,15.46,6.57,31.99,9.88,48.44,9.88,5.22,0,10.42-.33,15.57-1v-6.09Z"/>
          <path class="cls-6" d="M1785.48,785.8c-15.91,2.6-32.86,1.79-49.87-4.95-33.12-13.13-63.96-47.98-58.82-89.19,5.4-43.27,35.87-77.9,67.98-108.88,11.82-11.4,25.45-23.92,40.7-35.98v-1.9c-15.67,12.29-29.65,25.13-41.74,36.8-32.32,31.16-62.97,66.04-68.43,109.78-5.23,41.97,26.09,77.44,59.75,90.77,11.45,4.55,22.86,6.45,33.96,6.45,5.58,0,11.08-.49,16.46-1.37v-1.52Z"/>
          <path class="cls-6" d="M1462.46,635.21h0c-15.99,0-27.67-9.69-32.87-27.27-5.62-32.77,17.82-62.72,43.55-77.9,5.74-3.4,20.63-11.29,34.66-11.29,12.03,0,20.22,5.68,24.35,16.88,7.8,21.09-2.35,47.91-30.14,79.69-10.72,12.26-25.87,19.89-39.54,19.89ZM1507.79,520.26c-13.65,0-28.27,7.74-33.9,11.08-25.28,14.9-48.33,44.28-42.85,76.25,4.98,16.81,16.14,26.1,31.42,26.1,13.25,0,27.96-7.42,38.42-19.36,27.4-31.33,37.45-57.64,29.87-78.18-3.89-10.55-11.62-15.89-22.95-15.89Z"/>
          <path class="cls-6" d="M1785.48,755.51c-8.19,1.41-16.01,1.4-23.55-.04-31.46-5.98-54.11-33.4-52.69-63.74,1.64-35.01,27.63-63.8,52.83-87.35,7.41-6.92,15.21-14.03,23.4-21.02v-1.98c-8.57,7.26-16.7,14.69-24.42,21.89-25.42,23.75-51.64,52.83-53.31,88.38-1.47,31.1,21.72,59.17,53.89,65.3,3.92.74,7.92,1.12,11.98,1.12s7.82-.35,11.85-1.03v-1.53Z"/>
          <path class="cls-6" d="M526.04,820.04s0,0,0,0c-4.88,0-9.79-.33-14.59-1-75.91-10.56-112.54-90.31-127.62-136.9-7.37-33.67,12.43-64.61,58.82-92.05,40.32-23.84,81.13-36.21,121.28-36.77,49.48-.68,100.04,12.61,133.4,22.54,2.39.71,4.97,1.45,7.68,2.24,31.92,9.18,80.16,23.05,80.98,60.4.65,29.11-29.2,53.05-50.99,70.53-1.73,1.4-3.4,2.73-5,4.04-23.54,19.1-49.86,35.3-75.33,50.97-9.89,6.09-20.11,12.38-30,18.72-30.11,19.36-62.91,37.27-98.65,37.27ZM567.74,554.8c-1.26,0-2.52.01-3.78.03-39.89.55-80.45,12.86-120.54,36.56-45.78,27.06-65.34,57.47-58.15,90.34,14.95,46.19,51.28,125.36,126.39,135.81,4.74.65,9.58.99,14.39.99,35.36,0,67.92-17.79,97.84-37.03,9.89-6.36,20.13-12.67,30.02-18.75,25.42-15.65,51.71-31.81,75.17-50.86,1.6-1.31,3.28-2.64,5.01-4.04,21.54-17.29,51.05-40.95,50.42-69.32-.81-36.24-48.4-49.93-79.9-58.99-2.72-.77-5.3-1.51-7.69-2.22-32.42-9.66-81.07-22.51-129.17-22.51Z"/>
          <path class="cls-6" d="M72.02,697.32c-1.48-27.31-18.88-47.31-33.88-61.68-11.32-10.84-23.95-20.95-37.67-30.21v1.83c13.33,9.06,25.61,18.91,36.64,29.47,14.79,14.19,31.97,33.89,33.41,60.68,1.31,24.32-10.05,44.93-19.8,57.93-14.1,18.8-32.42,33.98-50.25,48.61v1.95c18.2-14.92,36.99-30.37,51.44-49.65,9.91-13.2,21.43-34.14,20.1-58.92Z"/>
          <path class="cls-6" d="M1785.48,715.02c-7.89.17-15.51-2.09-21.51-6.58-7.18-5.37-11.24-13.49-11.43-22.85-.49-23.39,17.72-42,32.95-56.07v-2.05c-15.63,14.38-34.97,33.58-34.44,58.15.2,9.83,4.47,18.38,12.03,24.03,6.06,4.53,13.67,6.9,21.57,6.9.28,0,.57-.03.84-.03v-1.5Z"/>
          <path class="cls-6" d="M542.21,782.52h0c-18.06,0-34.53-5.2-48.96-15.46-25.04-17.78-42.32-47.86-47.42-82.53-2.15-16.98,1.55-33.83,10.44-47.49,24.93-38.29,77.36-51.95,118.11-51.95,6.76,0,13.43.36,19.81,1.09,23.64,2.69,46.4,7.86,67.63,15.38,20.89,7.39,43.69,17.48,54.36,36.23,10.68,18.77,1.74,41.97-25.84,67.08-29.82,27.15-65.64,51.16-98.27,65.88-17.28,7.8-34.05,11.75-49.86,11.75ZM574.38,586.62c-40.36,0-92.26,13.47-116.86,51.26-8.68,13.35-12.31,29.85-10.2,46.46,5.04,34.24,22.1,63.94,46.8,81.49,14.18,10.08,30.36,15.18,48.1,15.18h0c15.59,0,32.16-3.91,49.24-11.61,32.5-14.67,68.17-38.58,97.89-65.63,27.38-24.94,35.97-46.88,25.54-65.22-10.42-18.32-32.92-28.25-53.55-35.55-21.13-7.48-43.77-12.62-67.3-15.3-6.33-.73-12.94-1.09-19.65-1.09Z"/>
          <path class="cls-6" d="M.48,652.92c11.43,10.78,18.88,23.5,21.41,37.03,4.31,22.97-8.02,43.97-21.41,59.21v2.27c14.05-15.6,27.43-37.55,22.89-61.75-2.67-14.25-10.64-27.62-22.89-38.8v2.05Z"/>
          <path class="cls-6" d="M565.47,727.65h0c-19.44,0-42.23-9.31-47.92-35.47l-.02-.1.07-1.34c.84-15.67,1.63-30.48,14.71-41.97,11.98-10.52,27.76-16.09,45.63-16.09.68,0,1.35.01,2.03.03,13.13.32,41.39,4.94,54.41,20.18,5.24,6.14,7.39,13.31,6.39,21.3-3.22,25.6-36.9,45.77-58.66,51.35-5.49,1.41-11.08,2.12-16.63,2.12ZM519.04,691.96c5.53,25.2,27.59,34.18,46.43,34.18,5.43,0,10.89-.7,16.26-2.06,21.36-5.48,54.42-25.19,57.55-50.09.95-7.56-1.08-14.32-6.03-20.12-12.68-14.83-40.42-19.35-53.31-19.65-.67-.01-1.33-.03-1.99-.03-17.5,0-32.94,5.43-44.65,15.73-12.59,11.06-13.33,24.88-14.19,40.91l-.06,1.13Z"/>
          <path class="cls-6" d="M1372.99,892.88c13.86-19.87,29.23-38.65,44.2-56.91l1.71-2.09c1.22-1.48,2.46-3.01,3.73-4.59,13.49-16.68,30.27-37.45,52.17-38.68,25.2-1.41,47.17,23.74,60.27,38.76,6.81,7.8,13.64,15.79,20.25,23.52,11.32,13.23,22.94,26.82,34.91,40.01h2.03c-12.27-13.49-24.2-27.43-35.81-40.99-6.61-7.73-13.45-15.72-20.25-23.52-13.29-15.24-35.56-40.76-61.49-39.27-22.54,1.26-39.57,22.31-53.24,39.22-1.26,1.58-2.51,3.11-3.72,4.59l-1.71,2.09c-15.22,18.55-30.84,37.62-44.89,57.87h1.83Z"/>
          <path class="cls-6" d="M646.29,892.88s.01-.03.03-.03c44.6-50.14,92.4-80.69,142.07-90.82,38.08-7.76,69.16-8.25,95.01-1.53,13.31,3.47,21.88,9.52,25.47,17.96,1.57,3.69,9.01,22.39,1.57,28.33l-.22.17-.06.26c-3.17,15.77-8.74,30.93-15.21,45.66h1.64c6.35-14.54,11.81-29.49,14.99-45.09,7.74-6.61.94-24.54-1.34-29.93-3.78-8.89-12.69-15.22-26.48-18.81-26.07-6.8-57.37-6.3-95.68,1.51-49.99,10.17-98.07,40.89-142.89,91.27-.3.35-.6.7-.91,1.05h2Z"/>
          <path class="cls-6" d="M957.2,892.88c36.13-36.4,83.34-64.13,133.77-78.4,24.51-6.93,57.82-12.22,77.25,1.92,10.02,7.31,15.47,19.19,16.2,35.34.62,13.78-.55,27.53-2.61,41.14h1.51c2.05-13.61,3.22-27.38,2.6-41.21-.74-16.63-6.41-28.91-16.82-36.49-19.92-14.5-53.7-9.17-78.53-2.15-51.16,14.47-99.06,42.74-135.49,79.85h2.12Z"/>
          <path class="cls-6" d="M671.52,892.88c29.9-35.65,68.53-59.95,109.4-68.71,21.79-4.66,52.24-7.05,73.51,8.13,19.8,14.12,19.75,38.95,16.22,57.29-.22,1.09-.45,2.19-.69,3.28h1.53c.22-1,.43-2.01.62-3.01,3.62-18.77,3.63-44.2-16.82-58.8-21.71-15.48-52.6-13.1-74.69-8.38-41.57,8.9-80.82,33.76-111.05,70.19h1.97Z"/>
          <path class="cls-6" d="M698.84,892.88c24.06-26.6,55.94-44.09,86.11-46.63,17.87-1.5,33.43,4.07,43.84,15.67,7.48,8.34,11.58,19.04,12.06,30.96h1.5c-.49-12.29-4.71-23.34-12.46-31.97-10.73-11.96-26.73-17.71-45.08-16.15-30.91,2.6-63.58,20.69-87.99,48.13h2.01Z"/>
          <path class="cls-6" d="M1409.65,892.88c17.05-21.7,39.44-38.41,58.41-42.77,30.86-7.07,57.87,18.22,77.88,42.77h1.95c-20.32-25.16-48.07-51.6-80.16-44.23-19.55,4.47-42.62,21.82-59.97,44.23h1.89Z"/>
          <path class="cls-6" d="M996.76,892.88c19.67-11.98,40.51-20.55,61.26-24.49,38.76-7.35,63.52.9,73.65,24.49h1.63c-10.27-24.78-35.68-33.53-75.55-25.97-21.5,4.07-43.36,13.02-64.18,25.97h3.2Z"/>
          <path class="cls-6" d="M735.81,892.88c1.82-1.25,3.69-2.43,5.6-3.53,11.9-6.87,25.03-10.81,36.01-10.81,8.92,0,20.06,2.72,26.52,14.34h1.74c-6.7-12.9-18.71-15.85-28.26-15.85-11.23,0-24.63,4.01-36.76,11.01-2.56,1.48-5.03,3.09-7.43,4.84h2.58Z"/>
        </g>
      </g>
    </g>
  </g>
</svg>