<?xml version="1.0" encoding="UTF-8"?>
<svg id="Capa_2" data-name="Capa 2" xmlns="http://www.w3.org/2000/svg" viewBox="0 0 212.06 49.22">
  <defs>
    <style>
      .cls-1 {
        fill-rule: evenodd;
      }
    </style>
  </defs>
  <g id="DISEÑO">
    <g>
      <path class="cls-1" d="M87.26,24.22c-.12-.04-.25-.09-.25-.24,0-.09.06-.17.15-.2.17-.06,4.22-1.51,4.22-6.31,0-5.32-3.61-8.5-9.64-8.5h-14.66v31.3h16.01c4.66,0,9.69-3.3,9.69-8.64s-3.85-6.87-5.51-7.4ZM74.46,15.35c0-.12.1-.22.2-.22h5.82c1.94,0,3.23,1.3,3.23,3.22,0,1.5-1.18,3.11-3.37,3.11h-5.68c-.1,0-.2-.09-.2-.21v-5.9ZM80.49,34.08h-5.82c-.1,0-.2-.09-.2-.22v-6.24c0-.11.1-.21.2-.21h5.68c2.8,0,4.4,1.21,4.4,3.3s-1.48,3.36-4.25,3.36Z"/>
      <path class="cls-1" d="M110.48,8.15c-8.6,0-14.38,6.6-14.38,16.44s5.78,16.42,14.38,16.42,14.38-6.59,14.38-16.42-5.78-16.44-14.38-16.44ZM110.48,33.85c-4.22,0-6.95-3.64-6.95-9.26s2.73-9.22,6.95-9.22,6.99,3.62,6.99,9.22-2.74,9.26-6.99,9.26Z"/>
      <path class="cls-1" d="M142.3,21.42l-1.12-.23c-2.53-.53-5-1.24-5-3.39s2.04-3.18,4.08-3.18c2.36,0,4.71,1.06,6.49,2.87.26-.25,4.37-4.32,4.64-4.58-2-2.21-5.53-4.76-11.27-4.76-6.91,0-11.55,3.93-11.55,9.78,0,6.18,4.86,8.49,8.94,9.35l1.11.23c3.97.84,5.84,1.47,5.84,3.72,0,2.01-1.8,3.36-4.49,3.36-3.15,0-5.93-1.39-8.05-3.99-.29.29-4.49,4.41-4.76,4.67,2.54,2.99,5.89,5.72,12.91,5.72,5.98,0,12.05-3.48,12.05-10.14s-4.65-8.35-9.82-9.44Z"/>
      <path class="cls-1" d="M170.33,33.85c-3.55,0-7.36-2.97-7.36-9.45,0-5.93,3.59-9.03,7.14-9.03,2.58,0,4.38,1.08,5.82,3.48.33-.23,5.71-3.8,6.05-4.03-3.1-4.57-6.78-6.62-11.92-6.62-10.07,0-14.57,8.14-14.57,16.2,0,9.79,5.96,16.61,14.47,16.61,6.34,0,9.23-2.32,12.25-6.62-.33-.23-5.77-3.89-6.09-4.11-1.37,2.2-2.85,3.57-5.79,3.57Z"/>
      <path class="cls-1" d="M204.12,8.96v11.45c0,.12-.09.21-.21.21h-9.62c-.13,0-.22-.09-.22-.21v-11.45h-7.89v31.3h7.89v-12.3c0-.12.09-.21.22-.21h9.62c.12,0,.21.1.21.21v12.3h7.94V8.96h-7.94Z"/>
      <path class="cls-1" d="M24.6,0C11.01,0,0,11.02,0,24.61s11.01,24.61,24.6,24.61,24.61-11.02,24.61-24.61S38.19,0,24.6,0ZM24.6,46.99c-12.35,0-22.37-10.03-22.37-22.38S12.25,2.23,24.6,2.23s22.38,10.03,22.38,22.38-10.02,22.38-22.38,22.38Z"/>
      <path class="cls-1" d="M33.92,8.37v8.38H15.3v-8.38c-5.64,3.23-9.45,9.32-9.45,16.29s3.81,13.04,9.45,16.28v-8.1h18.62v8.1c5.64-3.24,9.44-9.32,9.44-16.28s-3.8-13.06-9.44-16.29ZM12.63,36.05c-2.82-2.97-4.55-6.98-4.55-11.39s1.73-8.43,4.55-11.39v22.79ZM33.92,29.56H15.3v-9.54h18.62v9.54ZM36.59,36.05V13.27c2.81,2.97,4.55,6.98,4.55,11.39s-1.74,8.43-4.55,11.39Z"/>
    </g>
  </g>
</svg>