<?xml version="1.0" encoding="UTF-8"?>
<svg id="Capa_2" data-name="Capa 2" xmlns="http://www.w3.org/2000/svg" xmlns:xlink="http://www.w3.org/1999/xlink" viewBox="0 0 1785 910">
  <defs>
    <style>
      .cls-1 {
        fill: #e9532d;
      }

      .cls-2 {
        mask: url(#mask);
      }

      .cls-3 {
        fill: none;
      }

      .cls-4 {
        fill: url(#Degradado_sin_nombre_15);
      }

      .cls-5 {
        filter: url(#luminosity-invert);
      }

      .cls-6 {
        clip-path: url(#clippath);
      }
    </style>
    <filter id="luminosity-invert" x="-20.99" y="0" width="1826.98" height="927.31" color-interpolation-filters="sRGB" filterUnits="userSpaceOnUse">
      <feColorMatrix result="cm" values="-1 0 0 0 1 0 -1 0 0 1 0 0 -1 0 1 0 0 0 1 0"/>
    </filter>
    <linearGradient id="Degradado_sin_nombre_15" data-name="Degradado sin nombre 15" x1="892.5" y1="927.31" x2="892.5" y2=".73" gradientUnits="userSpaceOnUse">
      <stop offset="0" stop-color="#000"/>
      <stop offset="1" stop-color="#000" stop-opacity="0"/>
    </linearGradient>
    <mask id="mask" x="-20.99" y="0" width="1826.98" height="927.31" maskUnits="userSpaceOnUse">
      <g class="cls-5">
        <rect class="cls-4" x="-20.99" y=".73" width="1826.98" height="926.58"/>
      </g>
    </mask>
    <clipPath id="clippath">
      <rect class="cls-3" x="0" width="1785" height="910"/>
    </clipPath>
  </defs>
  <g id="FONDOS">
    <g class="cls-2">
      <g class="cls-6">
        <g>
          <path class="cls-1" d="M1727.29,892.94h3.02c3.53-1.95,7.21-3.68,11.03-5.19,14.74-5.8,30.14-8.05,45.67-8.71v-1.52c-15.7.66-31.26,2.95-46.21,8.82-4.72,1.86-9.23,4.08-13.51,6.6Z"/>
          <path class="cls-1" d="M1675.42,892.94h2c15.57-17.72,36.45-31.42,60.31-38.92,16.04-5.04,32.6-7.5,49.28-8.68v-1.51c-16.81,1.18-33.53,3.66-49.72,8.75-24.58,7.73-46.03,21.95-61.87,40.36Z"/>
          <path class="cls-1" d="M1642.64,890.21c-.65.91-1.28,1.82-1.91,2.73h1.83c.44-.62.85-1.23,1.29-1.85,23.77-33.08,58.8-56.11,101.29-66.6,13.86-3.42,28.08-5.82,41.87-7.68v-1.52c-13.89,1.87-28.24,4.29-42.22,7.74-42.85,10.58-78.17,33.82-102.15,67.19Z"/>
          <path class="cls-1" d="M1437.63,721.37c18.14-48.39,35.71-88.15,53.72-121.56,16.12-29.88,36.99-56.99,57.18-83.2,5.1-6.62,10.36-13.45,15.49-20.25,26.47-35.1,39.63-69.76,39.1-103.01-.22-14.31-4.08-24.62-11.79-31.54-14.36-12.88-39.21-10.4-61.19-8.21-43.53,4.36-88.15,11.94-136.4,23.2-14.27,3.33-28.74,7.2-42.73,10.94-30.17,8.06-61.35,16.4-92.58,19.92-46.24,5.19-93.25,1.98-137.45-1.74-40.5-3.43-87.11-5.54-127.65,12.75-30.71,13.86-56.07,38.37-73.34,70.89-16.39,30.86-23.83,66.56-20.96,100.52,3.65,43.3,20.05,81.38,46.17,107.25,10.65,10.54,23.23,19.4,35.41,27.97,18.88,13.28,38.39,27.02,50.44,47.07,18.43,30.68,11.3,71.55-16.23,93.03-34.54,26.96-80.98,9.25-99.35.39-12.73-6.14-24.99-13.39-36.85-20.39-23.55-13.9-47.88-28.28-76.48-34.33-37.84-8-76.74-4.84-114.34-1.78l-3.66.3c-74.53,6.04-151.22,6.6-198.11-57.12-18.04-24.51-28.68-53.81-38.98-82.13-3.99-11.01-8.13-22.4-12.65-33.35-2.5-6.09-5.16-12.25-7.71-18.22-12.91-30-26.26-61.03-26.58-94.49-.41-42.86,24.61-77.43,50.26-109.14l5.59-6.91c26.38-32.55,51.29-63.31,71.8-99.91,3.09-5.53,6.07-11.13,9.24-17.05,15.51-29.1,31.55-59.18,58.59-76.05,31.99-19.96,72.14-13.86,107.57-8.47l2.14.32c44.15,6.7,87.45,11.61,131.68-1.89,23.4-7.12,45.43-18.13,66.73-28.78,17.36-8.67,35.31-17.63,53.78-24.38,5.26-1.92,10.51-3.82,15.75-5.71,36.66-13.22,71.29-25.71,105.02-45.16,30.78-17.74,56.89-38.99,84.53-61.5,5.6-4.56,11.22-9.12,16.89-13.68,13.03-10.46,25.6-18.94,37.91-25.52h-12c-9.76,5.84-19.62,12.77-29.64,20.8-5.69,4.58-11.31,9.15-16.92,13.71-27.46,22.36-53.39,43.46-83.74,60.97-33.28,19.18-67.67,31.58-104.07,44.73-5.24,1.89-10.5,3.78-15.77,5.71-18.8,6.86-36.9,15.89-54.4,24.64-21.09,10.55-42.88,21.43-65.81,28.41-43.04,13.12-85.62,8.29-129.07,1.7l-2.14-.33c-36.43-5.54-77.75-11.81-111.62,9.33-28.38,17.71-44.81,48.52-60.7,78.31-3.14,5.9-6.1,11.46-9.18,16.94-20.25,36.16-45,66.72-71.22,99.07l-5.59,6.91c-25.19,31.15-52.03,68.14-51.6,113.01.32,34.68,13.92,66.27,27.06,96.83,2.56,5.94,5.2,12.09,7.7,18.13,4.46,10.83,8.57,22.15,12.55,33.11,10.43,28.73,21.22,58.44,39.79,83.66,48.71,66.2,127.19,65.71,203.4,59.54l3.66-.3c37.19-3.02,75.62-6.15,112.64,1.67,27.64,5.85,50.48,19.33,74.67,33.62,11.97,7.07,24.35,14.38,37.3,20.63,19.36,9.35,68.43,27.95,105.61-1.06,29.9-23.33,37.67-67.67,17.68-100.92-12.7-21.14-32.74-35.24-52.13-48.89-11.97-8.43-24.35-17.14-34.64-27.32-25.1-24.85-40.87-61.59-44.41-103.46-5.86-69.45,32.32-139.01,90.79-165.39,39.24-17.71,84.94-15.62,124.69-12.26,44.49,3.76,91.84,6.99,138.61,1.73,31.68-3.56,63.09-11.96,93.46-20.08,13.95-3.72,28.37-7.58,42.55-10.88,48-11.2,92.37-18.75,135.68-23.08,20.71-2.06,44.17-4.42,56.57,6.71,6.38,5.72,9.59,14.6,9.79,27.14.51,31.86-12.24,65.26-37.89,99.27-5.11,6.78-10.36,13.6-15.45,20.2-20.34,26.4-41.37,53.7-57.71,84.02-18.15,33.65-35.83,73.66-54.06,122.31-18.44,49.22-25.28,93.32-20.88,134.83,1.46,13.86,4.47,26.68,8.56,38.87h6.29c-4.27-12.34-7.4-25.3-8.91-39.5-4.29-40.55,2.43-83.74,20.53-132.06Z"/>
          <path class="cls-1" d="M1700.6,356.04c-19.35-9.98-39.65-14.28-58.78-17.82-20.17-3.73-31.54-11.56-38.01-26.19-6.05-13.67-10.47-28.7-14.74-43.25-2.03-6.89-4.13-14.02-6.36-20.86-7.11-21.8-12.81-42.37-17.44-62.87-1.88-8.34-3.46-17.04-5.01-25.45-5.82-31.86-11.84-64.8-35.12-90.03-30.27-32.8-73.85-48.61-112.34-60.85-7.8-2.48-15.84-5.19-23.62-7.8-.47-.16-.95-.32-1.42-.48h-19.1c6.25,2.03,12.46,4.12,18.63,6.2,7.8,2.62,15.86,5.33,23.72,7.83,37.75,12.01,80.48,27.48,109.75,59.21,22.09,23.94,27.95,56,33.61,87.01,1.55,8.48,3.15,17.24,5.06,25.7,4.67,20.69,10.42,41.43,17.59,63.41,2.2,6.77,4.29,13.84,6.3,20.7,4.33,14.73,8.81,29.95,15.01,43.99,9.33,21.06,27.56,26.92,42.4,29.68,18.7,3.46,38.51,7.64,57.13,17.24,29.08,15.01,50.17,40.95,66.35,81.64,8.27,20.81,15.68,42.37,22.79,63.49v-18.63c-5.42-15.77-11.08-31.62-17.24-47.09-16.52-41.55-39.15-69.28-69.17-84.76Z"/>
          <path class="cls-1" d="M863.02,874.52c-30.35-15.64-58.99-30.41-92.55-36.26-35.34-6.15-70.82-.82-105.11,4.34-9.12,1.37-18.55,2.79-27.83,3.97-45.96,5.85-80.21,2.15-111.02-11.98-30.22-13.87-56.77-37.36-74.75-66.17-14.5-23.23-22.14-50.06-29.53-76.02-3.81-13.37-7.74-27.18-12.56-40.33-3.44-9.41-7.45-19.07-11.32-28.41-12.91-31.23-26.28-63.5-24.51-97.18,2.76-52.08,34.89-91.29,65.98-129.21,18.4-22.46,37.45-45.69,50.49-71.53,24.43-48.44,32.33-91.08,23.49-126.73-2.08-8.37-4.56-16.55-6.96-24.45-9.62-31.74-18.71-61.72,1.93-94.52,8.05-12.78,17.05-24.87,25.75-36.55,10.21-13.71,20.66-27.74,29.63-43.06h-1.74c-8.83,14.95-19.07,28.7-29.08,42.14-8.73,11.71-17.75,23.82-25.83,36.65-21,33.4-11.82,63.7-2.09,95.77,2.38,7.89,4.85,16.04,6.93,24.37,8.76,35.29.89,77.57-23.37,125.68-12.97,25.7-31.96,48.85-50.32,71.25-31.23,38.11-63.52,77.51-66.3,130.09-1.8,34.02,11.62,66.46,24.61,97.84,3.86,9.33,7.86,18.97,11.29,28.35,4.81,13.1,8.73,26.89,12.54,40.22,7.42,26.06,15.09,53.01,29.71,76.41,18.14,29.05,44.92,52.75,75.39,66.73,31.09,14.27,65.57,18,111.84,12.12,9.3-1.18,18.74-2.6,27.86-3.97,34.19-5.14,69.54-10.46,104.63-4.34,33.34,5.81,61.9,20.53,92.13,36.11,4.4,2.27,8.8,4.54,13.23,6.79,6.9,3.49,13.92,6.97,21.04,10.28h3.6c-8.13-3.7-16.12-7.65-23.97-11.63-4.43-2.24-8.83-4.52-13.22-6.78Z"/>
          <path class="cls-1" d="M1413.68,738.11c6.41-19.52,14.09-38.94,21.52-57.71,3.65-9.23,7.42-18.77,11-28.21,2.22-5.85,4.4-11.74,6.59-17.63,8.74-23.55,17.77-47.91,29.37-70.47,6.24-12.13,14.19-24.03,21.88-35.55,14.24-21.33,28.96-43.38,34.29-68.64,3.09-14.64.94-27.16-6.36-37.21-9.5-13.07-27.72-21.56-51.28-23.88-39.24-3.89-81.89,5.04-119.52,12.9l-3.41.71c-5.94,1.25-11.88,2.51-17.82,3.79-16.79,3.59-34.16,7.31-51.37,10.26-9.78,1.69-19.68,2.95-29.24,4.17-8.46,1.07-17.21,2.19-25.86,3.6-28.71,4.64-59.5,3.08-89.28,1.58-55.71-2.82-113.31-5.74-160.41,31.53-31.29,24.77-50.62,61.99-53.02,102.13-2.35,39.12,11.89,77.28,39.05,104.69,10.5,10.6,22.37,20.23,33.85,29.54,18.43,14.96,37.49,30.43,51.34,50.3,21.35,30.63,22.37,73.11,2.61,108.22-6.92,12.3-15.75,22.65-25.93,30.7h2.38c9.71-8,18.16-18.07,24.85-29.96,20.04-35.61,18.98-78.72-2.69-109.83-13.97-20.05-33.12-35.58-51.63-50.6-11.44-9.29-23.28-18.89-33.72-29.44-26.86-27.11-40.93-64.85-38.62-103.53,2.38-39.71,21.5-76.55,52.46-101.05,46.67-36.93,103.98-34.01,159.41-31.21,29.85,1.51,60.72,3.08,89.58-1.59,8.64-1.4,17.37-2.51,25.81-3.59,9.58-1.22,19.5-2.48,29.3-4.17,17.25-2.96,34.63-6.68,51.44-10.28,5.94-1.26,11.87-2.54,17.81-3.78l3.41-.71c37.52-7.84,80.05-16.75,119.06-12.88,23.15,2.3,40.99,10.56,50.23,23.27,7.04,9.7,9.1,21.81,6.1,36.01-5.27,24.97-19.91,46.9-34.06,68.11-7.71,11.55-15.68,23.49-21.96,35.7-11.64,22.64-20.69,47.04-29.44,70.63-2.19,5.89-4.36,11.77-6.58,17.62-3.58,9.43-7.35,18.96-11,28.19-7.44,18.8-15.13,38.23-21.56,57.8-18.02,54.86-22.2,104.86-12.76,155.29h1.53c-9.46-50.28-5.31-100.12,12.66-154.82Z"/>
          <path class="cls-1" d="M1410.97,688.35c4.72-12.44,9.59-25.31,14.01-38.02,8.98-25.8,17.26-52.3,25.27-77.93,5.86-18.76,11.92-38.16,18.21-57.13,4.84-14.64,12.97-39.14.59-56.11-6.17-8.45-16.52-14.45-30.77-17.81-11.21-2.65-22.71-3.64-34.3-3.64-17.52,0-35.27,2.26-52.67,4.47l-.19.02c-16.88,2.15-33.96,4.76-50.47,7.28-28.9,4.42-58.78,8.98-88.51,11.21-15.99,1.19-32.4,1.79-48.27,2.37-29.19,1.06-59.38,2.16-88.47,6.98-29.93,4.95-70.68,19.2-94.92,58.9-20.18,33.05-19.06,73.36,3,107.81,13.28,20.75,31.39,37.81,48.9,54.31,10.62,10.01,21.6,20.36,31.36,31.41,30.06,34,40.7,71.9,31.65,112.62-4.77,21.47-12.98,41.28-23.61,57.84h1.77c10.48-16.55,18.57-36.23,23.3-57.51,9.17-41.23-1.6-79.58-31.99-113.96-9.81-11.1-20.82-21.47-31.46-31.5-17.44-16.44-35.47-33.43-48.66-54.02-21.74-33.96-22.86-73.65-2.99-106.2,23.94-39.22,64.27-53.3,93.89-58.2,29-4.8,59.14-5.91,88.28-6.97,15.89-.58,32.31-1.18,48.33-2.37,29.79-2.22,59.69-6.79,88.63-11.21,16.51-2.53,33.57-5.14,50.44-7.28l.19-.02c28.78-3.66,58.53-7.45,86.43-.86,13.89,3.28,23.95,9.08,29.91,17.24,11,15.07,5.64,35.31-.81,54.74-6.29,18.98-12.36,38.39-18.22,57.15-8,25.62-16.28,52.11-25.25,77.88-4.42,12.69-9.29,25.54-14,37.98-11.39,30.06-23.17,61.13-29.75,93.01-7.44,36.03-8.55,73.71-3.33,112.11h1.51c-5.22-38.29-4.13-75.88,3.29-111.8,6.56-31.76,18.31-62.78,29.68-92.78Z"/>
          <path class="cls-1" d="M693.83,892.15c-.35.25-.65.52-.99.78h2.45c28.5-21.29,69.97-11.95,98.77-3.01,3.09.96,6.17,1.98,9.24,3.01h4.68c-4.47-1.56-8.96-3.06-13.47-4.45-29.31-9.09-71.63-18.6-100.68,3.67Z"/>
          <path class="cls-1" d="M1355.49,850.98c.45-42.29,8.79-85.35,24.77-127.96,2.64-7.02,5.39-14.13,8.05-21.01,6.09-15.73,12.39-31.99,17.7-48.33l.94-2.88c2.76-8.43,5.62-17.16,7.1-25.94.34-2.05.59-4.21.82-6.3.6-5.37,1.22-10.91,3.63-15.59,5.37-4.49,5.6-17.45,5.78-27.89.07-3.95.12-7.36.45-9.73,2.62-19.08,4.74-39.24-.58-57.44-7.42-25.4-32.81-38.23-75.53-38.23-4,0-8.16.11-12.46.33-35.44,1.86-71.35,6.44-106.09,10.87-10.29,1.31-20.57,2.62-30.84,3.86-9.36,1.13-18.9,2.15-28.12,3.13-16.5,1.76-33.56,3.58-50.24,6.13-45.17,6.92-106.39,22.06-116.56,73.55-10.03,50.8,25.27,87.89,59.4,123.76,11.06,11.61,21.49,22.59,30.17,33.82,24.11,31.18,32.52,68.74,24.33,108.6-2.96,14.39-8.61,36.29-18.69,59.18h1.63c9.96-22.79,15.56-44.54,18.51-58.88,8.29-40.31-.22-78.28-24.6-109.83-8.73-11.29-19.2-22.28-30.27-33.93-33.88-35.59-68.9-72.39-59.02-122.43,9.88-49.99,66.81-64.93,115.32-72.35,16.65-2.55,33.69-4.36,50.17-6.12,9.23-.99,18.77-2.01,28.14-3.14,10.27-1.24,20.56-2.55,30.85-3.86,34.71-4.42,70.6-9,105.98-10.85,49.49-2.6,78.59,9.79,86.48,36.8,5.24,17.91,3.14,37.89.54,56.81-.34,2.46-.4,5.91-.46,9.91-.17,9.66-.4,22.89-5.35,26.84l-.2.24c-2.6,4.95-3.25,10.7-3.86,16.25-.24,2.16-.47,4.21-.81,6.21-1.46,8.67-4.3,17.34-7.04,25.72l-.94,2.88c-5.3,16.3-11.59,32.54-17.68,48.26-2.66,6.88-5.42,14-8.06,21.02-16.04,42.78-24.41,86-24.86,128.48-.15,13.93.64,28.09,1.55,41.97h1.5c-.91-13.87-1.71-28.04-1.55-41.95Z"/>
          <path class="cls-1" d="M435.22,842.08c-11.29-12.9-22.95-26.23-30.94-41.79-11.01-21.48-17.24-40.51-20.19-61.69-.71-5.03-1.34-10.16-1.93-15.11-1.74-14.21-3.53-28.91-7.31-43.08-4.49-16.81-10.98-33.21-17.26-49.08-1.23-3.13-2.48-6.26-3.7-9.4-18.59-47.63-20.31-90.93-5.08-128.69,13.54-33.56,37-61.98,59.7-89.47,27.62-33.47,56.17-68.06,67.04-112.17,10.28-41.72-4.74-77.7-19.25-112.49-17.56-42.08-15.43-76,6.89-109.98,10.47-15.92,23.13-30.59,35.37-44.8,6.7-7.77,13.51-15.69,20.03-23.88h-1.93c-6.28,7.83-12.8,15.43-19.23,22.89-12.27,14.24-24.96,28.95-35.47,44.96-22.63,34.43-24.8,68.78-7.03,111.39,14.42,34.57,29.33,70.31,19.17,111.55-10.78,43.78-39.24,78.24-66.75,111.56-22.76,27.59-46.3,56.1-59.92,89.87-15.38,38.12-13.67,81.8,5.07,129.81,1.22,3.14,2.47,6.27,3.7,9.41,6.26,15.83,12.74,32.2,17.2,48.92,3.76,14.06,5.55,28.7,7.26,42.87.61,4.96,1.23,10.1,1.93,15.14,2.98,21.37,9.25,40.54,20.37,62.18,8.06,15.72,19.79,29.13,31.13,42.09,4.73,5.41,9.63,11,14.18,16.68,7.5,9.35,15.12,20.59,17.87,33.19h1.55c-2.75-12.99-10.56-24.53-18.26-34.13-4.56-5.7-9.47-11.31-14.21-16.73Z"/>
          <path class="cls-1" d="M320.53,844.41c-22.81-12.49-47.47-16.4-70.89-16.4-16.39,0-32.16,1.92-46.24,4.17-25.7,4.1-51.16,10.89-75.79,17.45-18.36,4.9-37.35,9.96-56.29,13.87-22.43,4.63-44.81,6.2-69.32,4.67v1.51c24.59,1.53,47.09-.05,69.63-4.71,18.97-3.92,37.99-8.98,56.38-13.89,24.58-6.56,50-13.34,75.62-17.42,33.93-5.42,77.8-8.94,116.18,12.06,22.94,12.56,40.78,29.11,51.61,47.2h1.74c-10.94-18.63-29.15-35.67-52.64-48.53Z"/>
          <path class="cls-1" d="M184.72,892.94h29.05c-4.65-.38-9.37-.59-14.18-.59s-9.85.2-14.88.59Z"/>
          <path class="cls-1" d="M1374.66,691.68c14.48-38.23,22.18-76.18,23.53-116.03v-.2s-.01-.2-.01-.2c-1.92-18.75-4.53-36.74-15.28-51.01-10.55-14.03-28.59-23.02-53.58-26.72-9.74-1.45-19.84-2.15-30.85-2.15-24.18,0-48.62,3.48-72.25,6.84-6.36.91-12.95,1.84-19.38,2.69l-3.78.49c-44.36,5.82-94.65,12.41-132.22,39.16-15.82,11.26-24.99,25.28-27.25,41.64-3.51,25.34,8.99,55.41,38.23,91.91,3.54,4.42,7.23,8.9,10.8,13.22,16.81,20.37,34.19,41.43,43.64,66.31,13.84,36.45,4.6,76.55-7.44,114.45-2.16,6.79-4.38,13.77-6.67,20.86h6.3c2.08-6.46,4.1-12.82,6.07-19.02,12.38-38.95,21.84-80.25,7.33-118.45-9.81-25.81-27.51-47.26-44.62-68.01-3.55-4.31-7.23-8.77-10.74-13.15-27.75-34.65-40.18-64.02-36.96-87.3,2.03-14.65,10.36-27.28,24.78-37.54,36.36-25.88,85.86-32.37,129.53-38.1l3.78-.5c6.46-.85,13.06-1.79,19.44-2.69,23.43-3.33,47.65-6.78,71.41-6.78,10.73,0,20.53.68,29.98,2.09,23.39,3.46,40.1,11.67,49.68,24.4,9.77,12.97,12.24,30,14.07,47.78-1.35,39.1-8.92,76.35-23.13,113.88-1.41,3.7-2.82,7.39-4.23,11.08-12.09,31.61-24.59,64.29-29.09,99.31-3.34,25.94-3.65,52.38-3.96,77.93-.07,4.98-.13,10.02-.21,15.09h5.99c.09-5.04.15-10.06.21-15.01.3-25.38.62-51.64,3.92-77.24,4.41-34.3,16.23-65.19,28.74-97.91,1.41-3.69,2.83-7.38,4.23-11.09Z"/>
          <path class="cls-1" d="M1340.96,710.96c13.73-33.15,27.93-67.42,27.84-104.28-3.84-45.59-26.05-72.25-66.02-79.23-10.84-1.89-22.44-2.85-34.5-2.85h0c-32.78,0-65.53,6.94-93.25,13.72-24.8,6.06-58.77,14.38-77.81,37.9-19.58,24.18-14.53,56.62,15,96.41,4.5,6.06,9.34,12.21,14.03,18.16,19.33,24.54,39.31,49.91,45.42,80.94,6.16,31.33-3.49,62.47-12.83,92.58-2.92,9.41-5.89,19.1-8.34,28.62h1.55c2.42-9.37,5.35-18.91,8.22-28.17,9.39-30.3,19.1-61.62,12.86-93.33-6.17-31.38-26.27-56.9-45.71-81.58-4.68-5.94-9.51-12.08-14-18.12-29.07-39.17-34.13-70.98-15.03-94.56,18.72-23.13,52.4-31.37,77-37.39,27.63-6.76,60.27-13.67,92.89-13.67h0c11.97,0,23.5.95,34.24,2.82,39.22,6.85,61.02,33.05,64.8,77.8.08,36.5-14.06,70.63-27.73,103.64-1.47,3.54-2.94,7.08-4.39,10.62-15.91,38.92-23.59,74.41-24.15,111.71l-.09,6.12c-.25,17.4-.51,35.92-2.18,54.11h1.51c1.66-18.19,1.92-36.69,2.16-54.1l.09-6.12c.56-37.1,8.2-72.42,24.04-111.16,1.45-3.53,2.91-7.07,4.38-10.61Z"/>
          <path class="cls-1" d="M1678.35,822.79c-28.75,17.79-50.61,42.13-71.71,70.15h1.88c20.79-27.51,42.38-51.39,70.61-68.86,30.2-18.68,65.01-28.37,98.68-37.74,3.03-.84,6.11-1.7,9.2-2.56v-1.57c-3.22.91-6.43,1.8-9.59,2.68-33.77,9.4-68.68,19.12-99.06,37.91Z"/>
          <path class="cls-1" d="M1684.85,420.41h0c-4.31,0-8.63.76-12.85,2.25-15.22,5.4-27.89,19.48-39.07,31.9-1.75,1.94-3.46,3.83-5.13,5.64-8.68,9.41-17.16,19.26-25.38,28.79-5.85,6.81-11.91,13.84-17.98,20.65-5.85,6.56-11.85,13.08-17.63,19.39-22.44,24.44-43.64,47.52-60.84,76.1-20.89,34.72-39.98,75.7-56.74,121.83-18.96,52.21-23.42,92.28-14.45,129.9,2.94,12.36,7.61,24.53,13.62,36.07h1.68c-6.12-11.64-10.86-23.93-13.84-36.42-8.9-37.31-4.45-77.11,14.41-129.03,16.73-46.04,35.77-86.93,56.61-121.56,17.12-28.45,38.27-51.48,60.66-75.86,5.79-6.31,11.78-12.83,17.64-19.41,6.09-6.81,12.14-13.85,18-20.66,8.2-9.53,16.68-19.37,25.34-28.76,1.68-1.81,3.39-3.71,5.13-5.66,11.06-12.29,23.6-26.21,38.46-31.49,4.07-1.44,8.22-2.18,12.36-2.18h0c29.55.01,53.72,37.04,62.74,52.96,16.26,28.7,28.26,59.92,39.42,90.68v-4.38c-10.79-29.56-22.48-59.44-38.12-87.05-11.37-20.06-34.8-53.71-64.04-53.71Z"/>
          <path class="cls-1" d="M1298.89,718.6c5.23-8.44,10.65-17.18,15.19-25.95,14.82-28.62,20.85-56.13,17.87-81.89-12.54-46.31-57.81-53.22-83.66-53.22h0c-24.22,0-50.99,5.66-73.46,15.53-26.94,11.82-51.22,36.85-38.55,71.61,8.35,22.91,25.25,41.47,41.61,59.41,7.92,8.68,16.09,17.66,23.04,26.89,13.3,17.67,19.98,32.97,21.03,48.13,1.15,16.65-5.56,32.31-12.06,47.46-1.59,3.7-3.23,7.52-4.71,11.26-5.04,12.75-13.53,34.28-16,55.11h1.5c2.47-20.56,10.9-41.92,15.88-54.55,1.47-3.72,3.11-7.54,4.69-11.23,6.57-15.31,13.37-31.14,12.19-48.17-1.08-15.47-7.85-31.02-21.33-48.93-6.99-9.29-15.19-18.29-23.13-27-16.25-17.84-33.07-36.29-41.31-58.91-12.3-33.78,11.43-58.16,37.75-69.71,22.29-9.78,48.85-15.4,72.87-15.4,25.44,0,69.94,6.77,82.21,52,2.91,25.35-3.06,52.57-17.74,80.91-4.52,8.72-9.92,17.43-15.14,25.85-9.61,15.5-19.55,31.53-24.92,48.93-6.62,21.42-3.92,44.18-1.31,66.18,1.98,16.79,4.04,34.14,1.95,50.79-.37,2.95-.96,6.06-1.73,9.24h1.53c.75-3.12,1.32-6.15,1.69-9.05,2.11-16.84.04-34.28-1.95-51.16-2.59-21.84-5.26-44.44,1.26-65.54,5.32-17.22,15.2-33.16,24.76-48.58Z"/>
          <path class="cls-1" d="M1733.1,767.84c-2.48,1.16-4.96,2.3-7.42,3.46-30.98,14.6-71.13,35.48-106.96,67.58-6.17,5.53-12.22,11.7-18.61,18.24-12.99,13.25-26.27,26.8-41.38,35.81h2.88c14.38-9.06,27.1-22.04,39.55-34.75,6.38-6.52,12.42-12.67,18.55-18.17,35.69-31.98,75.72-52.79,106.6-67.35,2.46-1.16,4.93-2.31,7.42-3.46,18.02-8.35,36.65-16.99,51.03-31.34.79-.79,1.53-1.59,2.24-2.41v-2.32c-1.02,1.25-2.11,2.48-3.3,3.67-14.19,14.16-32.71,22.74-50.61,31.04Z"/>
          <path class="cls-1" d="M1698.84,483.02c-4.33-1.38-8.91-2.09-13.61-2.09h0c-29.31,0-59.05,26.36-80.76,45.61-1.61,1.42-3.17,2.8-4.66,4.12-33.88,29.76-60.79,56.69-82.06,91.35-24.11,39.27-43.3,80.66-55.51,119.68-13.19,42.12-14.64,77.33-4.44,107.63,5.51,16.41,16.18,32.89,30.72,43.62h2.6c-15.16-10.47-26.26-27.32-31.91-44.1-10.09-29.99-8.63-64.89,4.45-106.7,12.18-38.9,31.32-80.17,55.36-119.34,21.17-34.5,48-61.33,81.77-91,1.5-1.32,3.06-2.7,4.67-4.13,21.54-19.09,51.03-45.23,79.77-45.23h0c4.55,0,8.98.68,13.16,2.02,28.62,9.17,45.1,38.06,58.66,67.94,12.91,28.44,21.99,58.53,29.95,88.5v-5.78c-7.63-28.24-16.41-56.51-28.6-83.34-13.7-30.18-30.4-59.4-59.57-68.75Z"/>
          <path class="cls-1" d="M1694.27,754.28c2.08-1.29,4.18-2.56,6.28-3.85,13.72-8.35,27.91-16.99,38.62-29.12,15.11-17.13,18.88-39.27,19.38-54.83.13-4.27.1-8.93-.13-14.35-6.25-39.73-16.01-80.19-44.77-106.95-10.5-9.77-22.83-14.72-36.65-14.72h0c-25.17,0-50.87,16.19-68.01,28.37-57.18,40.63-100.89,106.2-123.1,184.62-7.85,27.73-15.81,67.55,5.62,93.22,9.61,11.49,21.49,17.32,35.31,17.32,17.56,0,38.35-9.35,61.77-27.77,34.46-27.1,71.15-50.59,105.67-71.94ZM1526.82,852.49c-13.36,0-24.85-5.65-34.17-16.79-20.98-25.11-13.09-64.43-5.33-91.83,22.12-78.09,65.63-143.38,122.52-183.8,16.98-12.07,42.4-28.1,67.14-28.1h0c13.43,0,25.42,4.82,35.64,14.32,28.42,26.45,38.09,66.62,44.29,105.99.22,5.29.25,9.91.12,14.15-.49,15.31-4.18,37.09-19,53.88-10.56,11.96-24.64,20.54-38.27,28.83-2.11,1.29-4.22,2.57-6.3,3.86-34.56,21.38-71.3,44.89-105.8,72.04-23.16,18.22-43.64,27.45-60.86,27.45Z"/>
          <path class="cls-1" d="M1151.25,66.9c-26.76,19.67-54.43,40-84.46,56.16-16.02,8.61-32.96,16.37-49.35,23.87-23.33,10.69-47.45,21.73-69.44,35.47-9.86,6.17-19.59,13.06-28.99,19.71-23.97,16.97-48.74,34.5-78.06,41.82-15.06,3.75-31.29,5.51-51.09,5.51-15.27,0-30.85-1.06-45.92-2.08-11.03-.76-22.43-1.52-33.51-1.87-4.72-.14-9.11-.2-13.41-.2-28.73,0-70.86,2.89-104.73,28.01-22.11,16.37-39.12,38.58-55.59,60.07-6.32,8.25-12.86,16.79-19.57,24.83-7,8.38-14.34,16.78-21.44,24.88-20.03,22.89-40.75,46.57-56.55,73.27-21.06,35.57-23.88,76.4-8.38,121.34,13.87,40.21,32.57,82.32,55.58,125.17,19.38,36.05,44.8,60.73,75.57,73.31,25.96,10.63,54.75,15.57,90.62,15.57,23.29,0,47.21-2.08,70.34-4.08,22.98-1.99,46.75-4.05,69.73-4.05,8.25,0,15.88.25,23.29.78,21.75,1.54,39.93,5.59,55.62,12.39,11.87,5.15,22.61,12.66,33,19.93,6.77,4.74,13.77,9.64,21.06,13.86,14.28,8.29,26.82,12.32,38.34,12.32,4.9,0,9.69-.75,14.21-2.22,18.69-6.09,28.3-22.99,23.9-42.04-5.35-23.13-28.68-36.66-49.26-48.61-4.23-2.46-8.24-4.79-11.94-7.11-26-16.33-43.7-45.93-54.14-90.48-8.9-37.99-17.58-87.64-5.69-134.83,10.21-40.49,31.5-78.62,58.43-104.63,25.02-24.19,59.92-35.94,106.7-35.94,27.51,0,55.7,3.92,78.34,7.07,27.84,3.86,56.62,7.86,86.1,7.86,7.39,0,14.67-.26,21.62-.77,47.3-3.49,92.48-16.08,130.45-27.92,12.01-3.75,24.51-7.23,36.58-10.62,29.16-8.13,59.31-16.56,86.72-29.62,23.19-11.05,50.12-32.67,46.68-72.95-10.51-66.62-40.21-155.53-122.01-200.84-43.06-23.84-84.16-37.23-122.16-39.79-2.8-.19-5.64-.28-8.45-.28h0c-33.16,0-66.44,12.78-104.73,40.24-8.06,5.78-16.16,11.72-23.99,17.49ZM1279.98,10.66c2.77,0,5.59.1,8.35.29,37.78,2.54,78.68,15.86,121.54,39.6,81.27,45.02,110.78,133.47,121.24,199.69,3.36,39.37-23.07,60.56-45.83,71.41-27.29,13-57.38,21.41-86.47,29.53-12.09,3.38-24.59,6.87-36.62,10.63-37.88,11.82-82.97,24.38-130.11,27.85-6.92.52-14.16.77-21.51.77-29.37,0-58.11-3.98-85.89-7.84-22.7-3.15-50.94-7.09-78.55-7.09-47.19,0-82.43,11.9-107.74,36.36-27.12,26.2-48.56,64.6-58.84,105.34-11.97,47.51-3.25,97.39,5.69,135.55,10.52,44.95,28.45,74.85,54.8,91.41,3.73,2.34,7.73,4.67,11.98,7.14,20.32,11.78,43.35,25.14,48.55,47.64,4.22,18.24-4.98,34.42-22.89,40.26-4.38,1.43-9.01,2.15-13.76,2.15-11.25,0-23.55-3.96-37.59-12.11-7.23-4.19-14.21-9.07-20.95-13.79-10.45-7.31-21.26-14.88-33.27-20.08-15.83-6.86-34.19-10.95-56.1-12.51-7.45-.52-15.09-.78-23.39-.78-23.04,0-46.83,2.06-69.84,4.05-23.11,2.01-46.99,4.07-70.22,4.07-35.66,0-64.28-4.91-90.05-15.46-30.45-12.46-55.61-36.9-74.81-72.64-22.97-42.77-41.63-84.81-55.48-124.94-15.35-44.5-12.58-84.91,8.24-120.08,15.75-26.58,36.42-50.2,56.41-73.04,7.1-8.12,14.44-16.52,21.46-24.91,6.73-8.06,13.28-16.6,19.61-24.87,16.4-21.41,33.35-43.54,55.29-59.79,33.51-24.84,75.32-27.72,103.85-27.72,4.29,0,8.66.07,13.36.22,11.06.33,22.44,1.12,33.46,1.86,15.09,1.03,30.69,2.09,46.02,2.09,19.92,0,36.27-1.77,51.44-5.56,29.59-7.38,54.49-25,78.57-42.04,9.38-6.64,19.09-13.51,28.92-19.65,21.9-13.71,45.98-24.72,69.26-35.39,16.41-7.51,33.37-15.28,49.43-23.91,30.11-16.2,57.83-36.58,84.64-56.29,7.82-5.74,15.91-11.69,23.97-17.48,38.03-27.27,71.03-39.96,103.87-39.96Z"/>
          <path class="cls-1" d="M47.48,835.5c27.35-4.43,53.56-14.04,78.89-23.33,7.04-2.59,14.35-5.26,21.54-7.78,4.4-1.54,8.99-3.08,13.68-4.66,39.93-13.41,89.61-30.09,104.4-74.3,8.47-25.35,5.43-61.21-16.78-80.72-11.81-10.36-25.49-13.94-39.6-13.94-17.5,0-35.66,5.5-51.64,10.34l-4.75,1.43c-32.32,9.69-67.55,11.87-110.84,6.88-7.92-.91-15.83-2.4-23.47-3.85-5.55-1.04-11.18-2.1-16.91-2.96v6.11c5.33.82,10.6,1.81,15.8,2.78,7.76,1.46,15.77,2.97,23.9,3.91,44.12,5.09,80.1,2.84,113.23-7.08l4.77-1.44c28.88-8.75,61.62-18.67,85.57,2.37,20.22,17.77,22.88,50.81,15.03,74.25-13.83,41.36-61.95,57.52-100.61,70.5-4.72,1.59-9.34,3.14-13.76,4.69-7.25,2.53-14.56,5.21-21.63,7.81-25.07,9.19-51,18.7-77.79,23.05-14.35,2.32-29.23,3.28-44.52,2.92v6.03c15.62.36,30.81-.62,45.47-3Z"/>
          <path class="cls-1" d="M1718.68,689.89c9.25-14.71,8.69-32.88,8.19-48.92-.04-1.34-.08-2.66-.12-3.97l-.04-.4c-3.04-18.92-12.13-52.38-38.74-63.84-7.34-3.17-15.22-4.76-23.41-4.77h0c-21.43,0-45.52,10.8-71.6,32.1-41.57,33.93-73.86,92.42-82.26,148.98-4.12,27.78.68,45.95,14.26,53.99,5.3,3.14,11.37,4.73,18.05,4.73,20.91,0,44.44-15.71,60.01-26.1,1.67-1.12,3.26-2.18,4.76-3.17,8.59-5.64,17.53-11.14,26.16-16.47,17.71-10.91,36.02-22.19,52.66-35.45,12.29-9.79,22.48-21.46,32.07-36.71ZM1682.89,721.87c-16.36,13.04-34.51,24.22-52.08,35.04-8.67,5.34-17.63,10.86-26.31,16.56-1.51,1-3.12,2.06-4.8,3.19-14.97,9.99-37.59,25.1-56.7,25.1-5.59,0-10.64-1.31-15.01-3.9-14.04-8.31-13.93-30.63-11.37-47.9,8.18-55.16,39.62-112.14,80.1-145.18,24.99-20.41,47.81-30.75,67.83-30.75,7.39,0,14.47,1.44,21.06,4.28,23.9,10.3,32.28,41.34,35.15,59.06.04,1.26.08,2.53.12,3.8.49,15.91,1,32.36-7.26,45.5-9.22,14.66-18.98,25.85-30.73,35.2Z"/>
          <path class="cls-1" d="M108.97,743.2c1.47-6.09-.07-11.98-4.56-17.49-13.51-16.6-40.72-21.67-60.58-25.37l-1.26-.24c-15.04-2.8-28.26-4.58-40.56-5.41v1.51c12.22.84,25.35,2.59,40.28,5.39l1.26.23c19.64,3.66,46.53,8.67,59.69,24.84,4.18,5.13,5.62,10.57,4.27,16.19-4.46,18.69-37.99,35.26-52.19,41.52-15.7,6.92-35.62,7.57-53.31,8.06v1.5c17.84-.49,37.93-1.14,53.91-8.19,14.42-6.35,48.45-23.2,53.05-42.55Z"/>
          <path class="cls-1" d="M1115.12,111.72c-25.14,16.92-51.79,32.57-77.56,47.69-14.19,8.34-28.87,16.95-43.14,25.7-17.46,10.69-33.62,24.14-48.03,39.99-7.97,8.77-14.78,18.59-21.36,28.09-5.84,8.43-11.88,17.14-18.65,24.97-10.98,12.7-25.68,18.61-46.24,18.61-14.06,0-28.81-2.75-43.06-5.39-5.48-1.02-10.63-1.98-15.73-2.79-30.77-4.87-62.56-9.89-94.26-9.89-15.64,0-29.88,1.21-43.52,3.68-22.21,4.04-42.24,11.55-59.51,22.28-12.3,7.67-22.76,17.65-32.87,27.31-4.9,4.68-9.96,9.51-15.15,13.99-9.65,8.35-18.06,18.26-26.18,27.83-4.39,5.17-8.92,10.52-13.54,15.48-1.77,1.89-3.54,3.79-5.3,5.68-13.31,14.24-27.08,28.94-38.87,44.96-26.54,36.01-36.52,74.63-28.84,111.67,7.09,34.16,24.54,65.63,41.4,96.06,3.14,5.68,6.39,11.55,9.49,17.27,16.81,31.13,38.76,65.35,74.1,83.16,26.64,13.42,57.41,19.39,99.75,19.39,7.1,0,14.85-.16,23.65-.49l4.66-.18c41.87-1.58,85.15-3.22,124.58-19.14,43.51-17.58,42.23-61.02,37.61-100.38-.89-7.64-1.93-15.56-2.94-23.21-4.55-34.64-9.25-70.45-4.29-104.04,4.94-33.48,18.94-66.01,32.48-97.47,2.39-5.56,4.76-11.08,7.07-16.57,1.05-2.48,2.08-5.01,3.13-7.55,5.54-13.5,11.27-27.45,19.89-38.74,11.21-14.66,28.45-17.94,43.83-19.19,5.13-.42,10.53-.64,16.05-.64,25.06,0,50.68,4.34,75.47,8.54,7.3,1.23,14.85,2.53,22.2,3.66,12.07,1.86,24.39,3.99,36.31,6.07,30.58,5.3,62.19,10.78,93.55,12.39,4.74.23,9.57.36,14.35.36,35.26,0,71.46-6.41,110.69-19.57,42.23-14.16,77.59-29.42,108.11-46.63,33.86-19.1,49.38-43.51,46.1-72.54l-.04-.26c-7.31-36.3-23.15-71.83-45.79-102.76-23.17-31.67-52.48-57.02-84.75-73.33-24.38-12.32-50.7-18.84-76.09-18.84h0c-15.83,0-31.36,2.48-46.16,7.38-32.42,10.72-61.03,31.04-88.7,50.7-7.84,5.56-15.94,11.33-23.9,16.69ZM1229.58,50.07c14.2-4.71,29.11-7.09,44.31-7.09,24.46,0,49.85,6.3,73.4,18.2,62.67,31.67,112.63,99.08,127.33,171.76,2.91,26.35-11.58,48.72-43.09,66.49-30.19,17.02-65.21,32.13-107.07,46.18-38.61,12.94-74.2,19.25-108.8,19.25-4.69,0-9.41-.12-14.05-.36-31.01-1.58-62.43-7.03-92.84-12.32-11.94-2.06-24.3-4.21-36.42-6.09-7.31-1.12-14.84-2.4-22.12-3.63-25.02-4.24-50.9-8.63-76.46-8.63-5.68,0-11.24.22-16.54.65-16.69,1.37-35.46,5-48.1,21.53-9.11,11.91-14.99,26.25-20.68,40.12-1.04,2.53-2.07,5.03-3.11,7.5-2.3,5.48-4.68,11-7.05,16.53-13.7,31.81-27.85,64.72-32.92,98.98-5.1,34.43-.33,70.67,4.27,105.72,1,7.63,2.05,15.53,2.93,23.13,4.55,38.84,5.68,78.09-33.9,94.07-38.45,15.54-81.22,17.15-122.57,18.72l-4.66.18c-8.73.33-16.38.49-23.42.49-41.37,0-71.31-5.78-97.07-18.76-33.87-17.05-55.16-50.33-71.53-80.64-3.09-5.74-6.36-11.64-9.51-17.32-16.65-30.04-33.86-61.1-40.76-94.36-9.25-44.6,9.99-82.72,27.77-106.84,11.59-15.74,25.23-30.32,38.42-44.41,1.77-1.9,3.54-3.81,5.32-5.69,4.72-5.07,9.3-10.47,13.73-15.69,7.97-9.41,16.21-19.13,25.52-27.18,5.29-4.58,10.42-9.46,15.37-14.19,9.88-9.44,20.11-19.22,31.9-26.55,16.63-10.34,35.95-17.56,57.44-21.47,13.26-2.41,27.15-3.59,42.45-3.59,31.23,0,62.8,5,93.33,9.82,5.01.8,10.14,1.74,15.57,2.76,14.51,2.7,29.53,5.51,44.15,5.51,22.12,0,38.72-6.77,50.75-20.69,6.98-8.08,13.12-16.92,19.04-25.48,6.47-9.34,13.16-19,20.87-27.47,14.03-15.43,29.75-28.53,46.73-38.93,14.21-8.7,28.87-17.3,43.05-25.62,25.85-15.17,52.58-30.85,77.87-47.89,8.03-5.4,16.16-11.19,24.03-16.78,27.31-19.39,55.54-39.45,87.12-49.88Z"/>
          <path class="cls-1" d="M821.17,472.3c4.79-25.09,9.76-51.02,6.81-77.32-5.88-25.07-22.38-44.1-49.04-56.58-20.88-9.78-48.08-15.17-76.58-15.17-2.98,0-5.97.06-8.92.17-80.42,3.24-141.89,63.9-181.14,109.26-33.48,38.68-45.72,74.48-38.51,112.68,7.19,38.02,30.19,76.24,51.73,108.61,23.18,34.82,54.33,59.71,90.06,71.98,20.57,7.06,44.09,10.5,71.91,10.5,11.69,0,24.03-.6,37.74-1.84,37.16-3.36,62.94-14.65,78.82-34.5,19.52-24.4,18.93-57.43,16.24-83.48-.7-6.79-1.5-13.63-2.27-20.23-3.25-27.95-6.32-54.35-3.54-82.31,1.4-13.99,4.1-28.1,6.7-41.76ZM816.53,596.55c.77,6.61,1.55,13.44,2.27,20.22,2.66,25.76,3.25,58.41-15.92,82.38-15.62,19.52-41.07,30.61-77.8,33.94-13.66,1.23-25.96,1.84-37.6,1.84-27.64,0-51-3.41-71.43-10.42-35.42-12.16-66.3-36.85-89.29-71.38-21.47-32.24-44.38-70.29-51.5-108.05-7.12-37.7,5-73.1,38.15-111.41,39.08-45.14,100.25-105.53,180.08-108.74,2.92-.12,5.9-.18,8.86-.18,25.25,0,108.8,5.1,124.16,70.5,2.89,25.97-2.03,51.8-6.81,76.77-2.62,13.68-5.32,27.83-6.71,41.89-2.8,28.13.28,54.6,3.54,82.64Z"/>
          <path class="cls-1" d="M1649.15,618.34c-10.57,0-23.09,4.01-34.33,11-14.45,8.98-26.84,22.09-35.84,37.89-4.65,8.16-19.32,36.41-12.69,56.94,2.37,7.32,8.15,11.03,17.19,11.03,15.01,0,35.28-10.38,42.9-14.29,18.24-9.34,60.05-35.56,54.48-77.29-5.72-20.9-20.4-25.29-31.71-25.29ZM1625.7,719.57c-7.55,3.86-27.58,14.13-42.23,14.13-8.32,0-13.62-3.36-15.76-9.99-6.44-19.94,7.98-47.69,12.56-55.72,8.88-15.59,21.1-28.5,35.33-37.36,11.02-6.86,23.24-10.79,33.55-10.78,10.79,0,24.8,4.19,30.25,24.08,5.42,40.67-35.75,66.45-53.7,75.65Z"/>
          <path class="cls-1" d="M784.92,601.98c-4.68-43.52-9.09-84.63-6.04-127.61,3.11-43.63-6.64-73.03-29.81-89.9-18.07-13.15-38.57-19.81-60.94-19.81h-.01c-66.11,0-125.93,56.28-142.69,73.51-33.63,34.62-46.95,66.36-41.92,99.9,5.01,33.42,25.41,71.91,55.97,105.57,27.86,30.72,62.59,50.68,100.43,57.74,11.71,2.18,23.32,3.29,34.49,3.29,24.91,0,45.84-5.38,62.22-15.99,21.72-14.07,31.71-38.82,29.71-73.58-.47-4.38-.93-8.75-1.4-13.11ZM755.81,687.4c-16.14,10.45-36.8,15.75-61.42,15.75-11.07,0-22.59-1.1-34.22-3.26-37.51-6.99-71.95-26.79-99.59-57.27-30.36-33.45-50.62-71.64-55.59-104.78-4.95-33.03,8.24-64.37,41.52-98.61,16.66-17.15,76.09-73.06,141.63-73.06,22.05,0,42.26,6.57,60.07,19.54,22.7,16.52,32.25,45.48,29.18,88.55-3.07,43.11,1.57,86.21,6.04,127.88.48,4.36.94,8.73,1.41,13.07,1.96,34.14-7.8,58.43-29.02,72.19Z"/>
          <path class="cls-1" d="M1273.35,667.93c9.19-10.95,13.35-25.36,11.11-38.64-5.9-20.46-28.63-29.62-48.55-29.63h0c-20.42,0-37.28,8.95-44,23.36-3.71,7.94-3.71,16.89,0,25.91,6.7,16.29,22.97,28.52,35.25,33,4.34,1.58,8.8,2.37,13.28,2.37,12.19,0,24.19-5.96,32.92-16.37ZM1240.44,682.8c-4.3,0-8.6-.77-12.77-2.29-11.98-4.36-27.85-16.28-34.37-32.16-3.6-8.73-3.6-17.04-.04-24.69,6.47-13.87,22.81-22.49,42.65-22.49h0c19.36,0,41.43,8.83,47.09,28.45,2.14,12.76-1.89,26.72-10.79,37.33-8.45,10.07-20.02,15.84-31.78,15.84Z"/>
          <path class="cls-1" d="M736.2,584.39c-2.31-15.93-3.78-32.29-5.2-48.12-1.58-17.65-3.23-35.9-6.04-53.71-2.99-18.89-13.1-51.74-47.18-59.46-5.49-1.25-11.27-1.89-17.19-1.89h-.02c-43.74,0-94.61,36.05-111.07,78.72-21.83,56.59,33.53,111.14,69.68,134.46,15.19,9.8,38.64,21.49,63.96,21.49,9.67,0,18.9-1.75,27.43-5.19,27.99-11.32,26.52-45.54,25.65-65.99l-.03-.3ZM708.34,645.09c-7.8,3.15-16.29,4.76-25.19,4.76-23.88,0-46.21-11.17-60.73-20.54-34.62-22.33-87.75-74.24-67.33-127.19,15.66-40.59,63.97-74.88,105.51-74.88,5.46,0,10.81.59,15.88,1.74,30.62,6.95,39.82,37.14,42.58,54.52,2.79,17.61,4.42,35.76,5.98,53.31,1.42,15.86,2.91,32.25,5.23,48.29,1.03,24.35.23,51.02-21.92,59.98Z"/>
          <path class="cls-1" d="M802.38,69.6c-2.44,2.27-5.77,5.08-9.63,8.34-18.49,15.63-46.43,39.22-44.44,59.3.76,7.51,5.75,13.84,14.86,18.84,32.74,17.93,75.48,3.3,109.82-8.44,4.36-1.5,8.58-2.93,12.62-4.26,20.31-6.65,41.54-11.24,62.07-15.69,22.41-4.84,45.58-9.85,67.65-17.55,38.07-13.29,74.43-34.24,108.08-62.25,12.35-10.3,24.02-21.82,35.29-32.97,4.87-4.82,9.79-9.67,14.81-14.48h-2.17c-4.63,4.46-9.18,8.95-13.68,13.41-11.26,11.13-22.89,22.63-35.2,32.89-33.5,27.89-69.71,48.75-107.61,61.98-21.99,7.67-45.12,12.67-67.48,17.51-20.56,4.44-41.84,9.05-62.22,15.72-4.05,1.32-8.27,2.77-12.64,4.26-34.06,11.66-76.47,26.16-108.63,8.56-8.64-4.75-13.38-10.69-14.07-17.68-1.92-19.26,26.77-43.49,43.91-57.97,3.86-3.28,7.22-6.1,9.67-8.4,22.84-21.31,42.43-45.09,59.76-70.26h-1.83c-17.13,24.78-36.46,48.17-58.95,69.16Z"/>
          <path class="cls-1" d="M1701.44,310.17c-28.86-19.35-58.7-39.35-75.95-71.53-17.85-33.29-20.47-73.62-8.02-123.29.44-1.76.9-3.53,1.36-5.32,4.05-15.73,8.65-33.56,3.99-49.87-5.19-18.13-22.32-28.15-34.75-34.12-23.09-11.08-47.41-19.1-71.72-25.61h-5.91c26.07,6.75,52.24,15.09,76.98,26.96,19.35,9.3,30.14,19.84,33.96,33.18,4.55,15.92.21,32.79-3.99,49.08-.47,1.79-.92,3.56-1.37,5.33-12.54,50.04-9.88,90.72,8.16,124.36,17.42,32.51,47.42,52.63,76.43,72.08,29.49,19.77,59.98,40.21,77.14,73.66,3.54,6.9,6.58,14.08,9.26,21.4v-4.24c-2.35-6.09-4.96-12.06-7.93-17.85-17.34-33.8-48-54.34-77.64-74.23Z"/>
          <path class="cls-1" d="M39.94,489.35c21.02-20.92,42.75-42.55,61.32-66.55,23.63-30.55,44.35-64.02,64.38-96.38,3.02-4.87,6.03-9.73,9.05-14.6,2.73-4.37,5.55-8.82,8.4-13.34,20.87-32.96,44.52-70.32,49.95-109.11,5.99-42.6-13.95-81.39-31.71-106.42-21.91-30.88-52.82-58.31-84.81-75.25-5.07-2.67-10.21-5.1-15.44-7.28h-4.05c6.38,2.51,12.65,5.36,18.8,8.61,64.51,34.17,125.45,110.88,115.73,180.13-5.39,38.47-28.95,75.67-49.74,108.5-2.85,4.52-5.67,8.98-8.4,13.35-3.02,4.87-6.04,9.73-9.05,14.6-20.02,32.34-40.72,65.78-64.31,96.25-18.49,23.92-40.2,45.52-61.19,66.4-10.01,9.98-20.38,20.29-30.36,30.83-2.03,2.14-4.26,4.49-6.51,6.99v2.26c2.64-2.99,5.29-5.78,7.67-8.3,9.89-10.43,20.25-20.74,30.26-30.7Z"/>
          <path class="cls-1" d="M142.61,596.19c8.34-3.38,16.66-7.15,24.71-10.78,12.46-5.64,25.36-11.45,38.52-16.01,7.6-2.63,15.57-4.61,23.29-6.52,11.23-2.78,22.83-5.66,33.54-10.59,28.11-12.94,44.19-40.35,59.75-66.85,2.51-4.28,5.1-8.7,7.67-12.9,13.7-22.46,31.27-42.37,48.29-61.65,4.76-5.39,9.69-10.98,14.45-16.53,20.21-23.53,42.66-51.38,53.49-84.21,10.4-31.58,6.93-64.95-10.63-102l-2.34-4.94c-16.33-34.33-31.77-66.76-18.65-104.79,9.62-27.91,28.88-51.19,47.5-73.71,3.21-3.88,6.42-7.76,9.56-11.64,3.3-4.07,6.65-8.29,9.98-12.64h-1.9c-3.08,4.01-6.19,7.92-9.24,11.69-3.14,3.86-6.33,7.73-9.54,11.62-18.71,22.62-38.07,46.02-47.78,74.17-13.31,38.61,2.25,71.32,18.72,105.94l2.34,4.92c17.39,36.71,20.83,69.71,10.56,100.89-10.73,32.57-33.08,60.28-53.19,83.7-4.76,5.55-9.67,11.13-14.44,16.52-17.05,19.32-34.68,39.29-48.45,61.86-2.57,4.21-5.17,8.64-7.68,12.92-15.44,26.3-31.41,53.5-59.08,66.25-10.57,4.87-22.11,7.74-33.28,10.5-7.74,1.92-15.75,3.91-23.4,6.56-13.23,4.57-26.16,10.41-38.67,16.05-8.03,3.63-16.34,7.39-24.64,10.76-43.2,17.58-83.31,19.42-119.23,5.49-6.8-2.64-14.27-6.11-20.82-10.46v1.78c5.61,3.64,12.38,7.02,20.28,10.09,36.29,14.08,76.77,12.22,120.32-5.5Z"/>
          <path class="cls-1" d="M1757.53,54.65l-5.3,4.76c-43.99,39.53-110.47,99.24-79.59,164.64,14.85,31.45,43.14,51.57,70.5,71.02,15.15,10.78,30.58,21.76,43.87,34.75v-2.06c-13.12-12.64-28.2-23.37-43-33.9-27.2-19.35-55.32-39.35-70.01-70.44-30.4-64.38,35.57-123.65,79.23-162.87l5.3-4.78c9.88-8.9,19.66-18.33,28.49-28.76v-2.35c-9.07,10.91-19.22,20.74-29.48,30Z"/>
          <path class="cls-1" d="M202.07,50.2c18.27,21.69,40.88,50.45,53.54,80.46,21.06,49.88-11.49,100.97-40.22,146.06-6.26,9.85-12.19,19.15-17.39,28.17-21.37,37.06-37.22,68.17-49.9,97.95-7.64,17.96-13.87,34.82-19.04,51.54-.74,2.41-1.61,4.98-2.54,7.71-4.15,12.25-8.86,26.14-6.8,38.13.87,5.05,3.34,9.04,7.35,11.87,11.74,8.26,33.64,4.29,46.73,1.92,1.4-.25,2.67-.49,3.79-.68,3.15-.53,6.32-1.05,9.49-1.55,16.07-2.6,32.67-5.28,48.43-10.71,35.85-12.36,62.49-35.5,91.14-62.24l3.69-3.44c46.79-43.63,105.02-97.93,97.79-168.73-2.53-24.77-15.31-45.02-27.69-64.58-9.23-14.63-18.78-29.77-23.68-46.43-11.49-39.05,15.89-76.68,37.91-106.93,6.28-8.61,13.12-17.23,19.74-25.57,5.93-7.44,11.91-14.98,17.66-22.72h-7.51c-4.87,6.42-9.86,12.73-14.83,18.96-6.65,8.38-13.55,17.04-19.9,25.77-22.79,31.32-51.15,70.28-38.83,112.2,5.14,17.48,14.92,32.96,24.39,47.94,12.54,19.87,24.39,38.62,26.77,61.98,6.93,67.81-50.09,120.96-95.9,163.68l-3.69,3.44c-28.15,26.27-54.27,48.98-89,60.96-15.28,5.27-31.64,7.91-47.44,10.47-3.18.51-6.36,1.03-9.53,1.56-1.15.19-2.44.43-3.86.68-11.37,2.06-32.55,5.91-42.24-.92-2.69-1.9-4.29-4.5-4.88-7.95-1.79-10.47,2.64-23.59,6.57-35.16.94-2.77,1.83-5.38,2.6-7.87,5.1-16.52,11.26-33.19,18.83-50.95,12.58-29.55,28.33-60.47,49.56-97.31,5.14-8.89,11.03-18.14,17.27-27.93,29.52-46.34,62.97-98.87,40.67-151.69-12.97-30.75-35.94-59.98-54.49-82-14.75-17.5-30.1-32.84-45.86-45.86h-9.6c17.52,13.73,34.57,30.37,50.9,49.77Z"/>
          <path class="cls-1" d="M94.89,386.52c23.58-27.24,46.12-57.93,66.97-91.23,2.37-3.78,4.82-7.63,7.32-11.52,13.97-21.86,29.82-46.65,36.46-71.76,3.5-13.22,4.56-32.66,2.69-49.48-1.6-14.51-6.62-28.92-16.28-46.75-15.98-29.47-38.64-54.74-65.57-73.08C97.68,23.08,63.65,12.29,28.03,11.52c-1.71-.04-3.43-.06-5.13-.06-7.09,0-14.06.35-20.89.99v1.51c8.46-.81,17.13-1.13,25.99-.93,35.33.77,69.09,11.46,97.65,30.93,26.71,18.22,49.23,43.3,65.08,72.54,9.56,17.65,14.54,31.9,16.12,46.19,1.84,16.66.8,35.87-2.64,48.94-6.58,24.87-22.36,49.55-36.29,71.33-2.5,3.89-4.95,7.74-7.32,11.53-20.82,33.22-43.3,63.86-66.83,91.04-24.13,27.86-49.72,52.84-76.03,74.23-5.19,4.21-10.43,8.24-15.72,12.06v1.84c5.61-4.02,11.17-8.27,16.65-12.73,26.4-21.45,52.03-46.48,76.23-74.42Z"/>
          <path class="cls-1" d="M88.34,356.1c23.43-25.6,44.45-53.36,62.51-82.51,14.39-23.24,29.47-51.29,32.22-83.05,2.24-25.93-5.43-52.88-22.21-77.92-14.95-22.33-36.39-41.97-60.37-55.27-24.2-13.44-51.73-20.41-80.21-20.41-3.59,0-7.2.1-10.82.33-2.48.14-4.97.38-7.44.62v1.52c2.5-.26,5.01-.49,7.53-.65,32.03-1.96,63.23,4.91,90.22,19.9,44.26,24.58,86.74,74.84,81.83,131.74-2.72,31.44-17.71,59.3-32.02,82.38-18,29.07-38.97,56.75-62.33,82.29-22.69,24.81-47.6,48.07-74.03,69.13-3.38,2.69-7.15,5.68-11.2,8.81v1.9c4.42-3.39,8.5-6.64,12.13-9.53,26.48-21.09,51.45-44.41,74.2-69.29Z"/>
          <path class="cls-1" d="M78.09,336.9c36.66-38.64,76.23-84.37,81.87-138.32,5.01-47.94-23.37-95.99-72.31-122.44-21.56-11.64-45.55-17.77-69.01-17.77-5.25,0-10.47.32-15.65.93-.32.04-.65.1-.97.15v1.52c.39-.06.77-.12,1.16-.17,27.91-3.36,57.66,2.57,83.76,16.68,48.4,26.15,76.48,73.62,71.54,120.95-5.59,53.49-44.99,98.98-81.46,137.43-19.41,20.45-41.6,40.72-67.87,61.98-2.28,1.84-4.68,3.75-7.13,5.65v1.92c2.8-2.16,5.49-4.31,8.08-6.41,26.31-21.29,48.56-41.6,68-62.1Z"/>
          <path class="cls-1" d="M324.44,192.65c-2.57,0-5.13.33-7.6,1-13.68,3.72-23.42,15.5-32.09,25.99-38.96,47.11-79.79,103.57-87.29,165.28-2.48,20.39,3.79,46.85,29.68,54.27,4.91,1.41,10.07,2.12,15.32,2.12,22.98,0,45.29-13.19,66-27.44,62.88-43.32,93.56-88.46,91.15-134.28-3.53-28.56-21.56-58.05-45.93-75.12-8.35-5.85-18.36-11.82-29.24-11.82ZM398.12,279.72c2.38,45.21-28.06,89.9-90.5,132.9-20.5,14.12-42.59,27.18-65.15,27.18-5.13,0-10.14-.69-14.92-2.06-24.97-7.16-31.01-32.83-28.6-52.64,7.45-61.3,48.14-117.56,87.04-164.6,8.46-10.21,18.01-21.79,31.25-25.39,2.34-.62,4.76-.96,7.21-.96,10.47,0,20.22,5.85,28.38,11.56,24.04,16.84,41.82,45.92,45.29,74.01Z"/>
          <path class="cls-1" d="M67.48,321.61c34.83-35.33,70.64-78.18,72.05-128.01,1.25-43.78-28.3-86.1-73.5-105.29-15.46-6.57-31.99-9.88-48.44-9.88-5.21,0-10.42.33-15.57,1v6.09c20.66-2.82,42.08.02,61.69,8.34,42.94,18.25,71.02,58.25,69.84,99.56-1.35,47.73-36.3,89.44-70.32,123.94-17.52,17.77-37.57,35.71-61.21,54.81v7.71c.89-.71,1.79-1.42,2.67-2.14,24.3-19.57,44.84-37.93,62.8-56.14Z"/>
          <path class="cls-1" d="M112.18,201.84c5.23-41.97-26.09-77.44-59.75-90.77-11.45-4.55-22.86-6.45-33.96-6.45-5.58,0-11.08.49-16.46,1.37v1.52c15.91-2.6,32.86-1.79,49.87,4.95,33.12,13.13,63.96,47.98,58.82,89.19-5.4,43.27-35.87,77.91-67.98,108.88-11.82,11.4-25.45,23.92-40.7,35.98v1.9c15.67-12.29,29.65-25.13,41.73-36.8,32.32-31.16,62.97-66.04,68.43-109.78Z"/>
          <path class="cls-1" d="M325.03,258.11c-13.67,0-28.82,7.63-39.54,19.89-27.79,31.78-37.94,58.6-30.14,79.69,4.13,11.2,12.32,16.88,24.35,16.88,14.03,0,28.92-7.89,34.66-11.29,25.73-15.18,49.17-45.13,43.55-77.9-5.2-17.58-16.88-27.27-32.87-27.27ZM313.6,361.97c-5.64,3.34-20.25,11.08-33.9,11.08-11.33,0-19.06-5.35-22.95-15.89-7.58-20.54,2.47-46.85,29.87-78.18,10.46-11.94,25.17-19.36,38.42-19.36,15.28,0,26.44,9.3,31.42,26.1,5.48,31.97-17.58,61.34-42.85,76.25Z"/>
          <path class="cls-1" d="M79.74,201.66c1.47-31.1-21.72-59.17-53.89-65.29-3.92-.74-7.92-1.12-11.98-1.12s-7.81.35-11.85,1.03v1.53c8.19-1.41,16.01-1.4,23.55.04,31.46,5.98,54.11,33.4,52.69,63.74-1.64,35.01-27.63,63.8-52.83,87.35-7.41,6.92-15.21,14.03-23.4,21.02v1.98c8.57-7.26,16.7-14.69,24.42-21.89,25.42-23.75,51.64-52.83,53.31-88.38Z"/>
          <path class="cls-1" d="M1052.48,184.28c-21.79,17.48-51.63,41.42-50.99,70.53.83,37.35,49.06,51.22,80.98,60.4,2.71.79,5.29,1.53,7.68,2.24,33.36,9.94,83.93,23.23,133.4,22.54,40.15-.55,80.96-12.93,121.28-36.77,46.4-27.44,66.2-58.38,58.82-92.05-15.08-46.59-51.71-126.34-127.62-136.9-4.8-.67-9.71-1-14.59-1-35.74,0-68.54,17.91-98.65,37.27-9.88,6.35-20.1,12.64-30,18.73-25.46,15.67-51.79,31.87-75.33,50.97-1.6,1.31-3.27,2.64-5,4.04ZM1133.59,130.56c9.89-6.09,20.13-12.39,30.02-18.75,29.93-19.23,62.49-37.03,97.84-37.03,4.81,0,9.65.33,14.39.99,75.11,10.44,111.43,89.61,126.39,135.81,7.19,32.87-12.37,63.28-58.15,90.34-40.09,23.71-80.65,36.01-120.54,36.56-1.26.01-2.52.03-3.78.03-48.1,0-96.76-12.85-129.17-22.51-2.39-.71-4.98-1.45-7.69-2.22-31.49-9.06-79.09-22.75-79.9-58.99-.62-28.37,28.88-52.03,50.42-69.32,1.74-1.4,3.41-2.73,5.01-4.04,23.46-19.04,49.75-35.21,75.17-50.86Z"/>
          <path class="cls-1" d="M1735.57,137.07c-9.91,13.2-21.43,34.14-20.1,58.92,1.48,27.31,18.88,47.31,33.88,61.68,11.32,10.84,23.95,20.95,37.67,30.21v-1.83c-13.33-9.06-25.61-18.91-36.64-29.47-14.79-14.19-31.97-33.89-33.41-60.68-1.31-24.32,10.05-44.93,19.8-57.93,14.1-18.8,32.42-33.98,50.25-48.61v-1.95c-18.2,14.92-36.99,30.37-51.44,49.65Z"/>
          <path class="cls-1" d="M36.45,207.7c-.2-9.83-4.47-18.38-12.03-24.03-6.06-4.53-13.67-6.9-21.57-6.9-.28,0-.57.03-.84.03v1.5c7.89-.17,15.51,2.09,21.51,6.58,7.18,5.37,11.24,13.49,11.43,22.85.49,23.39-17.72,42-32.95,56.07v2.05c15.63-14.38,34.97-33.58,34.44-58.15Z"/>
          <path class="cls-1" d="M1125.67,291.73c21.23,7.53,43.99,12.7,67.63,15.38,6.38.73,13.05,1.09,19.81,1.09,40.75,0,93.18-13.65,118.11-51.95,8.88-13.65,12.59-30.5,10.44-47.49-5.1-34.66-22.38-64.74-47.42-82.52-14.43-10.25-30.9-15.46-48.96-15.46h0c-15.8,0-32.58,3.95-49.85,11.75-32.63,14.71-68.45,38.73-98.27,65.88-27.58,25.12-36.52,48.31-25.84,67.08,10.67,18.75,33.46,28.83,54.36,36.23ZM1098.16,189.54c29.71-27.05,65.39-50.96,97.89-65.63,17.08-7.7,33.64-11.61,49.24-11.61h0c17.74,0,33.92,5.1,48.1,15.18,24.7,17.55,41.76,47.25,46.8,81.49,2.11,16.6-1.52,33.11-10.2,46.46-24.61,37.8-76.5,51.26-116.86,51.26-6.7,0-13.31-.36-19.65-1.09-23.53-2.67-46.17-7.82-67.3-15.3-20.63-7.29-43.13-17.23-53.55-35.55-10.43-18.35-1.84-40.28,25.54-65.22Z"/>
          <path class="cls-1" d="M1764.12,203.65c2.67,14.25,10.64,27.62,22.89,38.8v-2.05c-11.43-10.78-18.88-23.5-21.41-37.03-4.31-22.97,8.02-43.97,21.41-59.21v-2.27c-14.05,15.6-27.43,37.55-22.89,61.75Z"/>
          <path class="cls-1" d="M1207.53,260.6c.68.02,1.35.03,2.03.03,17.87,0,33.65-5.58,45.63-16.09,13.07-11.49,13.86-26.29,14.71-41.97l.07-1.34-.02-.1c-5.68-26.16-28.48-35.47-47.92-35.47-5.55,0-11.14.71-16.63,2.12-21.76,5.58-55.45,25.75-58.66,51.35-1,7.99,1.15,15.15,6.39,21.3,13.02,15.24,41.28,19.86,54.41,20.18ZM1148.21,219.32c3.12-24.9,36.19-44.61,57.55-50.09,5.37-1.37,10.84-2.06,16.26-2.06,18.83,0,40.9,8.98,46.43,34.18l-.06,1.13c-.86,16.02-1.6,29.85-14.19,40.91-11.71,10.3-27.14,15.73-44.65,15.73-.66,0-1.32-.01-1.99-.03-12.89-.3-40.63-4.82-53.31-19.65-4.95-5.8-6.99-12.56-6.03-20.12Z"/>
          <path class="cls-1" d="M251.28,64.95c13.29,15.24,35.56,40.76,61.49,39.27,22.54-1.26,39.57-22.31,53.24-39.22,1.26-1.58,2.51-3.11,3.72-4.59l1.71-2.09c15.22-18.55,30.84-37.62,44.89-57.87h-1.83c-13.86,19.87-29.23,38.65-44.2,56.91l-1.71,2.09c-1.22,1.48-2.46,3.01-3.73,4.59-13.49,16.68-30.27,37.45-52.17,38.68-25.2,1.41-47.17-23.74-60.27-38.76-6.81-7.8-13.64-15.79-20.25-23.52-11.32-13.23-22.94-26.82-34.91-40.01h-2.03c12.27,13.49,24.2,27.42,35.81,40.99,6.61,7.73,13.45,15.72,20.25,23.52Z"/>
          <path class="cls-1" d="M903.72,94.26c26.07,6.8,57.37,6.3,95.68-1.51,49.99-10.17,98.07-40.89,142.89-91.27.31-.35.6-.7.91-1.05h-2s-.02.03-.03.03c-44.6,50.14-92.4,80.69-142.07,90.82-38.08,7.76-69.16,8.25-95.01,1.53-13.31-3.47-21.88-9.52-25.47-17.96-1.57-3.69-9.01-22.39-1.57-28.33l.22-.17.06-.26c3.17-15.77,8.74-30.93,15.21-45.66h-1.64c-6.35,14.54-11.81,29.49-14.99,45.09-7.74,6.61-.94,24.54,1.34,29.93,3.78,8.89,12.69,15.22,26.48,18.81Z"/>
          <path class="cls-1" d="M618.39,78.14c19.92,14.5,53.71,9.17,78.53,2.15,51.16-14.47,99.06-42.74,135.49-79.85h-2.12c-36.13,36.4-83.34,64.13-133.77,78.4-24.51,6.93-57.82,12.22-77.25-1.92-10.02-7.31-15.47-19.19-16.2-35.34-.62-13.78.55-27.53,2.61-41.14h-1.51c-2.05,13.61-3.23,27.38-2.6,41.21.74,16.63,6.41,28.91,16.82,36.49Z"/>
          <path class="cls-1" d="M932.19,62.25c21.71,15.48,52.6,13.1,74.69,8.38,41.57-8.9,80.82-33.76,111.05-70.19h-1.97c-29.9,35.65-68.53,59.95-109.4,68.71-21.79,4.66-52.24,7.05-73.51-8.13-19.8-14.12-19.75-38.95-16.22-57.29.22-1.09.45-2.19.69-3.28h-1.53c-.22,1-.43,2-.62,3.01-3.62,18.77-3.63,44.2,16.82,58.8Z"/>
          <path class="cls-1" d="M1002.67,48.56c30.91-2.6,63.58-20.69,87.99-48.13h-2.01c-24.06,26.6-55.94,44.09-86.11,46.63-17.87,1.5-33.43-4.07-43.84-15.67-7.48-8.34-11.58-19.04-12.06-30.96h-1.5c.49,12.29,4.71,23.34,12.46,31.97,10.73,11.96,26.73,17.71,45.08,16.15Z"/>
          <path class="cls-1" d="M319.76,44.67c19.55-4.47,42.62-21.82,59.97-44.23h-1.89c-17.05,21.7-39.44,38.41-58.41,42.77-30.86,7.07-57.87-18.22-77.88-42.77h-1.95c20.32,25.16,48.07,51.6,80.16,44.23Z"/>
          <path class="cls-1" d="M729.75,26.41c21.5-4.07,43.36-13.02,64.18-25.97h-3.2c-19.67,11.98-40.51,20.55-61.26,24.49-38.76,7.35-63.52-.9-73.65-24.49h-1.63c10.27,24.78,35.68,33.53,75.55,25.97Z"/>
          <path class="cls-1" d="M1010.07,16.28c11.23,0,24.63-4.01,36.76-11.01,2.56-1.48,5.03-3.09,7.43-4.84h-2.58c-1.82,1.25-3.69,2.43-5.6,3.53-11.9,6.87-25.03,10.81-36.01,10.81-8.92,0-20.06-2.72-26.52-14.34h-1.74c6.7,12.9,18.71,15.85,28.26,15.85Z"/>
        </g>
      </g>
    </g>
  </g>
</svg>