<?xml version="1.0" encoding="UTF-8"?>
<svg id="Capa_2" data-name="Capa 2" xmlns="http://www.w3.org/2000/svg" viewBox="0 0 157.51 56.83">
  <defs>
    <style>
      .cls-1 {
        fill: #666;
      }
    </style>
  </defs>
  <g id="DISEÑO">
    <g>
      <path class="cls-1" d="M26.91,32.43c-.12.17-.18.36-.18.57,0,.29.09.51.26.68.17.16.41.25.71.25.2,0,.38-.04.56-.12.18-.08.37-.21.57-.4l-1.28-1.52c-.3.2-.51.38-.63.55Z"/>
      <path class="cls-1" d="M27.85,30.56c.33-.2.56-.38.67-.54.12-.16.18-.32.18-.49,0-.2-.06-.35-.19-.48-.13-.12-.3-.18-.51-.18s-.38.06-.5.17c-.12.11-.18.27-.18.47,0,.14.04.29.11.45.07.15.22.35.43.6Z"/>
      <path class="cls-1" d="M28.34,0C12.71,0,0,12.75,0,28.41s12.71,28.41,28.34,28.41,28.34-12.75,28.34-28.41S43.97,0,28.34,0ZM28.26,1.71h.03c.47,0,.94.01,1.4.04l-.07,1.41c-.43-.02-.87-.03-1.31-.03-2.33.09-4.57.42-6.65.96l-.36-1.37c2.19-.57,4.53-.91,6.97-1.01ZM8.42,10.45l1.05.94c-1.76,1.98-3.19,4.26-4.24,6.78l-1.3-.55c1.11-2.66,2.62-5.07,4.49-7.17ZM4.56,40.62c-1.23-2.52-2.06-5.24-2.48-8.08l1.4-.2c.39,2.7,1.19,5.28,2.35,7.66l-1.27.62ZM22.79,54.46c-2.86-.59-5.53-1.57-7.93-2.91l.69-1.23c2.27,1.27,4.8,2.2,7.52,2.76l-.29,1.38ZM37.76,53.38l-.5-1.32c2.51-.96,4.84-2.31,6.93-4.01l.89,1.1c-2.21,1.8-4.67,3.22-7.32,4.23ZM53.47,26.95l1.41-.08c.03.51.04,1.03.04,1.54,0,2.85-.45,5.66-1.33,8.35l-1.34-.44c.84-2.54,1.26-5.21,1.26-7.91,0-.49-.01-.98-.04-1.46ZM28.35,51.71c-12.81,0-23.23-10.45-23.23-23.29S15.54,5.12,28.35,5.12s23.24,10.45,23.24,23.29-10.42,23.29-23.24,23.29ZM48.7,13.55c-1.58-2.18-3.49-4.08-5.67-5.66l.83-1.14c2.3,1.66,4.31,3.67,5.98,5.97l-1.14.83Z"/>
      <path class="cls-1" d="M28.35,5.83C15.93,5.83,5.82,15.96,5.82,28.41c0,3.93,1.01,7.62,2.77,10.84,0,0,0,0,0,0h0c5.01-3.11,14.38-1.62,18.79-.67l-.11-.18c2.63-1.63,5.46-2.76,8.18-3.3-1.15-.17-2.09-.52-2.83-1.06-1.06-.78-1.59-1.89-1.59-3.31v-.08h3.13v.06c0,.56.26,1,.78,1.33.52.32,1.29.49,2.32.49.95,0,1.68-.13,2.17-.41.5-.27.74-.67.74-1.19,0-.43-.18-.77-.53-1-.35-.23-.92-.4-1.71-.49l-2.08-.24c-1.58-.2-2.75-.62-3.49-1.26-.75-.64-1.12-1.56-1.12-2.75,0-1.39.52-2.46,1.57-3.22,1.04-.76,2.47-1.14,4.29-1.14s3.34.38,4.4,1.14c1.06.76,1.59,1.8,1.59,3.14v.11h-3.1v-.08c0-.54-.24-.96-.73-1.25-.49-.29-1.21-.43-2.19-.43-.92,0-1.6.13-2.04.39-.44.26-.66.64-.66,1.12,0,.4.15.71.46.95.31.23.82.39,1.54.46l2.24.27c1.62.18,2.82.61,3.59,1.28.77.68,1.16,1.6,1.16,2.77,0,1.46-.56,2.58-1.69,3.35-.44.31-.95.55-1.53.74,3.19.24,6.01,1.45,8.4,3.62,1.49-3.01,2.33-6.41,2.33-9.99,0-12.45-10.11-22.59-22.53-22.59ZM23.76,34.05c-1.12.78-2.66,1.16-4.6,1.16s-3.39-.39-4.45-1.18c-1.06-.78-1.59-1.89-1.59-3.31v-.08h3.13v.06c0,.56.26,1,.78,1.33.52.32,1.29.49,2.32.49.95,0,1.68-.13,2.17-.41.5-.27.74-.67.74-1.19,0-.43-.18-.77-.53-1-.35-.23-.92-.4-1.71-.49l-2.08-.24c-1.58-.2-2.75-.62-3.49-1.26-.75-.64-1.12-1.56-1.12-2.75,0-1.39.52-2.46,1.57-3.22,1.04-.76,2.47-1.14,4.29-1.14s3.34.38,4.4,1.14c1.06.76,1.59,1.8,1.59,3.14v.11h-3.1v-.08c0-.54-.24-.96-.73-1.25-.49-.29-1.21-.43-2.19-.43-.92,0-1.6.13-2.04.39-.44.26-.66.64-.66,1.12,0,.4.15.71.46.95.31.23.82.39,1.54.46l2.24.27c1.62.18,2.82.61,3.59,1.28.77.68,1.16,1.6,1.16,2.77,0,1.46-.56,2.58-1.69,3.35ZM31.2,32.27l-.97,1.09.1.11c.1.12.2.2.29.24.09.05.2.07.34.07h.21v1.05h-.53c-.23,0-.44-.04-.6-.13-.17-.08-.35-.25-.54-.48l-.03-.03c-.29.28-.59.48-.88.6-.29.12-.61.18-.96.18-.64,0-1.15-.18-1.52-.53-.36-.36-.55-.82-.55-1.39,0-.4.1-.75.31-1.06.21-.31.54-.61.99-.9-.26-.33-.44-.6-.55-.82-.1-.22-.16-.46-.16-.7,0-.49.17-.88.5-1.18.34-.3.77-.45,1.31-.45s.98.15,1.32.45c.34.3.51.69.51,1.18,0,.34-.1.64-.3.91-.2.27-.54.55-1.02.86l1.08,1.25.88-.99.75.69ZM33.13,18.92l-1.09,1.01c-.12.11-.28.13-.43.06-2.22-1.05-4.79-1.11-7.05-.16-.15.06-.33.03-.44-.1l-.98-1.08c-.15-.16-.14-.42.02-.56l.1-.07c3.11-1.49,6.77-1.39,9.8.25.11.06.19.17.2.3.01.13-.03.26-.13.34ZM35.88,15.71l-1.06.97c-.13.12-.32.13-.47.04-3.72-2.31-8.41-2.45-12.24-.36-.16.09-.35.05-.47-.08l-.97-1.06c-.15-.16-.14-.41.02-.56l.07-.05c4.66-2.69,10.57-2.51,15.07.47.1.06.17.18.18.3,0,.12-.04.24-.13.33Z"/>
      <path class="cls-1" d="M38.6,44.12l-1.53-.92c2.16-2.19,5.16-4.12,9.02-5.78-6.91-4.32-14.94-.48-18,1.32.96.22,1.58.39,1.7.42l-.19.68c-.14-.04-14.33-3.9-20.63,0l-.03.02c3.92,6.66,11.15,11.13,19.41,11.13s16.06-4.84,19.87-11.94c-.67-.62-1.36-1.15-2.06-1.59-2.93,1.83-5.53,3.96-7.56,6.65ZM36.31,42.13l-1.83-.92c.6-1.08,3.56-2.77,8.7-5.05-2.45,1.38-5.5,4.24-6.87,5.97ZM39.21,36c-2.66,1.37-4.85,2.7-6.11,3.98l-1.68-.15c1.16-1.17,3.75-2.45,7.79-3.83ZM18.75,47.33c-1.17-2.8-4.5-5.29-8.7-7.65,5.64,2.36,10.01,5.08,12.22,8.42l-3.51-.76ZM24.26,47.96c-1.42-3.29-5.46-6.22-10.55-9,6.84,2.78,12.14,5.98,14.81,9.9l-4.26-.9ZM30.35,48.1c-2.61-3.61-6.89-6.66-12.22-9.34,5.59,1.66,10.74,4.13,14.97,8.27l-2.75,1.07ZM34.51,46.57c-2.42-3.02-6.39-5.57-11.33-7.81,5.19,1.38,9.96,3.45,13.88,6.91l-2.55.9Z"/>
      <polygon class="cls-1" points="72.77 34.74 75.71 34.74 75.71 20.96 72.77 20.96 67.97 28.85 63.11 20.96 60.16 20.96 60.16 34.74 63.11 34.74 63.11 25.95 66.98 32.08 68.96 32.08 72.77 26.01 72.77 34.74"/>
      <path class="cls-1" d="M89.47,22.22c-1.14-1.01-2.71-1.52-4.7-1.52s-3.61.51-4.76,1.52c-1.15,1.01-1.72,2.52-1.72,4.53v2.16c0,2.01.56,3.52,1.69,4.53,1.13,1.01,2.69,1.52,4.7,1.52s3.6-.51,4.76-1.53c1.16-1.02,1.75-2.53,1.75-4.53v-2.16c0-2.01-.57-3.52-1.71-4.53ZM88.23,28.87c0,2.49-1.16,3.74-3.47,3.74-1.19,0-2.07-.31-2.65-.92-.58-.61-.87-1.55-.87-2.82v-1.98c0-1.32.29-2.3.87-2.94.58-.64,1.46-.96,2.65-.96,2.31,0,3.47,1.3,3.47,3.9v1.98Z"/>
      <path class="cls-1" d="M104.96,27.6c.53-.64.8-1.46.8-2.45,0-1.36-.49-2.4-1.47-3.12-.98-.72-2.32-1.08-4.02-1.08h-6.75v13.78h2.95v-5.41h3.08l3.4,5.41h3.51l-3.85-5.73c1.04-.29,1.82-.76,2.35-1.41ZM100.36,27.09h-3.89v-3.86h3.89c.78,0,1.39.16,1.82.48.44.32.65.8.65,1.44,0,1.29-.83,1.94-2.48,1.94Z"/>
      <path class="cls-1" d="M116,20.96h-2.41l-6.37,13.79h3.15l1.13-2.68h6.59l1.13,2.68h3.15l-6.37-13.79ZM112.42,29.89l2.36-5.61,2.39,5.61h-4.75Z"/>
      <polygon class="cls-1" points="136.87 20.96 133.92 20.96 133.92 30.11 126.74 20.96 123.79 20.96 123.79 34.74 126.74 34.74 126.74 25.61 133.92 34.74 136.87 34.74 136.87 20.96"/>
      <path class="cls-1" d="M152.08,28.69v-1.7c0-2.05-.57-3.57-1.7-4.56-1.13-.99-2.73-1.48-4.81-1.48h-6.05v13.79h5.94c2.1,0,3.73-.5,4.88-1.49,1.16-.99,1.73-2.51,1.73-4.57ZM149.13,28.69c0,1.31-.29,2.26-.88,2.87-.58.61-1.48.91-2.7.91h-3.08v-9.23h3.08c1.22,0,2.12.31,2.7.93.59.62.88,1.61.88,2.97v1.56Z"/>
      <rect class="cls-1" x="154.56" y="20.96" width="2.95" height="13.78"/>
      <path class="cls-1" d="M59.66,38.12l-2.62,5.81h.85l.64-1.45h3.08l.64,1.45h.87l-2.63-5.81h-.82ZM58.82,41.81l1.25-2.85,1.25,2.85h-2.5Z"/>
      <path class="cls-1" d="M67.26,40.21c-.18-.24-.41-.42-.7-.54-.28-.12-.59-.18-.92-.18-.42,0-.8.09-1.14.26-.34.18-.61.43-.8.75-.19.32-.29.69-.29,1.11s.1.78.29,1.11c.19.32.46.58.8.76.34.18.72.27,1.14.27.32,0,.62-.06.89-.17.27-.11.5-.28.69-.51v.35c0,.5-.12.87-.37,1.11-.25.24-.63.37-1.14.37-.32,0-.63-.05-.93-.15-.3-.1-.55-.24-.76-.42l-.38.61c.23.21.53.37.91.49.37.11.77.17,1.18.17.76,0,1.32-.19,1.7-.55.38-.37.57-.94.57-1.71v-3.8h-.75v.68ZM67.04,42.35c-.13.22-.31.39-.54.51s-.49.18-.77.18-.55-.06-.78-.18c-.23-.12-.41-.29-.54-.51-.13-.22-.19-.47-.19-.74,0-.43.14-.77.42-1.03.28-.26.65-.39,1.09-.39s.8.13,1.08.39c.28.26.42.61.42,1.03,0,.28-.07.52-.19.74Z"/>
      <path class="cls-1" d="M70.29,40.26v-.74h-.76v4.4h.79v-2.19c0-.47.12-.84.37-1.1.25-.26.58-.39,1.01-.39.08,0,.14,0,.18,0v-.77c-.39,0-.71.07-.98.2-.27.13-.47.33-.61.58Z"/>
      <path class="cls-1" d="M73.26,37.64c-.16,0-.28.05-.39.15-.1.1-.15.23-.15.37s.05.27.15.37.23.15.39.15.28-.05.38-.15c.1-.1.15-.23.15-.38s-.05-.26-.15-.36c-.1-.1-.23-.14-.38-.14Z"/>
      <rect class="cls-1" x="72.86" y="39.53" width=".79" height="4.4"/>
      <path class="cls-1" d="M76.3,40.37c.23-.13.49-.19.77-.19.25,0,.47.05.68.16.2.11.38.26.51.47l.6-.39c-.17-.3-.41-.54-.72-.7-.31-.16-.67-.24-1.06-.24-.45,0-.85.09-1.2.29-.35.19-.63.46-.82.8-.2.34-.3.73-.3,1.16s.1.82.3,1.16c.2.34.47.61.82.8.35.19.75.29,1.2.29.4,0,.75-.08,1.06-.24.31-.16.55-.4.72-.7l-.6-.38c-.14.21-.31.37-.51.47-.2.1-.43.16-.68.16-.29,0-.55-.06-.77-.19-.23-.13-.41-.31-.54-.54-.13-.24-.19-.51-.19-.82s.06-.57.19-.81c.13-.24.31-.42.54-.54Z"/>
      <path class="cls-1" d="M83.19,41.8c0,.46-.12.82-.36,1.08-.24.25-.57.38-.99.38-.38,0-.67-.11-.88-.33-.2-.22-.31-.54-.31-.97v-2.44h-.79v2.53c0,.63.17,1.11.5,1.43.34.32.8.49,1.38.49.31,0,.59-.06.86-.19.26-.13.47-.3.63-.53v.66h.75v-4.4h-.79v2.27Z"/>
      <rect class="cls-1" x="85.5" y="37.77" width=".79" height="6.16"/>
      <path class="cls-1" d="M89.52,43.3c-.22,0-.39-.06-.51-.19-.12-.13-.18-.31-.18-.55v-2.38h1.26v-.66h-1.26v-.96h-.79v.96h-.75v.66h.75v2.41c0,.44.12.78.36,1.02.24.24.58.36,1.03.36.18,0,.36-.03.53-.08.17-.05.32-.13.43-.23l-.25-.57c-.17.14-.38.21-.62.21Z"/>
      <path class="cls-1" d="M94.64,41.8c0,.46-.12.82-.36,1.08-.24.25-.57.38-.99.38-.38,0-.67-.11-.88-.33-.2-.22-.31-.54-.31-.97v-2.44h-.79v2.53c0,.63.17,1.11.5,1.43.34.32.8.49,1.38.49.31,0,.59-.06.86-.19.26-.13.47-.3.63-.53v.66h.75v-4.4h-.79v2.27Z"/>
      <path class="cls-1" d="M97.71,40.26v-.74h-.76v4.4h.79v-2.19c0-.47.12-.84.37-1.1.24-.26.58-.39,1.01-.39.08,0,.14,0,.18,0v-.77c-.39,0-.71.07-.98.2-.27.13-.47.33-.61.58Z"/>
      <path class="cls-1" d="M101.87,39.48c-.35,0-.69.05-1,.15-.31.1-.58.24-.81.42l.33.6c.17-.14.38-.26.63-.34.25-.09.5-.13.76-.13.39,0,.68.09.88.27.2.18.3.45.3.79v.16h-1.26c-.61,0-1.06.12-1.34.35-.28.23-.42.55-.42.93s.15.7.44.94c.29.24.69.36,1.18.36.34,0,.63-.06.87-.16.25-.11.43-.26.57-.47v.58h.75v-2.66c0-.59-.16-1.04-.48-1.34-.32-.3-.79-.45-1.4-.45ZM102.96,42.58c-.1.25-.26.44-.48.58-.22.14-.48.2-.79.2s-.54-.06-.71-.19c-.17-.13-.26-.3-.26-.52,0-.45.34-.68,1.01-.68h1.22v.61Z"/>
      <path class="cls-1" d="M110.8,40.19c-.18-.23-.4-.41-.66-.53-.26-.12-.55-.18-.87-.18-.43,0-.81.09-1.14.28-.34.19-.6.45-.79.79-.19.34-.28.73-.28,1.17s.1.83.28,1.17c.19.34.45.6.79.79.34.19.72.28,1.14.28.32,0,.62-.06.89-.19.27-.13.49-.31.67-.56v.7h.76v-6.16h-.79v2.42ZM110.61,42.53c-.13.24-.3.42-.53.55-.23.13-.48.19-.75.19s-.53-.06-.76-.19c-.22-.13-.4-.31-.53-.55-.13-.24-.19-.51-.19-.81s.07-.57.19-.81c.13-.23.31-.42.53-.54.22-.13.48-.19.76-.19s.53.06.75.19c.23.13.4.31.53.54.13.24.19.51.19.81s-.06.57-.19.81Z"/>
      <path class="cls-1" d="M116.02,39.77c-.33-.19-.7-.29-1.12-.29s-.8.1-1.13.29c-.33.19-.6.46-.79.8-.19.34-.29.73-.29,1.15s.1.82.29,1.16c.2.34.47.61.83.8.36.19.77.29,1.23.29.36,0,.69-.06.99-.18.29-.12.54-.3.74-.53l-.44-.51c-.32.35-.74.53-1.27.53-.43,0-.79-.12-1.08-.35-.29-.24-.46-.55-.51-.93h3.56c.01-.1.02-.18.02-.24,0-.44-.09-.84-.28-1.18-.19-.34-.44-.61-.77-.8ZM113.49,41.42c.04-.38.19-.68.45-.91.26-.23.58-.35.96-.35s.7.12.96.35c.26.24.41.54.45.91h-2.81Z"/>
      <path class="cls-1" d="M124.54,38.66c-.43-.36-1.02-.54-1.77-.54h-2.26v5.81h.83v-1.76h1.43c.75,0,1.34-.18,1.77-.54.43-.36.64-.85.64-1.48s-.21-1.13-.64-1.49ZM123.94,41.11c-.28.22-.68.34-1.2.34h-1.41v-2.61h1.41c.52,0,.92.11,1.2.34.28.22.41.55.41.97s-.14.74-.41.97Z"/>
      <path class="cls-1" d="M126.97,40.26v-.74h-.76v4.4h.79v-2.19c0-.47.12-.84.37-1.1.24-.26.58-.39,1.01-.39.08,0,.14,0,.18,0v-.77c-.39,0-.71.07-.98.2-.27.13-.47.33-.61.58Z"/>
      <path class="cls-1" d="M132.42,39.77c-.33-.19-.7-.29-1.12-.29s-.8.1-1.13.29c-.33.19-.6.46-.79.8-.19.34-.29.73-.29,1.15s.1.82.29,1.16c.2.34.47.61.83.8.36.19.77.29,1.23.29.36,0,.69-.06.99-.18.29-.12.54-.3.74-.53l-.44-.51c-.32.35-.74.53-1.27.53-.43,0-.79-.12-1.08-.35-.29-.24-.46-.55-.51-.93h3.56c.01-.1.02-.18.02-.24,0-.44-.09-.84-.28-1.18-.19-.34-.44-.61-.77-.8ZM129.89,41.42c.04-.38.19-.68.45-.91.26-.23.58-.35.96-.35s.7.12.96.35c.26.24.41.54.45.91h-2.81Z"/>
      <path class="cls-1" d="M135.7,40.37c.23-.13.49-.19.77-.19.25,0,.47.05.68.16.2.11.38.26.51.47l.6-.39c-.17-.3-.41-.54-.72-.7-.31-.16-.67-.24-1.06-.24-.45,0-.85.09-1.2.29-.35.19-.63.46-.82.8-.2.34-.3.73-.3,1.16s.1.82.3,1.16c.2.34.47.61.82.8.35.19.75.29,1.2.29.4,0,.75-.08,1.06-.24.31-.16.55-.4.72-.7l-.6-.38c-.14.21-.31.37-.51.47-.2.1-.43.16-.68.16-.29,0-.55-.06-.77-.19-.23-.13-.41-.31-.54-.54-.13-.24-.19-.51-.19-.82s.06-.57.19-.81c.13-.24.31-.42.54-.54Z"/>
      <path class="cls-1" d="M139.69,37.64c-.15,0-.28.05-.38.15-.1.1-.15.23-.15.37s.05.27.15.37c.1.1.23.15.38.15s.28-.05.38-.15c.1-.1.15-.23.15-.38s-.05-.26-.15-.36c-.1-.1-.23-.14-.38-.14Z"/>
      <rect class="cls-1" x="139.29" y="39.53" width=".79" height="4.4"/>
      <path class="cls-1" d="M143.97,41.62c-.22-.07-.5-.13-.86-.2-.26-.05-.47-.09-.62-.13-.15-.04-.27-.1-.37-.18-.1-.08-.15-.2-.15-.34,0-.18.09-.33.26-.44.18-.11.43-.17.77-.17.49,0,.91.12,1.27.35l.34-.63c-.19-.12-.43-.22-.72-.29-.29-.07-.58-.11-.88-.11-.56,0-1,.12-1.33.36-.33.24-.5.56-.5.96,0,.31.08.55.24.72.16.17.35.29.57.37.22.07.51.14.87.19.26.04.46.08.6.12.14.04.26.09.35.17.09.08.14.18.14.32,0,.4-.35.6-1.04.6-.28,0-.56-.04-.84-.13-.28-.08-.51-.19-.7-.33l-.33.63c.19.15.45.27.78.37.33.1.68.15,1.03.15.58,0,1.05-.12,1.39-.35.34-.23.51-.55.51-.95,0-.3-.08-.53-.23-.7-.15-.17-.34-.28-.56-.35Z"/>
      <path class="cls-1" d="M146.15,37.64c-.15,0-.28.05-.38.15-.1.1-.15.23-.15.37s.05.27.15.37c.1.1.23.15.38.15s.28-.05.38-.15c.1-.1.15-.23.15-.38s-.05-.26-.15-.36c-.1-.1-.23-.14-.38-.14Z"/>
      <rect class="cls-1" x="145.75" y="39.53" width=".79" height="4.4"/>
      <polygon class="cls-1" points="149.31 38.89 150.05 38.89 151.45 37.81 150.44 37.81 149.31 38.89"/>
      <path class="cls-1" d="M151.11,39.77c-.34-.19-.74-.29-1.17-.29s-.83.1-1.17.29c-.35.19-.62.46-.82.8-.2.34-.29.73-.29,1.16s.1.82.29,1.16c.2.34.47.61.82.8.35.19.74.29,1.17.29s.83-.1,1.17-.29c.35-.19.62-.46.81-.8.19-.34.29-.73.29-1.16s-.1-.82-.29-1.16c-.2-.34-.47-.6-.81-.8ZM151.22,42.53c-.13.24-.3.42-.53.55-.22.13-.48.19-.76.19s-.53-.06-.76-.19c-.22-.13-.4-.31-.53-.55-.13-.24-.19-.5-.19-.81s.07-.57.19-.81c.13-.23.31-.42.53-.54.22-.13.48-.19.76-.19s.53.06.76.19c.22.13.4.31.53.54.13.24.19.51.19.81s-.06.57-.19.81Z"/>
      <path class="cls-1" d="M155.66,39.48c-.35,0-.66.06-.93.18-.27.12-.49.3-.65.52v-.66h-.76v4.4h.79v-2.27c0-.47.12-.83.37-1.08.25-.25.59-.38,1.02-.38.38,0,.67.11.88.32.2.22.31.54.31.96v2.44h.79v-2.53c0-.63-.16-1.1-.49-1.42-.33-.32-.77-.49-1.33-.49Z"/>
    </g>
  </g>
</svg>