<?xml version="1.0" encoding="UTF-8"?>
<svg id="Capa_2" data-name="Capa 2" xmlns="http://www.w3.org/2000/svg" viewBox="0 0 68.8 53.3">
  <defs>
    <style>
      .cls-1 {
        fill: #282828;
      }
    </style>
  </defs>
  <g id="DISEÑO">
    <g>
      <path class="cls-1" d="M64.46,34.39c1.16-2.28,2.34-4.54,3.46-6.83,1.09-2.23-.14-4.61-2.59-4.94-5.58-.75-11.17-1.42-16.75-2.13-1.05-.13-2.1-.27-3.18-.41,0-3.4,0-6.69,0-9.98,0-1.48.61-2.19,2.06-2.42.81-.13,1.23-.59,1.17-1.26-.07-.68-.58-1.05-1.39-1.01-2.25.1-4.09,1.96-4.12,4.25-.03,3.1-.01,6.21-.01,9.31,0,.26,0,.51,0,.84-1.48-.18-2.87-.37-4.26-.52-.48-.05-.67-.25-.79-.72-1.4-5.05-2.83-10.1-4.25-15.15-.1-.35-.19-.71-.3-1.13.67,0,1.24.02,1.81,0,.71-.03,1.21-.53,1.19-1.17-.02-.61-.5-1.07-1.18-1.11-.19-.01-.38,0-.57,0H9.12c-.19,0-.38,0-.57,0-.68.04-1.16.5-1.18,1.11-.02.64.47,1.14,1.18,1.17.47.02.94,0,1.43,0-.04.31-.06.52-.1.73-1.07,5.48-2.2,10.94-3.15,16.44-.21,1.2-.75,1.71-1.69,2.28-1.42.86-2.71,1.94-4,2.99-.59.48-.59,1.15-.15,1.65.46.52,1.11.52,1.71,0,.11-.09.21-.2.31-.29,9.57-9.04,25.42-4.34,28.48,8.46.14.58.21,1.17.36,1.75.17.64.68.97,1.28.86.63-.12.94-.53.93-1.16,0-.21-.03-.43-.06-.64-1.07-5.85-4.15-10.32-9.18-13.47-.19-.12-.37-.25-.69-.46h12.1v23h-7.94c.09-.24.15-.42.22-.59.95-2.46,1.19-5,.78-7.6-1.23-7.95-8.82-13.39-16.92-12.13C4.44,25.31-1.1,33,.18,40.9c.94,5.81,5.32,10.59,10.95,11.97,5.81,1.42,11.82-.73,15.36-5.54.33-.45.66-.58,1.19-.57,3.13.02,6.25.02,9.38,0,1.04,0,1.41-.4,1.43-1.44,0-.4,0-.8,0-1.24h9.44c1.14,5.37,4.27,8.7,9.86,9.18,4.19.36,8.21-2.03,9.91-5.87,2.28-5.11.88-9.42-3.25-13ZM19.01,19.08c-3.36.04-6.72-.22-10.11.94,1.16-5.97,2.29-11.8,3.43-17.68h6.67v16.75ZM21.39,19.05V2.33h9.72c1.56,5.54,3.12,11.09,4.71,16.72h-14.43ZM14.67,51.01c-6.84-.01-12.4-5.63-12.37-12.5.03-6.82,5.63-12.34,12.47-12.31,6.85.04,12.34,5.59,12.32,12.45-.02,6.83-5.59,12.37-12.43,12.36ZM38.56,41.71v-20.15c1.55.19,3.08.37,4.61.56,5.2.65,10.41,1.31,15.61,1.96,1.99.25,3.98.49,5.96.75,1.2.16,1.57.85,1.04,1.91-1.03,2.04-2.07,4.08-3.12,6.12-.07.14-.17.28-.27.43-3.22-1.21-6.34-1.11-9.3.66-2.93,1.75-4.57,4.38-5.09,7.77h-9.45ZM58.37,51.01c-4.47,0-8.1-3.63-8.1-8.11,0-4.52,3.62-8.12,8.16-8.11,4.41,0,8.04,3.66,8.05,8.1,0,4.45-3.65,8.11-8.11,8.12Z"/>
      <path class="cls-1" d="M42.54,25.51c-.63,0-1.1.46-1.13,1.13-.03.55,0,1.09,0,1.64h0c0,.5,0,1,0,1.5,0,.05,0,.1,0,.14.04.69.47,1.15,1.1,1.17.63.02,1.15-.42,1.17-1.09.04-1.14.04-2.29,0-3.43-.02-.63-.54-1.07-1.13-1.07Z"/>
      <path class="cls-1" d="M47.01,26.63c-.03-.65-.47-1.09-1.07-1.12-.58-.03-1.15.39-1.18,1.01-.05,1.19-.05,2.38,0,3.57.03.63.58,1.03,1.17,1.01.6-.03,1.04-.46,1.07-1.11.03-.55,0-1.09,0-1.64,0-.57.02-1.14,0-1.71Z"/>
      <path class="cls-1" d="M49.2,25.51c-.59,0-1.06.44-1.1,1.09-.04.54,0,1.09,0,1.64,0,.59-.03,1.19,0,1.78.04.65.5,1.07,1.1,1.08.6,0,1.11-.4,1.13-1.04.05-1.16.04-2.33,0-3.49-.02-.64-.54-1.06-1.13-1.05Z"/>
      <path class="cls-1" d="M14.78,30.42c-4.45-.08-8.15,3.56-8.23,8.08-.07,4.46,3.51,8.17,7.97,8.25,4.57.08,8.3-3.53,8.35-8.1.05-4.45-3.59-8.15-8.1-8.23ZM14.68,44.46c-3.25-.01-5.85-2.63-5.83-5.89.02-3.24,2.67-5.88,5.89-5.86,3.22.02,5.88,2.7,5.85,5.91-.03,3.24-2.66,5.85-5.91,5.84Z"/>
      <path class="cls-1" d="M58.31,36.96c-3.26.02-5.88,2.68-5.88,5.95,0,3.25,2.67,5.92,5.92,5.93,3.26,0,5.97-2.71,5.96-5.97-.01-3.28-2.7-5.93-6-5.91ZM58.35,46.55c-1.99,0-3.63-1.65-3.63-3.65,0-2.02,1.61-3.64,3.62-3.65,2.04,0,3.7,1.65,3.68,3.67-.02,1.99-1.68,3.64-3.67,3.63Z"/>
    </g>
  </g>
</svg>