<?xml version="1.0" encoding="UTF-8"?>
<svg id="Capa_2" data-name="Capa 2" xmlns="http://www.w3.org/2000/svg" viewBox="0 0 61.76 67">
  <defs>
    <style>
      .cls-1 {
        fill: #282828;
      }
    </style>
  </defs>
  <g id="DISEÑO">
    <g>
      <path class="cls-1" d="M57.98,44.79c-1.53-.7-3.05-.56-4.53.2-2.71,1.39-5.42,2.79-8.14,4.18-.71.37-1.43.73-2.16,1.1-1.14-1.14-2.52-1.52-4.08-1.48-1.83.04-3.67-.05-5.5.03-1.06.05-1.91-.17-2.59-1.01-.25-.3-.59-.52-.9-.76-2.43-1.92-5.12-3.15-8.28-3.07-1.98.05-3.89.51-5.71,1.26-1.16.48-2.33.67-3.57.63-.35-.01-.53-.12-.69-.44-.66-1.31-1.77-1.94-3.22-1.96-1.66-.01-3.32-.01-4.97,0-2.13.02-3.61,1.5-3.62,3.64,0,4.47,0,8.94,0,13.41,0,2.15,1.47,3.61,3.62,3.62,1.66,0,3.32,0,4.97,0,1.5,0,2.57-.68,3.27-1.99.08-.15.25-.37.37-.36,1.17.02,2.38-.09,3.51.17,2.76.63,5.47,1.44,8.21,2.16,3.61.96,7.23,1.92,10.85,2.88h2.09c.35-.09.71-.18,1.06-.28,2.52-.71,4.51-2.32,6.55-3.85.2-.15.32-.47.37-.73.11-.54-.12-.99-.59-1.28-.5-.3-1-.26-1.48.06-1.13.77-2.25,1.58-3.4,2.33-1.76,1.15-3.66,1.39-5.7.83-4.32-1.2-8.66-2.35-12.99-3.52-2.75-.74-5.46-1.69-8.38-1.42-.03,0-.07-.04-.14-.07v-10.51c.1-.03.18-.08.26-.07,1.89.17,3.6-.46,5.33-1.08,2.34-.85,4.74-1.16,7.17-.29,1.87.66,3.42,1.81,4.83,3.17.84.81,1.79,1.16,2.95,1.14,2.29-.03,4.58-.02,6.87,0,1.45.01,2.48,1.23,2.24,2.6-.19,1.11-1.14,1.84-2.43,1.84-3.69,0-7.37,0-11.06,0-.96,0-1.54.5-1.54,1.3,0,.77.59,1.31,1.49,1.31,3.8,0,7.59.04,11.39-.01,2.93-.04,5.05-2.46,4.76-5.38-.04-.44.09-.6.45-.78,3.2-1.63,6.4-3.28,9.6-4.92.31-.16.64-.3.97-.37,1.54-.33,2.87.91,2.44,2.37-.17.58-.63,1.15-1.12,1.53-1.41,1.1-2.9,2.09-4.35,3.14-.64.46-.75,1.26-.31,1.85.42.56,1.19.71,1.81.27,1.63-1.14,3.28-2.24,4.83-3.47,2.79-2.21,2.33-6.5-.81-7.92ZM9.56,60.31c0,.99-.23,1.21-1.24,1.21-1.52,0-3.05,0-4.57,0-.85,0-1.13-.28-1.13-1.14,0-4.38,0-8.75,0-13.13,0-.88.29-1.16,1.18-1.17,1.52,0,3.05,0,4.57,0,.92,0,1.18.28,1.18,1.22,0,2.18,0,4.36,0,6.53,0,2.16,0,4.31,0,6.47Z"/>
      <path class="cls-1" d="M61.76,19.94c0-2.01-1.12-3.17-3.13-3.22-.43-.01-.53-.2-.66-.54-.39-1.01-.79-2.03-1.25-3.01-.2-.42-.14-.63.16-.94,1.27-1.31,1.24-3-.04-4.3-.99-1.01-2-2.01-3.01-3.01-1.33-1.3-3.01-1.31-4.35,0-.31.31-.53.29-.89.12-.97-.45-1.95-.86-2.95-1.23-.43-.16-.61-.32-.61-.81-.01-1.82-1.24-2.99-3.07-3-1.4,0-2.79,0-4.19,0-1.87,0-3.08,1.17-3.1,3.04,0,.47-.18.62-.58.76-1,.37-1.99.76-2.95,1.22-.4.19-.62.19-.95-.13-1.32-1.3-3.01-1.27-4.35.04-.96.95-1.92,1.91-2.87,2.87-1.42,1.43-1.46,3.05-.08,4.49.29.3.25.51.1.85-.44.97-.88,1.94-1.23,2.95-.17.48-.37.62-.86.63-1.66.02-2.9,1.19-2.95,2.79-.05,1.59-.04,3.18,0,4.78.03,1.35,1,2.48,2.3,2.75.4.08.82.07,1.21.1.52,1.21,1,2.38,1.53,3.52.18.38.16.59-.14.89-1.31,1.34-1.29,3.03.02,4.35.97.98,1.94,1.95,2.91,2.91,1.4,1.39,3.02,1.42,4.45.06.29-.28.5-.28.85-.12,1.01.46,2.03.9,3.07,1.27.41.15.51.34.51.75.03,1.85,1.23,3.04,3.1,3.05,1.35.01,2.7,0,4.06,0,2,0,3.16-1.13,3.21-3.14,0-.38.16-.51.48-.63,1.05-.41,2.11-.83,3.13-1.3.38-.17.57-.1.84.16,1.38,1.32,3.03,1.3,4.4-.05.98-.97,1.95-1.94,2.91-2.91,1.34-1.35,1.35-3.02.02-4.4-.27-.28-.3-.48-.14-.84.46-1.01.89-2.03,1.27-3.07.15-.4.32-.52.74-.52,1.86-.02,3.04-1.24,3.06-3.1,0-1.35,0-2.7,0-4.06ZM43.67,29.53c-.94.4-1.27.97-1.26,1.95.03,2.99,0,5.97.02,8.96,0,.61-.19.8-.79.78-1.18-.04-2.36-.04-3.53,0-.65.02-.87-.16-.87-.84.03-2.99,0-5.97.03-8.96.01-.96-.35-1.5-1.24-1.89-3.31-1.47-5.21-4.06-5.47-7.67-.24-3.31,1.13-5.97,3.82-7.93.08-.06.17-.11.34-.21,0,.23,0,.37,0,.51.02,2.37-.08,4.76.1,7.12.19,2.51,2.38,4.54,4.89,4.63,2.43.08,4.76-1.83,5.17-4.48.11-.73.1-1.48.1-2.22.01-1.82,0-3.65,0-5.56,1.93,1.25,3.18,2.92,3.81,5.03,1.3,4.36-.89,8.99-5.12,10.78ZM59.15,23.97c0,.4-.19.54-.56.53-.44-.01-.87-.01-1.31,0-.8.02-1.23.33-1.43,1.08-.45,1.79-1.14,3.47-2.1,5.05-.39.65-.31,1.17.21,1.72.31.33.64.66.97.97.27.26.31.49.03.77-.98.96-1.95,1.93-2.92,2.91-.28.28-.51.28-.77,0-.24-.26-.49-.5-.74-.74-.83-.83-1.23-.85-2.25-.3-1.01.55-2.05,1.03-3.24,1.62,0-1.95-.01-3.69.02-5.43,0-.19.24-.44.43-.55,3.42-1.87,5.47-4.72,6.16-8.54.8-4.46-1.58-9.48-5.52-11.7-.28-.16-.59-.29-.9-.38-1.42-.43-2.61.3-2.82,1.78-.09.62-.04,1.26-.04,1.89,0,1.92.01,3.84-.01,5.76,0,.41-.07.83-.21,1.21-.36,1.02-1.47,1.82-2.38,1.76-1.04-.06-2.1-.99-2.34-2.08-.08-.34-.1-.69-.1-1.04,0-2.2.04-4.4.04-6.61,0-.41-.05-.83-.16-1.23-.34-1.23-1.4-1.84-2.63-1.48-1.59.47-2.77,1.55-3.82,2.76-4.88,5.59-3.27,14.31,3.29,17.79.49.26.62.54.61,1.05-.03,1.61-.01,3.21-.01,5.01-1.11-.54-2.12-.98-3.08-1.51-1.23-.67-1.53-.65-2.51.31-1.2,1.18-.87,1.15-2.06-.01-.75-.73-1.47-1.49-2.23-2.22-.31-.3-.31-.53,0-.82.34-.31.65-.64.97-.97.48-.5.59-1.08.22-1.67-.98-1.59-1.68-3.29-2.13-5.1-.18-.73-.62-1.04-1.37-1.07-.46-.02-.92-.02-1.37,0-.39.01-.55-.15-.55-.54,0-1.37,0-2.75,0-4.12,0-.37.17-.51.52-.51.48,0,.96.02,1.44,0,.76-.04,1.16-.35,1.35-1.1.44-1.77,1.12-3.43,2.07-4.99.43-.7.34-1.21-.24-1.83-.32-.33-.68-.62-.95-.99-.11-.14-.11-.52,0-.64.98-1.03,1.98-2.03,3.01-3.01.11-.11.5-.08.64.03.39.31.72.7,1.08,1.04.49.46,1.04.55,1.62.2,1.61-.99,3.33-1.7,5.17-2.15.69-.17,1-.66,1.02-1.34.02-.46.02-.92,0-1.37-.01-.37.12-.56.52-.56,1.37.01,2.75,0,4.12,0,.36,0,.52.14.52.5,0,.46-.01.92,0,1.37.03.79.34,1.23,1.1,1.42,1.79.45,3.47,1.14,5.04,2.1.64.39,1.16.3,1.72-.22.33-.31.66-.64.97-.97.26-.28.48-.3.77-.02.96.98,1.94,1.95,2.92,2.91.28.28.27.5,0,.77-.33.31-.66.64-.97.97-.52.56-.61,1.08-.22,1.72.96,1.58,1.65,3.26,2.1,5.05.19.74.59,1.05,1.35,1.09.46.02.92.02,1.37,0,.37,0,.58.11.57.52,0,1.37,0,2.75,0,4.12Z"/>
      <path class="cls-1" d="M48.4,57.24c-.72,0-1.31.61-1.3,1.34.02.71.58,1.26,1.3,1.26.74,0,1.33-.6,1.31-1.32-.02-.69-.62-1.27-1.31-1.27Z"/>
    </g>
  </g>
</svg>