<?xml version="1.0" encoding="UTF-8"?>
<svg id="Capa_2" data-name="Capa 2" xmlns="http://www.w3.org/2000/svg" viewBox="0 0 188.93 27.02">
  <defs>
    <style>
      .cls-1 {
        fill: #666;
      }
    </style>
  </defs>
  <g id="DISEÑO">
    <g>
      <path class="cls-1" d="M158.62,16.5c-.19-.28-.31-.45-.42-.62-1.96-3.1-3.93-6.19-5.87-9.3-.23-.37-.46-.53-.91-.52-1.51.03-3.02.01-4.53.01-.2,0-.39.02-.59.03v20.84h6.22v-10.24s.09-.02.13-.03c.16.26.33.51.49.77,1.76,2.77,3.57,5.51,5.24,8.32.58.97,1.2,1.34,2.31,1.26,1.37-.11,2.76-.03,4.17-.03V6.11h-6.25v10.38Z"/>
      <path class="cls-1" d="M53.86,16.1c-.11-.06-.21-.15-.32-.24,1.57-1.16,2.14-1.87,2.36-3.38.41-2.77-.53-4.98-3.41-5.88-.96-.3-2-.47-3-.49-3.35-.07-6.69-.04-10.04-.04-.16,0-.31.02-.5.03v20.85c.14.02.22.03.3.03,3.35,0,6.7.03,10.04-.01,1.43-.02,2.83-.3,4.15-.93,2.01-.97,3.02-2.61,3.14-4.8.12-2.24-.66-4.03-2.71-5.14ZM45.04,10.95c1.19,0,2.33-.06,3.46.02.82.06,1.21.66,1.19,1.5-.02.81-.42,1.37-1.21,1.43-1.13.08-2.26.02-3.44.02v-2.96ZM48.97,22.05c-1.29.15-2.59.15-3.93.22v-3.95c1.34.06,2.64.06,3.92.21.92.11,1.31.78,1.3,1.78,0,.96-.42,1.63-1.3,1.73Z"/>
      <path class="cls-1" d="M77.78,13.12c.09-3.43-1.53-5.7-4.82-6.6-.95-.26-1.97-.4-2.96-.42-3.04-.06-6.08-.03-9.12-.04-.2,0-.39.02-.59.03v20.85h6.24v-6.67c.65,0,1.24.03,1.82,0,.39-.02.58.13.74.47.81,1.67,1.71,3.29,2.44,4.99.43,1,1,1.36,2.09,1.29,1.76-.11,3.54-.03,5.42-.03-1.47-2.72-2.89-5.36-4.33-8.02,2.11-1.42,3.01-3.41,3.07-5.85ZM71.44,13.51c-.11,1.07-.63,1.72-1.71,1.82-1.02.1-2.07.02-3.18.02v-4.33c1.26-.02,2.52-.19,3.74.23.86.29,1.26,1.15,1.15,2.26Z"/>
      <path class="cls-1" d="M88.95,18.98h8.38v-5.13h-8.39v-2.61h8.95v-5.13h-15.52v20.83h15.34c.29-1.7.58-3.36.88-5.1h-9.64v-2.86Z"/>
      <path class="cls-1" d="M136.5,6.59c-.14-.44-.35-.54-.77-.54-2.35.02-4.69.02-7.04,0-.47,0-.66.15-.8.59-1.77,5.48-3.56,10.95-5.34,16.42-.42,1.29-.83,2.58-1.25,3.9h6.59c.26-.97.53-1.93.77-2.9.09-.36.26-.48.63-.48,1.88.02,3.76.02,5.63,0,.36,0,.5.12.58.45.21.83.48,1.64.68,2.47.09.37.25.49.62.48.96-.03,1.92,0,2.88,0h3.35c-.08-.3-.13-.54-.2-.77-2.11-6.54-4.23-13.08-6.33-19.62ZM130.22,18.37c.61-2.21,1.21-4.39,1.81-6.57.04,0,.08,0,.12.01.59,2.17,1.19,4.33,1.8,6.56h-3.74Z"/>
      <path class="cls-1" d="M122.18,6.09c-.24-.01-.4-.03-.56-.03-1.98,0-3.96.01-5.94-.01-.43,0-.58.13-.68.55-1.03,4.21-2.08,8.42-3.13,12.62-.03.11-.09.22-.18.44-.17-.69-.31-1.24-.45-1.79-.93-3.75-1.88-7.5-2.78-11.26-.11-.47-.31-.58-.74-.56-.57.03-1.14,0-1.71,0h-4.85c.06.23.09.34.12.46,2,6.64,4.01,13.29,6,19.93.12.4.28.54.71.54,2.41-.02,4.82-.03,7.23,0,.5,0,.69-.13.84-.62,1.8-5.98,3.63-11.95,5.45-17.93.23-.77.46-1.54.7-2.36Z"/>
      <path class="cls-1" d="M186.83,6.09h-18.26v5.75h5.82v15.09h6.69v-15.13h5.75v-5.72Z"/>
      <path class="cls-1" d="M22.49.13c-2.26,0-4.4.01-6.55-.01-.45,0-.64.15-.76.57-2.63,8.55-5.27,17.1-7.9,25.65-.06.18-.09.37-.16.61,2.22,0,4.34-.02,6.46.01.52,0,.69-.18.83-.64,2.14-6.96,4.29-13.91,6.44-20.87.54-1.74,1.07-3.49,1.63-5.32Z"/>
      <path class="cls-1" d="M24.07,10.85c-.46,0-.62.15-.74.57-1.15,3.84-2.33,7.67-3.5,11.5-.4,1.32-.8,2.63-1.23,4.03h.68c1.94,0,3.88-.02,5.82.01.52,0,.7-.18.83-.64,1.16-3.86,2.35-7.7,3.52-11.56.39-1.28.77-2.56,1.17-3.89-.25-.01-.43-.03-.61-.03-1.98,0-3.96.01-5.94-.01Z"/>
      <path class="cls-1" d="M9.47,4.79C9.48,2.09,7.45,0,4.77,0,2.07,0,.01,2,0,4.66c-.01,2.66,2.05,4.78,4.66,4.79,2.66,0,4.8-2.06,4.81-4.66Z"/>
      <path class="cls-1" d="M186.48,22.22c-1.37,0-2.46,1.06-2.46,2.38s1.09,2.41,2.46,2.41,2.44-1.06,2.44-2.41-1.06-2.38-2.44-2.38ZM186.5,26.51c-1.08,0-1.86-.84-1.86-1.9s.78-1.9,1.85-1.9,1.83.86,1.83,1.92-.77,1.89-1.82,1.89Z"/>
      <path class="cls-1" d="M187.04,24.68v-.03c.29-.09.49-.29.49-.55,0-.23-.1-.42-.23-.52-.17-.1-.38-.17-.83-.17-.39,0-.7.03-.92.07v2.38h.55v-.96h.26c.31,0,.45.12.49.38.07.28.12.49.19.58h.6c-.06-.09-.1-.23-.17-.6-.07-.32-.2-.49-.44-.58ZM186.38,24.5h-.26v-.68c.06-.01.16-.03.31-.03.35,0,.51.15.51.36,0,.25-.25.35-.55.35Z"/>
    </g>
  </g>
</svg>