<?xml version="1.0" encoding="UTF-8"?>
<svg id="Capa_2" data-name="Capa 2" xmlns="http://www.w3.org/2000/svg" viewBox="0 0 108.68 50.52">
  <defs>
    <style>
      .cls-1 {
        fill: #666;
      }
    </style>
  </defs>
  <g id="DISEÑO">
    <path class="cls-1" d="M0,0v50.52h108.68V0H0ZM45.52,16.32c.46-4.18,3.37-7.23,7.5-7.92,5.04-.85,9.94,3.21,10.04,8.32.03,1.42-.16,2.8-.78,4.1-.17.36-.3.45-.63.11-2.14-2.16-4.3-4.31-6.47-6.44-1.19-1.16-.86-1.14-1.99-.02-1.96,1.93-3.87,3.9-5.81,5.86-.27.28-.54.57-.92.78-.75-1.52-1.13-3.11-.95-4.8ZM59.02,24.48c-.36.22-.69.5-1.02.57-.34.03-.5-.11-.67-.24-.68-.54-1.24-1.21-1.84-1.83-.29-.29-.6-.56-.87-.86-.32-.35-.58-.29-.89.02-.79.81-1.59,1.6-2.39,2.4-.62.62-.64.62-1.41.19-.99-.55-1-.58-.23-1.38,1.34-1.39,2.7-2.76,4.11-4.08.26-.24.44-.28.72-.02,1.58,1.47,3.12,2.99,4.59,4.57.28.3.24.47-.09.67ZM61.93,42.17c-.61,0-1.22-.07-1.82.02-1.21.2-1.9-.27-2.3-1.42-.32-.94-.81-1.82-1.26-2.71-.14-.29-.06-.41.18-.54.66-.36,1.33-.71,1.97-1.09.6-.36,1.09-.83,1.33-1.52.26-.71.05-1.19-.67-1.41-.93-.29-1.88-.19-2.83-.17-.23,0-.23.19-.26.35-.49,2.59-.99,5.17-1.48,7.76-.14.72-.13.72-.88.72-1.49,0-2.98,0-4.47.03-.42.01-.55-.13-.62-.52-.4-2.19-.83-4.37-1.4-6.52-.04-.17-.06-.35-.21-.49-.21.11-.28.31-.39.49-1.41,2.21-2.78,4.43-4.05,6.72-.12.21-.24.3-.49.3-1.56,0-3.11,0-4.67.02-.34,0-.4-.09-.36-.42.21-1.64.72-3.22.97-4.86.06-.35.11-.7.06-1.14-1.29,1.46-2.49,2.9-3.88,4.27-.72-1.45-1.41-2.86-2.15-4.37-.4,1.36-.63,2.62-.85,3.89-.14.76-.26,1.52-.37,2.28-.03.25-.12.32-.37.32-1.6,0-3.21.01-4.81.04-.3,0-.39-.12-.46-.38-.37-1.39-.56-2.82-.87-4.23-.18-.83-.37-1.66-.56-2.49-.05-.2-.08-.42-.28-.58-1.43,2.41-2.95,4.76-4.29,7.21-.18.33-.37.47-.75.46-.96-.03-1.93-.01-2.89-.01-.06-.2.06-.3.13-.42,2.21-3.73,4.56-7.37,6.87-11.04.12-.19.26-.26.48-.25.87,0,1.74.02,2.6,0,.32,0,.41.11.48.4.62,2.52,1.25,5.04,1.9,7.64.23-.43.24-.85.32-1.24.42-2.07.82-4.14,1.21-6.21.06-.33.17-.49.56-.48.9.02,1.8,0,2.7-.03.29-.01.44.09.57.34.6,1.2,1.15,2.42,1.65,3.66.15.38.26.35.5.09,1.09-1.18,2.11-2.42,3.1-3.68.23-.29.46-.39.82-.39.9.02,1.8,0,2.7-.02.29,0,.35.06.29.36-.44,2.3-.85,4.6-1.27,6.9-.02.13-.04.26-.07.44.27-.13.38-.35.51-.54,1.21-1.73,2.23-3.58,3.36-5.36.33-.52.7-1.03,1.03-1.55.15-.23.34-.31.61-.3.8.01,1.61.02,2.41-.01.35-.01.47.1.55.43.54,2.26,1.1,4.51,1.66,6.76.09.34.16.7.4,1.07.29-.84.43-1.66.58-2.47.34-1.78.66-3.57.97-5.36.04-.22.08-.34.34-.36,2.34-.11,4.68-.13,7.01.14,1.61.18,2.63,1.19,2.79,2.53.23,1.96-.92,3.96-2.75,4.7-.38.15-.36.31-.25.61.29.73.71,1.4,1.09,2.08.27.48.56.96.71,1.5-.13.13-.28.07-.42.07ZM67.87,34.93c.21.2.74.07,1.14.07,1.36.02,2.72.04,4.07.04.37,0,.44.09.35.45-.14.55-.25,1.12-.31,1.69-.04.35-.2.42-.51.43-1.24.04-2.49.05-3.73-.02-.11,0-.23-.02-.34-.02-1.26-.07-1.54.21-1.56,1.47,0,.32.1.37.39.37,1.82,0,3.63.01,5.45,0,.39,0,.51.09.47.49-.06.62-.17,1.23-.32,1.83-.08.33-.23.47-.61.47-1.47-.03-2.95-.01-4.42-.01v.02c-1.46,0-2.91-.02-4.37.01-.41,0-.49-.11-.43-.5.36-2.52.86-5.03,1.35-7.53.21-1.06.45-2.11.66-3.17.07-.33.2-.44.56-.44,2.93,0,5.86-.01,8.79-.04.39,0,.48.1.39.47-.13.56-.23,1.12-.31,1.69-.07.51-.34.67-.84.65-1.73-.05-3.47-.13-5.2-.05-.36.02-.58.08-.59.5,0,.4-.35.89-.09,1.15ZM92.61,42.14c-.97,0-1.93.02-2.9.05-.3.01-.38-.11-.44-.38-.47-2.27-.97-4.54-1.45-6.81-.03-.16-.08-.31-.13-.52-.37.38-.63.77-.87,1.18-1.01,1.74-2.01,3.48-3.03,5.21-.78,1.33-.8,1.32-2.33,1.32-2.39,0-4.78-.01-7.17,0-.42,0-.48-.13-.41-.5.67-3.57,1.33-7.14,1.97-10.71.06-.35.2-.44.54-.44.82.02,1.64,0,2.45-.03.33-.01.46.02.38.42-.5,2.65-.97,5.31-1.47,7.96-.06.33-.02.42.32.42.83-.01,1.67,0,2.5.04.41.02.65-.1.88-.44,1.74-2.65,3.45-5.32,5.06-8.06.18-.3.35-.4.69-.39.82.02,1.64.01,2.45,0,.26,0,.4.04.47.33.91,3.66,1.83,7.32,2.76,10.98.07.29,0,.37-.29.37Z"/>
  </g>
</svg>