<?xml version="1.0" encoding="UTF-8"?>
<svg id="Capa_2" data-name="Capa 2" xmlns="http://www.w3.org/2000/svg" viewBox="0 0 228.83 39.75">
  <defs>
    <style>
      .cls-1 {
        fill-rule: evenodd;
      }
    </style>
  </defs>
  <g id="DISEÑO">
    <g>
      <path class="cls-1" d="M123.73,16.84c.25-1.25-.42-4.08-4.25-4.16-.67,0-3.83.58-6.91,3.25l.42-1.75s.42-2.5-2-2.5-3.91,2.33-4.16,3.16c-.33.75-6.74,20.9-6.74,20.9,0,0-1,3.33,1.75,3.33s4.16-2.17,4.58-3.16c.42-1.08,3.91-12.32,4.25-12.99,2-4.75,4-5.91,4-5.91,0,0-1.33,2.83,2.17,3.91,1.08.25,6,.58,6.91-4.08Z"/>
      <path class="cls-1" d="M39.94.01c-5.33-.25-7.99,5.16-7.99,5.16l-12.24,21.9s1.92-21.9,2-23.15C21.95.1,18.2-.23,16.62.1c-4.75,1.08-6.16,5.5-6.16,5.5L.22,35.57s-1.17,3.33,1.92,3.33c3.5,0,4.16-3,4.16-3L15.62,6.76s-2.25,26.48-2.25,29.4,1.83,2.91,2.33,2.91c3.16,0,4.5-3,4.5-3L37.11,6.76s-8.24,25.23-9.16,28.56c-.83,3.41,1.25,3.83,2,3.75,3.75-.08,4.75-3.83,4.75-3.83,0,0,8.74-28.15,9.16-29.56C45.27.52,41.27.01,39.94.01Z"/>
      <path class="cls-1" d="M56.6,10.76c-5.91-.83-9.58,3.33-9.58,3.33,0,0-2.17,2.75,0,4.16,2.08,1.33,4.41-1.08,4.41-1.08,0,0,1.17-2.25,3.83-1.75,2.75.5.25,6,.25,6,0,0-14.49-1.25-15.82,9.58-1,8.16,4,8.24,4.75,8.33,4.5.33,6.99-4.08,6.99-4.08,0,0-1.08,3.41,1.42,3.75,3.08.42,4.16-2.91,4.16-2.91,0,0,5.08-15.91,5.41-17.32,1-4.33-.92-7.33-5.83-7.99ZM49.44,33.66c-3.58,2.5-4-1.25-3.75-2.41,1.25-6.25,8.41-5.5,8.41-5.5,0,0-1.17,5.33-4.66,7.91Z"/>
      <path class="cls-1" d="M81.83,13.92c.17-.75.25-2.17-1.58-2.17h-2.58l1.75-5.33s1.58-3.08-1.75-3.16c-2.91-.17-4.41,2.66-4.5,3-.17.42-1.83,5.41-1.83,5.41l-1.33.08s-2.75,0-3.58,2.42c-.75,2.42,2.08,2.58,2.08,2.58l1.17-.17-4.58,14.07s-2.66,7.74,2.75,8.58c5.5.75,7.08-2.25,7.08-3.5,0-1.17-.08-2-1.67-2.33-1.67-.25-2.17-.92-1.75-3.08.42-2.25,4.58-13.82,4.58-13.82l2.33.08s2.91,0,3.41-2.66Z"/>
      <path class="cls-1" d="M86.09,26.91h9.58s3.91.58,4.58-3.16c.75-3.75,1.83-7.91-.5-10.66-2.33-2.75-8.08-3.25-12.16-.33-4.08,2.91-8.91,12.91-8.08,21.32.08.75.25,5.33,6.75,5.66,6.5.25,9.74-4.25,10.24-6.58.17-.67.33-2.25-1.42-2.58-1.75-.25-3.75,1-4.58,2.25-.33.5-1.5,2.33-3.41,2-1.92-.25-1.92-3.08-1.83-3.91s.83-4,.83-4ZM93.08,15.59c.58-.08,2.83.25,2.41,3.25-.08.83-.25,3.25-3.16,3.25h-4.58s1.58-5.83,5.33-6.5Z"/>
      <path class="cls-1" d="M160.63.01c-5.33-.25-7.99,5.16-7.99,5.16l-12.24,21.9s1.92-21.9,2-23.15c.25-3.83-3.5-4.16-5.08-3.83-4.75,1.08-6.16,5.5-6.16,5.5l-10.24,29.98s-1.17,3.33,1.92,3.33c3.5,0,4.16-3,4.16-3l9.33-29.15s-2.25,26.48-2.25,29.4,1.83,2.91,2.33,2.91c3.16,0,4.5-3,4.5-3l16.9-29.31s-8.24,25.23-9.16,28.56c-.83,3.41,1.25,3.83,2,3.75,3.75-.08,4.75-3.83,4.75-3.83,0,0,8.74-28.15,9.16-29.56C165.96.52,161.96.01,160.63.01Z"/>
      <path class="cls-1" d="M177.29,10.76c-5.91-.83-9.58,3.33-9.58,3.33,0,0-2.16,2.75,0,4.16,2.08,1.33,4.41-1.08,4.41-1.08,0,0,1.17-2.25,3.83-1.75,2.75.5.25,6,.25,6,0,0-14.49-1.25-15.82,9.58-1,8.16,4,8.24,4.75,8.33,4.5.33,6.99-4.08,6.99-4.08,0,0-1.08,3.41,1.42,3.75,3.08.42,4.16-2.91,4.16-2.91,0,0,5.08-15.91,5.41-17.32,1-4.33-.92-7.33-5.83-7.99ZM170.13,33.66c-3.58,2.5-4-1.25-3.75-2.41,1.25-6.25,8.41-5.5,8.41-5.5,0,0-1.17,5.33-4.66,7.91Z"/>
      <path class="cls-1" d="M228.68,15.09c-.17-.58-.75-3.66-5.25-4.25-4.41-.58-9.33.42-12.66,6.08-.25.42-4.75,8.41-5,14.91,0,.58-.08,7.49,6.75,7.83.75,0,8.49.5,11.66-6.33.17-.5,1.08-2.33-.67-3.41-1.67-1.17-4.41.75-5.08,1.5-.58.75-1.58,3.33-4.83,2.91-1.67-.17-1.83-3.33-1.25-5.33.67-2.08,3-8.99,3.75-10.16.83-1.08,2.5-3.5,4.41-3.33,1.92.17,1.83,1.83,1.83,1.83,0,0-.92,4.25,2.75,3.75.83-.08,4.5-1.5,3.58-6Z"/>
      <path class="cls-1" d="M206.44,15.09c-.17-.58-.83-3.66-5.25-4.25-4.5-.58-9.33.42-12.66,6.08-.25.42-4.75,8.41-5,14.91,0,.58-.08,7.49,6.75,7.83.75,0,8.49.5,11.58-6.33.25-.5,1.17-2.33-.58-3.41-1.75-1.17-4.41.75-5.08,1.5-.58.75-1.58,3.33-4.83,2.91-1.67-.17-1.83-3.33-1.25-5.33.67-2.08,3-8.99,3.75-10.16.83-1.08,2.5-3.5,4.41-3.33,1.92.17,1.83,1.83,1.83,1.83,0,0-.92,4.25,2.67,3.75.92-.08,4.83-1.5,3.66-6Z"/>
    </g>
  </g>
</svg>