<?xml version="1.0" encoding="UTF-8"?>
<svg id="Capa_2" data-name="Capa 2" xmlns="http://www.w3.org/2000/svg" viewBox="0 0 69.48 50.16">
  <defs>
    <style>
      .cls-1 {
        fill: #282828;
      }
    </style>
  </defs>
  <g id="DISEÑO">
    <g>
      <path class="cls-1" d="M69.1,48.37c-.23-.17-.58-.23-.88-.25-.92-.04-1.82.03-2.71-.4-1.95-.94-3.96-1.77-5.94-2.64-4.91-2.16-10.03-2.85-15.3-1.91-1.5.27-2.62,0-3.9-.71-6.83-3.85-14.06-4.85-21.65-2.72-1.58.44-3.09,1.12-4.62,1.74-.71.28-.93.83-.68,1.4.26.58.84.74,1.55.43.17-.07.33-.15.49-.23,6.97-3.1,14.04-3.33,21.02-.24,3.23,1.43,6.22,3.38,9.32,5.1.02.01.01.08.02.13H6.64c.31-.2.48-.32.67-.43,1.09-.64,2.19-1.26,3.28-1.91.59-.35.76-.93.47-1.44-.29-.52-.86-.65-1.47-.33-.2.1-.39.23-.59.34-1.9,1.1-3.8,2.18-5.68,3.31-.61.36-1.21.59-1.91.5-.62-.08-1.11.13-1.41.7v.68c.36.56.88.67,1.51.67,22.14-.01,44.28,0,66.42-.01.29,0,.6,0,.87-.09.75-.26.93-1.21.3-1.68ZM50.44,48.11c-.11,0-.24,0-.33-.05-1.66-.95-3.31-1.91-4.93-2.93,5.62-.86,10.86.28,15.83,2.98-3.52,0-7.04,0-10.56,0Z"/>
      <path class="cls-1" d="M39.38,25.67c2.58,1.27,5.58.05,6.64-2.74.77-2.02,1.11-4.13,1.23-6.74-.09-.43-.18-1.32-.47-2.13-.4-1.12-1.41-1.65-2.55-1.34-.72.2-1.45.53-2.06.97-1.89,1.36-3.44,3.07-4.66,5.04-1.57,2.53-.7,5.67,1.88,6.94ZM39.26,19.75c1.18-1.79,2.57-3.39,4.36-4.6,1.12-.76,1.39-.62,1.53.7.03.27,0,.54,0,.81-.06,1.88-.37,3.72-1.02,5.5-.4,1.1-1.15,1.79-2.32,1.92-1.13.14-2.05-.3-2.65-1.28-.63-1.03-.56-2.08.1-3.07Z"/>
      <path class="cls-1" d="M27.62,35.36c1.97.18,3.55-.61,4.55-2.33,1.04-1.77.89-3.55-.23-5.24-1.1-1.67-2.42-3.16-4.02-4.36-.76-.57-1.63-1.07-2.52-1.39-1.19-.43-2.3.14-2.73,1.34-.27.75-.36,1.57-.52,2.36.13,1.91.68,4.72,1.38,6.44.75,1.86,2.09,3,4.1,3.19ZM24.32,25.07c.13-1.23.37-1.37,1.4-.71,1.97,1.26,3.55,2.93,4.73,4.94,1.06,1.81-.29,4.04-2.62,4.06-.89-.04-1.78-.52-2.24-1.56-.91-2.12-1.33-4.34-1.28-6.65,0-.02,0-.05,0-.07Z"/>
      <path class="cls-1" d="M29.25,10.76c1.28,1.47,3.42,1.86,5.23,1.14,1.81-.72,2.99-2.47,2.99-4.44,0-1.66-.74-2.95-2.03-3.94-.52-.4-1.07-.35-1.45.09-.38.44-.31,1.04.18,1.5.15.14.31.26.45.41.73.76.98,1.67.7,2.68-.28,1.02-.96,1.69-1.99,1.93-1.08.26-2.04-.03-2.75-.89-1.32-1.6-2.28-3.41-2.92-5.38-.1-.32-.18-.65-.23-.99-.11-.75.06-.95.79-.78.66.15,1.29.38,1.93.6.65.22,1.21.05,1.44-.48.24-.56,0-1.15-.67-1.4-.76-.29-1.53-.57-2.32-.72-2.19-.43-3.57.9-3.17,3.09.53,2.89,1.9,5.4,3.81,7.6Z"/>
    </g>
  </g>
</svg>